<ttFont>
          <CharString index="0">
            rmoveto
            106 109 -4 callgsubr
            -126 40 rlineto
            -48 callsubr
            -59 -24 37 70 hvcurveto
            -1 19 18 0 17 hhcurveto
            207 105 60 114 95 -74 55 -120 -189 -149 -146 -177 -131 84 -91 136 hvcurveto
            -93 callgsubr
            return
          </CharString>
          <CharString index="1">
            223 199 210 213 153 -94 144 -172 -224 -200 -208 -215 -155 95 -142 173 hvcurveto
            32 146 rmoveto
            -91 -41 77 87 120 85 144 137 91 41 -75 -87 -119 -84 -147 -138 hvcurveto
            return
          </CharString>
          <CharString index="2">
            200 134 162 164 119 -73 100 -145 -200 -134 -161 -165 -119 72 -100 146 hvcurveto
            29 135 rmoveto
            -49 -31 41 62 96 66 75 72 49 31 -41 -62 -96 -66 -75 -72 hvcurveto
            return
          </CharString>
          <CharString index="3">
            -93 callsubr
            29 138 rlineto
            303 hlineto
            31 144 rlineto
            -467 hlineto
            return
          </CharString>
          <CharString index="4">
            232 -10 -107 callsubr
            return
          </CharString>
          <CharString index="5">
            -57 hmoveto
            169 hlineto
            81 159 -4 callsubr
            15 -159 rlineto
            168 hlineto
            -92 10 callsubr
            -149 hlineto
            -95 -438 rmoveto
            130 251 20 -251 rlineto
            return
          </CharString>
          <CharString index="6">
            138 hlineto
            11 14 85 156 10 14 25 -184 rcurveline
            105 hlineto
            153 174 115 177 65 174 rrcurveto
            -145 hlineto
            -57 -143 -33 -59 -107 -142 -17 93 rcurveline
            55 81 37 75 36 95 rrcurveto
            -123 hlineto
            -5 -17 -58 -125 -9 -17 -18 159 rcurveline
            -133 hlineto
            48 -252 -10 -16 -48 -96 -13 -16 rlinecurve
            -51 380 63 callsubr
            return
          </CharString>
          <CharString index="7">
            292 -99 callsubr
            return
          </CharString>
          <CharString index="8">
            -6 -106 callgsubr
            return
          </CharString>
          <CharString index="9">
            6 1 8 2 7 vhcurveto
            -84 hlineto
            -3 -13 -2 -12 -12 vvcurveto
            -66 44 -44 71 82 72 61 86 18 vhcurveto
            -84 hlineto
            return
          </CharString>
          <CharString index="10">
            -31 -231 rmoveto
            127 1 82 52 94 152 80 129 rcurveline
            132 213 38 80 36 129 rrcurveto
            -154 hlineto
            -26 -121 -40 -102 -67 -109 -34 -56 rcurveline
            -29 388 rlineto
            -163 hlineto
            78 -536 -29 -37 -37 -48 -28 -11 -79 -4 rlinecurve
            return
          </CharString>
          <CharString index="11">
            -9 -1 -10 -2 -11 vhcurveto
            84 hlineto
            2 12 1 10 11 vvcurveto
            64 -41 50 -72 -82 -72 -61 -86 -18 vhcurveto
            return
          </CharString>
          <CharString index="12">
            rmoveto
            -144 hlineto
            -77 -130 106 -14 rlineto
            return
          </CharString>
          <CharString index="13">
            28 135 rlineto
            -18 1 -7 7 16 vvcurveto
            -21 callsubr
            1 9 vhcurveto
            return
          </CharString>
          <CharString index="14">
            -77 callgsubr
            -312 hlineto
            33 151 rlineto
            260 hlineto
            28 133 rlineto
            -260 hlineto
            return
          </CharString>
          <CharString index="15">
            rmoveto
            115 hlineto
            128 107 -75 37 -94 -63 -67 63 -89 -37 rlineto
            return
          </CharString>
          <CharString index="16">
            48 229 rlineto
            93 hlineto
            78 -229 rlineto
            185 hlineto
            -91 264 rlineto
            91 48 64 100 98 vvcurveto
            102 -65 98 -111 vhcurveto
            -305 hlineto
            -151 -710 rlineto
            243 372 rmoveto
            -67 callsubr
            return
          </CharString>
          <CharString index="17">
            rlineto
            58 -18 -51 38 -68 hhcurveto
            -152 -134 -155 -177 return
          </CharString>
          <CharString index="18">
            -61 callgsubr
            151 10 callsubr
            -164 hlineto
            -88 -417 -213 417 rlineto
            -128 hlineto
            return
          </CharString>
          <CharString index="19">
            rmoveto
            38 callsubr
            -71 -27 -55 hhcurveto
            -86 -46 77 90 115 83 146 138 54 62 -22 -75 12 hvcurveto
            145 88 rlineto
            92 -26 -85 63 -127 hhcurveto
            -243 -180 -221 -196 -155 96 -148 168 hvcurveto
            return
          </CharString>
          <CharString index="20">
            rmoveto
            116 94 58 81 35 callgsubr
            -31 -21 -37 -21 -35 hhcurveto
            -48 -32 42 62 98 68 72 70 35 25 -18 -32 12 hvcurveto
            165 47 rlineto
            82 -22 -69 57 -116 hhcurveto
            -198 -136 -160 -164 -120 73 -101 146 hvcurveto
            return
          </CharString>
          <CharString index="21">
            254 hlineto
            241 182 184 250 155 -87 121 -185 hvcurveto
            -254 hlineto
            return
          </CharString>
          <CharString index="22">
            rlineto
            -160 hlineto
            return
          </CharString>
          <CharString index="23">
            421 hlineto
            24 111 rlineto
            -252 hlineto
            312 318 21 96 rlineto
            -401 hlineto
            return
          </CharString>
          <CharString index="24">
            rmoveto
            111 16 -22 130 -77 callsubr
            endchar
          </CharString>
          <CharString index="25">
            325 349 327 315 -58 64 -314 -339 -337 -324 rlineto
            return
          </CharString>
          <CharString index="26">
            -54 -24 -48 -31 -64 vvcurveto
            -67 64 -50 88 vhcurveto
            20 93 rmoveto
            -38 -36 45 callsubr
            48 40 34 -17 -28 -32 -48 -24 -46 hvcurveto
            37 177 rmoveto
            return
          </CharString>
          <CharString index="27">
            rmoveto
            236 60 144 216 46 hvcurveto
            77 361 rlineto
            -165 13 callgsubr
            -149 -32 -25 -65 -89 hhcurveto
            -54 -42 22 10 -9 hvcurveto
            -63 -134 rlineto
            -29 34 45 -15 58 hhcurveto
            return
          </CharString>
          <CharString index="28">
            rlineto
            -164 hlineto
            return
          </CharString>
          <CharString index="29">
            -84 callsubr
            -24 -111 rlineto
            232 hlineto
            -312 -318 rlineto
            return
          </CharString>
          <CharString index="30">
            rlineto
            -144 hlineto
            return
          </CharString>
          <CharString index="31">
            -50 0 144 151 133 138 144 return
          </CharString>
          <CharString index="32">
            56 11 28 21 35 hhcurveto
            30 14 -15 -32 hvcurveto
            return
          </CharString>
          <CharString index="33">
            hlineto
            151 710 -79 callsubr
            return
          </CharString>
          <CharString index="34">
            -34 -10 135 222 126 104 139 hstem
            41 147 200 156 vstem
            235 -10 rmoveto
            162 147 134 157 110 -76 82 -116 -52 -45 -21 -36 -33 hvcurveto
            102 24 57 59 71 hhcurveto
            47 40 -25 -43 23 hvcurveto
            112 102 rlineto
            68 -42 -65 37 -83 hhcurveto
            -216 -149 -217 -270 -149 69 -90 125 hvcurveto
            29 135 rmoveto
            -45 -31 41 51 70 61 60 62 46 31 -38 -50 -70 -64 -64 -60 hvcurveto
            endchar
          </CharString>
          <CharString index="35">
            hmoveto
            -71 callsubr
            return
          </CharString>
          <CharString index="36">
            -76 callgsubr
            -30 -144 rlineto
            327 hlineto
            -435 -443 rlineto
            return
          </CharString>
          <CharString index="37">
            rmoveto
            62 93 30 75 64 hvcurveto
            -63 31 66 -42 99 hhcurveto
            116 99 58 82 56 hvcurveto
            -128 38 rlineto
            -38 -21 -50 -25 -42 hhcurveto
            -48 -38 30 55 9 1 6 1 8 hvcurveto
            365 hlineto
            9 20 13 32 51 vvcurveto
            119 -73 100 -145 -71 -63 -25 -39 -50 vhcurveto
            41 -32 -54 23 -76 hhcurveto
            -80 -77 -23 -45 -75 hvcurveto
            26 -100 rlineto
            38 61 52 20 54 hhcurveto
            54 26 -22 -38 -17 -7 -17 -4 -19 hvcurveto
            return
          </CharString>
          <CharString index="38">
            136 hlineto
            79 371 rlineto
            -265 hlineto
            -25 -119 rlineto
            129 hlineto
            -5 -23 rlineto
            return
          </CharString>
          <CharString index="39">
            -20 -8 133 -40 callgsubr
            return
          </CharString>
          <CharString index="40">
            70 callsubr
            131 hlineto
            26 22 -29 -44 -66 -45 -55 -39 hvcurveto
            return
          </CharString>
          <CharString index="41">
            21 -37 callsubr
            return
          </CharString>
          <CharString index="42">
            rmoveto
            21 97 rlineto
            -291 hlineto
            -20 -97 rlineto
            return
          </CharString>
          <CharString index="43">
            rlineto
            4 16 36 7 26 hhcurveto
            28 17 -7 -19 -28 -26 -10 -34 -35 -35 11 9 -12 hvcurveto
            return
          </CharString>
          <CharString index="44">
            -6 146 428 146 return
          </CharString>
          <CharString index="45">
            -35 -10 -66 callgsubr
            5 callsubr
            hstem
            -38 callsubr
            vstem
            return
          </CharString>
          <CharString index="46">
            -68 -10 115 106 99 110 115 return
          </CharString>
          <CharString index="47">
            580 rmoveto
            -31 -22 -7 -6 -13 hvcurveto
            34 71 rlineto
            173 hlineto
            19 93 rlineto
            -238 hlineto
            -30 -78 -51 -104 -32 -82 rrcurveto
            80 hlineto
            26 20 40 18 30 hhcurveto
            28 33 -16 -37 -51 -45 -23 -52 -46 -35 17 27 -20 hvcurveto
            -67 -63 rlineto
            -44 21 54 -27 68 hhcurveto
            119 98 73 98 68 -54 47 -81 hvcurveto
            return
          </CharString>
          <CharString index="48">
            160 hlineto
            return
          </CharString>
          <CharString index="49">
            -45 -14 -31 -32 -28 hhcurveto
            endchar
          </CharString>
          <CharString index="50">
            -8 -223 120 101 127 35 callsubr
            return
          </CharString>
          <CharString index="51">
            1 -4 -5 0 -14 hhcurveto
            -60 -66 -43 -70 -50 hvcurveto
            return
          </CharString>
          <CharString index="52">
            159 hlineto
            51 239 rlineto
            86 33 70 70 57 hhcurveto
            26 18 -16 -29 -54 -62 -49 -105 -20 hvcurveto
            88 -227 rlineto
            170 hlineto
            -89 198 rlineto
            91 49 51 78 88 vvcurveto
            74 -39 44 -73 -80 -70 -52 -85 -53 vhcurveto
            71 336 rlineto
            -159 hlineto
            endchar
          </CharString>
          <CharString index="53">
            -90 callsubr
            hvcurveto
            return
          </CharString>
          <CharString index="54">
            hstem
            12 166 212 154 vstem
            return
          </CharString>
          <CharString index="55">
            -95 callsubr
            endchar
          </CharString>
          <CharString index="56">
            33 168 354 168 return
          </CharString>
          <CharString index="57">
            12 -25 -36 8 -40 hhcurveto
            -142 -114 -88 -116 -80 56 -58 87 hvcurveto
            73 115 rmoveto
            -39 -21 24 30 48 50 36 57 24 30 -6 -9 22 hvcurveto
            -3 -18 -2 -16 -15 vvcurveto
            -8 1 -7 1 -6 vhcurveto
            -28 -24 -55 -25 -41 hhcurveto
            return
          </CharString>
          <CharString index="58">
            -20 hstem
            4 hmoveto
            -81 callgsubr
            return
          </CharString>
          <CharString index="59">
            -40 -25 -43 -24 -48 hhcurveto
            return
          </CharString>
          <CharString index="60">
            363 -79 callsubr
            return
          </CharString>
          <CharString index="61">
            rmoveto
            101 110 43 100 45 -28 39 -53 8 hvcurveto
            return
          </CharString>
          <CharString index="62">
            64 -8 callgsubr
            return
          </CharString>
          <CharString index="63">
            18 37 32 46 vvcurveto
            62 -70 42 -70 return
          </CharString>
          <CharString index="64">
            207 52 rmoveto
            -21 -17 7 13 -14 hvcurveto
            186 189 rlineto
            3 -11 2 -13 -14 vvcurveto
            -96 -67 -75 -72 vhcurveto
            -80 103 rmoveto
            96 66 75 72 19 16 -6 -12 13 vhcurveto
            -183 -187 rlineto
            -2 11 -1 11 12 vvcurveto
            return
          </CharString>
          <CharString index="65">
            485 -77 callgsubr
            -321 hlineto
            return
          </CharString>
          <CharString index="66">
            rmoveto
            -26 -18 24 32 hvcurveto
            return
          </CharString>
          <CharString index="67">
            21 -26 callsubr
            return
          </CharString>
          <CharString index="68">
            -96 callsubr
            endchar
          </CharString>
          <CharString index="69">
            11 167 218 167 return
          </CharString>
          <CharString index="70">
            -21 710 -20 return
          </CharString>
          <CharString index="71">
            82 48 -13 -31 -33 -46 -16 -53 -69 -27 41 11 -2 hvcurveto
            -64 -70 rlineto
            -51 11 54 -25 79 hhcurveto
            return
          </CharString>
          <CharString index="72">
            rmoveto
            -86 callsubr
            return
          </CharString>
          <CharString index="73">
            rlineto
            -41 callgsubr
            return
          </CharString>
          <CharString index="74">
            rlineto
            -178 hlineto
            return
          </CharString>
          <CharString index="75">
            114 137 116 85 -50 98 -119 -147 -116 -137 -118 -85 51 -96 return
          </CharString>
          <CharString index="76">
            hlineto
            20 91 rlineto
            -60 hlineto
            53 251 rlineto
            -63 hlineto
            return
          </CharString>
          <CharString index="77">
            -326 -66 callsubr
            return
          </CharString>
          <CharString index="78">
            -18 callsubr
            44 209 81 77 123 -286 rlineto
            188 hlineto
            -184 393 319 317 rlineto
            -185 hlineto
            -300 -306 65 306 -79 callsubr
            endchar
          </CharString>
          <CharString index="79">
            -82 42 -44 81 vhcurveto
            return
          </CharString>
          <CharString index="80">
            21 -21 361 121 88 135 -100 135 hstemhm
            hintmask 11010000
            22 hmoveto
            -59 callsubr
            76 361 rlineto
            105 43 callgsubr
            77 361 rlineto
            118 hlineto
            return
          </CharString>
          <CharString index="81">
            -21 525 -20 return
          </CharString>
          <CharString index="82">
            hstem
            -59 callgsubr
            return
          </CharString>
          <CharString index="83">
            35 163 54 callgsubr
            -34 -163 rlineto
            return
          </CharString>
          <CharString index="84">
            -6 -9 callsubr
            return
          </CharString>
          <CharString index="85">
            -21 callgsubr
            -10 -20 return
          </CharString>
          <CharString index="86">
            6 1 6 return
          </CharString>
          <CharString index="87">
            -68 callsubr
            225 -20 9 callsubr
            hintmask 01111000
            return
          </CharString>
          <CharString index="88">
            45 -44 callsubr
            return
          </CharString>
          <CharString index="89">
            164 hlineto
            return
          </CharString>
          <CharString index="90">
            -21 159 113 return
          </CharString>
          <CharString index="91">
            479 0 111 -111 125 -114 -21 23 -21 407 126 -111 111 10 -20 215 -20 -14 callgsubr
            hintmask 1000100110000000
            return
          </CharString>
          <CharString index="92">
            21 -16 callgsubr
            return
          </CharString>
          <CharString index="93">
            60 -21 447 -20 hstem
            15 217 rmoveto
            221 -178 27 129 -113 91 154 98 27 129 -299 -193 rlineto
            return
          </CharString>
          <CharString index="94">
            -129 112 -98 -152 -91 -27 -129 296 178 rlineto
            return
          </CharString>
          <CharString index="95">
            19 88 rlineto
            59 -31 callsubr
            return
          </CharString>
          <CharString index="96">
            -12 vhcurveto
            hintmask 11110100
            -54 -24 -47 -31 -64 vvcurveto
            -67 64 -50 88 105 102 66 85 vhcurveto
            -93 -2 rmoveto
            -32 -48 -24 -46 -39 -36 18 return
          </CharString>
          <CharString index="97">
            21 -15 callgsubr
            return
          </CharString>
          <CharString index="98">
            146 570 -20 return
          </CharString>
          <CharString index="99">
            rlineto
            -140 hlineto
            -18 -86 rlineto
            hintmask 11101000
            58 -23 -46 38 -76 hhcurveto
            -155 -143 -150 -184 -120 62 -91 103 return
          </CharString>
          <CharString index="100">
            -26 34 46 -15 57 hhcurveto
            200 134 162 164 52 -14 49 -28 38 hvcurveto
            80 75 rlineto
            -87 hlineto
            -36 -34 rlineto
            return
          </CharString>
          <CharString index="101">
            hlineto
            -70 -39 -36 -43 -41 14 callsubr
            return
          </CharString>
          <CharString index="102">
            23 106 rlineto
            -147 hlineto
            endchar
          </CharString>
          <CharString index="103">
            rlineto
            202 hlineto
            return
          </CharString>
          <CharString index="104">
            rmoveto
            -56 -33 44 60 87 69 83 72 44 37 -40 -52 6 hvcurveto
            -24 -111 rlineto
            -43 -35 -39 -28 -41 hhcurveto
            endchar
          </CharString>
          <CharString index="105">
            57 93 112 vvcurveto
            181 -149 162 -198 -199 -149 -162 -181 -112 57 -93 91 return
          </CharString>
          <CharString index="106">
            148 430 146 hstem
            82 180 104 185 vstem
            return
          </CharString>
          <CharString index="107">
            -20 -44 callgsubr
            return
          </CharString>
          <CharString index="108">
            hstem
            42 156 74 161 vstem
            return
          </CharString>
          <CharString index="109">
            -95 -231 120 636 -20 return
          </CharString>
          <CharString index="110">
            -14 callgsubr
            hintmask 10111000
            return
          </CharString>
          <CharString index="111">
            hstemhm
            5 callgsubr
            return
          </CharString>
          <CharString index="112">
            195 -20 return
          </CharString>
          <CharString index="113">
            160 -223 -69 callgsubr
            return
          </CharString>
          <CharString index="114">
            -22 -9 -9 -8 hvcurveto
            43 121 rlineto
            220 hlineto
            31 146 rlineto
            -336 hlineto
            -43 -104 -81 -215 return
          </CharString>
          <CharString index="115">
            -31 203 144 hstem
            520 203 rmoveto
            31 144 rlineto
            -488 hlineto
            -31 -144 rlineto
            endchar
          </CharString>
          <CharString index="116">
            hstemhm
            16 171 return
          </CharString>
          <CharString index="117">
            710 rlineto
            return
          </CharString>
          <CharString index="118">
            -77 rmoveto
            325 349 326 315 -58 64 -313 -339 -338 -324 rlineto
            endchar
          </CharString>
          <CharString index="119">
            -66 callsubr
            226 -20 hstem
            return
          </CharString>
          <CharString index="120">
            hstem
            54 167 vstem
            return
          </CharString>
          <CharString index="121">
            -45 callgsubr
            -28 callgsubr
            return
          </CharString>
          <CharString index="122">
            48 callsubr
            186 121 rmoveto
            5 22 rlineto
            40 return
          </CharString>
          <CharString index="123">
            24 -34 -44 15 -55 hhcurveto
            -199 -135 -161 -165 -51 13 -48 27 -37 hvcurveto
            return
          </CharString>
          <CharString index="124">
            46 23 49 39 35 -17 -28 vhcurveto
            hintmask 11101010
            -119 155 rmoveto
            26 38 16 39 return
          </CharString>
          <CharString index="125">
            rmoveto
            104 hlineto
            334 430 rlineto
            -367 hlineto
            -19 69 callgsubr
          </CharString>
          <CharString index="126">
            0 -11 callgsubr
            return
          </CharString>
          <CharString index="127">
            0 163 hstem
            121 hmoveto
            -24 callsubr
            return
          </CharString>
          <CharString index="128">
            -67 callsubr
            endchar
          </CharString>
          <CharString index="129">
            113 321 111 return
          </CharString>
          <CharString index="130">
            -66 callsubr
            hstem
            return
          </CharString>
          <CharString index="131">
            20 39 11 2 14 -51 callgsubr
            -160 hlineto
            endchar
          </CharString>
          <CharString index="132">
            60 callgsubr
            -59 44 -89 return
          </CharString>
          <CharString index="133">
            18 -18 -39 -12 -2 -14 -3 -16 hvcurveto
            -63 -295 rlineto
            -59 callsubr
            return
          </CharString>
          <CharString index="134">
            109 vvcurveto
            98 70 99 116 115 70 -99 -98 -109 -56 return
          </CharString>
          <CharString index="135">
            28 17 -7 -19 -28 -26 -10 -34 -35 -35 11 9 -12 hvcurveto
            endchar
          </CharString>
          <CharString index="136">
            147 101 122 164 96 -52 58 -91 -114 -100 -79 return
          </CharString>
          <CharString index="137">
            146 hstem
            50 162 371 162 vstem
            40 hmoveto
            318 return
          </CharString>
          <CharString index="138">
            -155 0 34 callsubr
            return
          </CharString>
          <CharString index="139">
            44 callgsubr
            hstemhm
            return
          </CharString>
          <CharString index="140">
            -6 93 -75 -21 197 76 return
          </CharString>
          <CharString index="141">
            111 303 111 return
          </CharString>
          <CharString index="142">
            274 136 -10 -20 return
          </CharString>
          <CharString index="143">
            99 -68 40 -102 33 return
          </CharString>
          <CharString index="144">
            42 102 vvcurveto
            70 -48 40 -91 -96 -75 -37 -32 -31 vhcurveto
            44 return
          </CharString>
          <CharString index="145">
            113 144 60 105 63 hvcurveto
            -118 79 rlineto
            -71 -41 return
          </CharString>
          <CharString index="146">
            68 -97 -136 -89 -112 -116 -81 47 -69 97 return
          </CharString>
          <CharString index="147">
            hvcurveto
            -110 -99 rlineto
            -74 26 74 -44 98 hhcurveto
            endchar
          </CharString>
          <CharString index="148">
            18 rmoveto
            149 385 153 -385 rlineto
            endchar
          </CharString>
          <CharString index="149">
            -32 -8 148 430 146 return
          </CharString>
          <CharString index="150">
            -78 -10 -66 callgsubr
            return
          </CharString>
          <CharString index="151">
            583 rmoveto
            83 hlineto
            return
          </CharString>
          <CharString index="152">
            18 27 33 46 23 return
          </CharString>
          <CharString index="153">
            -40 -31 30 42 61 52 44 57 41 31 -25 -45 return
          </CharString>
          <CharString index="154">
            hhcurveto
            40 35 -14 -24 16 hvcurveto
            67 65 rlineto
            41 -27 return
          </CharString>
          <CharString index="155">
            hvcurveto
            -4 -17 -34 callsubr
            return
          </CharString>
          <CharString index="156">
            -63 callsubr
            202 -20 hstem
            33 return
          </CharString>
          <CharString index="157">
            -65 -38 -32 -41 3 callgsubr
            return
          </CharString>
          <CharString index="158">
            111 113 111 return
          </CharString>
          <CharString index="159">
            0 144 566 -20 return
          </CharString>
          <CharString index="160">
            -40 callsubr
            hstem
            return
          </CharString>
          <CharString index="161">
            hvcurveto
            hintmask 11100000
            18 -42 -41 11 -41 hhcurveto
            -111 return
          </CharString>
          <CharString index="162">
            rlineto
            114 hlineto
            26 121 rlineto
            -115 hlineto
            return
          </CharString>
          <CharString index="163">
            21 -21 176 126 136 125 hstem
            return
          </CharString>
          <CharString index="164">
            24 2 6 33 vhcurveto
            29 135 rlineto
            -24 1 return
          </CharString>
          <CharString index="165">
            rmoveto
            45 33 -26 -31 -38 -51 -31 -53 -45 -33 return
          </CharString>
          <CharString index="166">
            52 callsubr
            hstem
            return
          </CharString>
          <CharString index="167">
            86 126 81 58 89 hstem
            return
          </CharString>
          <CharString index="168">
            -26 callsubr
            80 145 return
          </CharString>
          <CharString index="169">
            -21 388 137 return
          </CharString>
          <CharString index="170">
            rlineto
            -154 hlineto
            return
          </CharString>
          <CharString index="171">
            hlineto
            6 29 33 22 56 17 rrcurveto
            74 22 return
          </CharString>
          <CharString index="172">
            163 rlineto
            -130 hlineto
            -35 -163 rlineto
            return
          </CharString>
          <CharString index="173">
            29 46 24 51 hhcurveto
            40 24 -12 -26 -55 return
          </CharString>
          <CharString index="174">
            hhcurveto
            28 32 -16 -37 -51 -45 -23 -51 -46 return
          </CharString>
          <CharString index="175">
            rmoveto
            127 -404 -127 vlineto
            endchar
          </CharString>
          <CharString index="176">
            -28 callsubr
            endchar
          </CharString>
          <CharString index="177">
            41 194 rlineto
            return
          </CharString>
        <CharString name=".notdef">
          -626 endchar
        </CharString>
        <CharString name="A">
          -53 callgsubr
          hstem
          -102 callsubr
          endchar
        </CharString>
        <CharString name="A.sc">
          -50 21 -21 118 125 320 -20 hstem
          -61 hmoveto
          154 hlineto
          69 118 rlineto
          181 hlineto
          20 -118 rlineto
          151 hlineto
          -109 563 rlineto
          -116 hlineto
          -70 -320 rmoveto
          91 146 27 -146 rlineto
          endchar
        </CharString>
        <CharString name="AE">
          30 callgsubr
          hstemhm
          hintmask 11010000
          -80 hmoveto
          6 callgsubr
          hintmask 10110000
          -6 callgsubr
          hintmask 11010000
          31 callgsubr
        </CharString>
        <CharString name="AEacute">
          30 callgsubr
          206 -20 hstemhm
          hintmask 11011000
          782 916 -95 callsubr
          -747 -772 rmoveto
          6 callgsubr
          hintmask 10111000
          -6 callgsubr
          hintmask 11011000
          31 callgsubr
        </CharString>
        <CharString name="Aacute">
          -53 callgsubr
          226 -20 hstem
          -102 callsubr
          174 644 -52 callsubr
        </CharString>
        <CharString name="Abreve">
          -53 callgsubr
          79 -17 callgsubr
          298 86 hintmask 11110100
          -102 callsubr
          36 567 -41 callsubr
          hintmask 11101100
          -98 callsubr
          hintmask 11110100
          -58 callsubr
        </CharString>
        <CharString name="Acircumflex">
          -53 callgsubr
          226 -20 hstem
          -102 callsubr
          -47 500 -70 callgsubr
        </CharString>
        <CharString name="Adblgrave">
          -53 callgsubr
          228 -20 hstem
          -102 callsubr
          88 500 -38 callgsubr
        </CharString>
        <CharString name="Adieresis">
          -53 callgsubr
          90 129 hstem
          -102 callsubr
          -9 508 -72 callgsubr
        </CharString>
        <CharString name="Agrave">
          -53 callgsubr
          227 -20 hstem
          -102 callsubr
          -23 499 -83 callsubr
        </CharString>
        <CharString name="Ainvertedbreve">
          -53 callgsubr
          79 -22 callgsubr
          485 84 hintmask 11110100
          -102 callsubr
          -108 497 rmoveto
          83 hlineto
          hintmask 11101100
          -75 callsubr
          hintmask 11110100
          -39 callsubr
        </CharString>
        <CharString name="Amacron">
          -53 callgsubr
          116 97 hstem
          -102 callsubr
          181 534 -65 callsubr
          endchar
        </CharString>
        <CharString name="Aogonek">
          15 -184 -21 226 -33 callgsubr
          hstem
          382 107 vstem
          496 -205 27 callgsubr
          -92 10 callsubr
          -149 hlineto
          -394 -710 rlineto
          169 hlineto
          81 159 -4 callsubr
          15 -159 rlineto
          80 hlineto
          -70 -39 -36 -43 -41 -45 callgsubr
          -254 477 rmoveto
          130 251 20 -251 rlineto
          endchar
        </CharString>
        <CharString name="Aring">
          -53 callgsubr
          63 47 69 47 hstem
          326 68 77 67 vstem
          -102 callsubr
          -66 546 -88 callgsubr
          endchar
        </CharString>
        <CharString name="Aringacute">
          15 21 -17 callsubr
          652 -20 hstem
          310 68 77 67 vstem
          596 924 rmoveto
          -144 hlineto
          -66 -105 rlineto
          -46 -12 -30 -32 -48 vvcurveto
          -17 5 -13 9 -10 vhcurveto
          -381 -687 rlineto
          169 hlineto
          81 159 -4 callsubr
          15 -159 rlineto
          168 hlineto
          -89 688 rlineto
          21 17 12 23 31 vvcurveto
          21 -8 17 -15 11 vhcurveto
          -257 -536 rmoveto
          130 251 20 -251 rlineto
          31 506 rmoveto
          19 13 -12 -16 -24 -23 -17 -23 -19 -12 12 17 23 21 17 24 hvcurveto
          endchar
        </CharString>
        <CharString name="Atilde">
          -53 callgsubr
          84 -47 callgsubr
          hintmask 11110100
          -102 callsubr
          94 502 -89 callgsubr
          hintmask 11101000
          -92 callgsubr
          hintmask 11110100
          -54 callgsubr
        </CharString>
        <CharString name="B">
          35 0 139 155 129 147 140 hstemhm
          448 162 -127 127 -127 171 hintmask 11110000
          4 hmoveto
          329 hlineto
          145 132 73 151 71 -34 50 -59 19 hvcurveto
          hintmask 11100100
          86 36 51 84 80 vvcurveto
          75 -41 71 -79 vhcurveto
          -379 hlineto
          43 -571 rmoveto
          32 155 rlineto
          172 hlineto
          hintmask 11110000
          28 18 -26 -34 -55 -42 -40 -43 hvcurveto
          -105 284 rmoveto
          31 147 rlineto
          151 hlineto
          hintmask 11101000
          25 18 -20 -34 -62 -42 -31 -38 hvcurveto
          endchar
        </CharString>
        <CharString name="B.sc">
          -43 0 121 107 113 99 123 hstemhm
          381 143 -118 118 -118 150 hintmask 11110000
          -2 hmoveto
          288 hlineto
          124 114 54 122 58 -31 39 -52 16 hvcurveto
          hintmask 11100100
          72 27 43 66 62 vvcurveto
          61 -36 58 -71 vhcurveto
          -331 hlineto
          49 -442 rmoveto
          23 107 rlineto
          150 hlineto
          hintmask 11110000
          25 16 -19 -25 -38 -33 -25 -37 hvcurveto
          -97 220 rmoveto
          21 99 rlineto
          131 hlineto
          hintmask 11101000
          23 17 -12 -26 -45 -32 -16 -33 hvcurveto
          endchar
        </CharString>
        <CharString name="C">
          42 callgsubr
          hstem
          33 167 vstem
          297 -6 -88 callsubr
          endchar
        </CharString>
        <CharString name="C.sc">
          -56 -5 128 315 128 hstem
          19 147 vstem
          248 -5 rmoveto
          95 119 47 84 53 hvcurveto
          -102 70 rlineto
          -53 -32 -58 -20 -44 hhcurveto
          -73 -40 58 68 85 67 104 111 43 51 -16 -57 12 hvcurveto
          126 78 rlineto
          74 -22 -73 49 -107 hhcurveto
          -206 -149 -173 -155 -124 84 -119 145 hvcurveto
          endchar
        </CharString>
        <CharString name="CR">
          -626 endchar
        </CharString>
        <CharString name="Cacute">
          35 49 callsubr
          167 vstem
          628 916 -95 callsubr
          -216 -778 -88 callsubr
          endchar
        </CharString>
        <CharString name="Ccaron">
          42 callgsubr
          0 58 10 callgsubr
          33 167 hintmask 10111000
          410 772 -92 callsubr
          -31 -885 rmoveto
          38 callsubr
          -71 -27 -55 hhcurveto
          -86 -46 77 90 hvcurveto
          hintmask 11011000
          115 83 146 138 54 62 -22 -75 12 vhcurveto
          145 88 rlineto
          92 -26 -85 63 -127 hhcurveto
          -243 -180 -221 -196 -155 96 -148 168 hvcurveto
          endchar
        </CharString>
        <CharString name="Ccedilla">
          34 36 callgsubr
          -48 223 428 146 hstemhm
          32 167 133 75 hintmask 11011100
          148 -183 rmoveto
          -75 callgsubr
          30 35 105 12 118 57 56 93 rlinecurve
          -118 79 rlineto
          hintmask 10111100
          -71 -41 -71 -27 -55 hhcurveto
          -86 -46 77 90 115 83 146 138 54 62 -22 -75 12 hvcurveto
          145 88 rlineto
          92 -26 -85 63 -127 hhcurveto
          -243 -180 -221 -196 -147 86 -141 152 -14 hvcurveto
          -61 -89 -64 callsubr
          endchar
        </CharString>
        <CharString name="Ccircumflex">
          35 49 callsubr
          167 vstem
          390 772 -103 callgsubr
          -19 -814 -88 callsubr
          endchar
        </CharString>
        <CharString name="Cdotaccent">
          42 callgsubr
          65 137 hstem
          33 167 vstem
          297 -6 -88 callsubr
          248 785 -100 callgsubr
          endchar
        </CharString>
        <CharString name="D">
          67 0 16 callgsubr
          4 hmoveto
          -80 callgsubr
        </CharString>
        <CharString name="D.sc">
          -7 0 125 313 125 hstem
          442 148 vstem
          -2 hmoveto
          225 hlineto
          210 157 141 197 126 -79 99 -168 hvcurveto
          -225 hlineto
          50 -438 rmoveto
          66 313 rlineto
          82 hlineto
          82 44 -49 -73 -103 -75 -88 -118 hvcurveto
          endchar
        </CharString>
        <CharString name="Dcaron">
          67 9 callgsubr
          511 170 hintmask 10111000
          350 772 -92 callsubr
          -264 -879 -35 callsubr
          43 -566 rmoveto
          hintmask 11011000
          90 422 rlineto
          90 hlineto
          87 46 -63 -93 -141 -89 -125 -134 hvcurveto
          endchar
        </CharString>
        <CharString name="Dcroat">
          -71 callgsubr
        </CharString>
        <CharString name="Ddotbelow">
          67 -29 callgsubr
          67 16 callgsubr
          299 -56 callgsubr
          -151 204 rmoveto
          -80 callgsubr
        </CharString>
        <CharString name="Delta">
          44 59 callsubr
          379 710 rmoveto
          -133 hlineto
          -245 -584 rlineto
          -126 622 126 vlineto
          -459 41 callsubr
        </CharString>
        <CharString name="E">
          -76 callsubr
          hstem
          4 hmoveto
          476 -104 callsubr
          endchar
        </CharString>
        <CharString name="E.sc">
          -107 0 125 103 117 93 125 hstem
          -2 hmoveto
          422 62 callgsubr
          -279 hlineto
          22 103 rlineto
          234 hlineto
          24 117 rlineto
          -233 hlineto
          19 93 rlineto
          272 62 callgsubr
          -415 hlineto
          endchar
        </CharString>
        <CharString name="Eacute">
          -76 callsubr
          206 -20 hstem
          546 916 -95 callsubr
          -427 -772 rmoveto
          476 -104 callsubr
          endchar
        </CharString>
        <CharString name="Ebreve">
          -76 callsubr
          59 -17 callgsubr
          275 86 hintmask 11110100
          4 hmoveto
          476 -104 callsubr
          250 129 -41 callsubr
          hintmask 11101100
          -98 callsubr
          hintmask 11110100
          -58 callsubr
        </CharString>
        <CharString name="Ecaron">
          -76 callsubr
          0 62 10 callgsubr
          hintmask 11011000
          336 772 -92 callsubr
          -250 -879 rmoveto
          476 -93 callsubr
          hintmask 11101000
          29 138 rlineto
          303 hlineto
          31 144 rlineto
          -467 hlineto
          endchar
        </CharString>
        <CharString name="Ecircumflex">
          -76 callsubr
          206 -20 hstem
          316 772 -103 callgsubr
          -238 -808 rmoveto
          476 -104 callsubr
          endchar
        </CharString>
        <CharString name="Edblgrave">
          -76 callsubr
          208 -20 hstem
          462 772 -95 callgsubr
          -241 -918 rmoveto
          476 -104 callsubr
          endchar
        </CharString>
        <CharString name="Edieresis">
          -76 callsubr
          70 129 hstem
          365 780 -101 callgsubr
          -434 -780 rmoveto
          476 -104 callsubr
          endchar
        </CharString>
        <CharString name="Edotaccent">
          -76 callsubr
          69 137 hstem
          4 hmoveto
          476 -104 callsubr
          317 69 -100 callgsubr
          endchar
        </CharString>
        <CharString name="Edotbelow">
          -50 -29 callgsubr
          67 144 151 133 138 144 hstem
          4 hmoveto
          476 -104 callsubr
          109 -914 -100 callgsubr
          endchar
        </CharString>
        <CharString name="Egrave">
          -76 callsubr
          207 -20 hstem
          4 hmoveto
          476 -104 callsubr
          210 61 -83 callsubr
        </CharString>
        <CharString name="Einvertedbreve">
          -76 callsubr
          59 -22 callgsubr
          461 84 hintmask 11110100
          260 769 rmoveto
          83 hlineto
          hintmask 11101100
          -75 callsubr
          hintmask 11110100
          -96 callsubr
          -256 -769 rmoveto
          476 -104 callsubr
          endchar
        </CharString>
        <CharString name="Emacron">
          -76 callsubr
          96 97 hstem
          4 hmoveto
          476 -104 callsubr
          397 96 -65 callsubr
          endchar
        </CharString>
        <CharString name="Eng">
          87 46 callgsubr
          85 -21 709 -20 21 -20 hstemhm
          hintmask 11100000
          351 -202 rmoveto
          104 99 79 121 26 hvcurveto
          152 711 -79 callsubr
          -87 -408 rlineto
          hintmask 11010000
          -200 409 rlineto
          -126 hlineto
          -151 -710 rlineto
          -18 callsubr
          85 401 176 -366 -10 -44 rlineto
          -33 -7 -24 -22 -27 hhcurveto
          -19 -17 7 14 -9 hvcurveto
          -90 -109 rlineto
          -33 31 44 -17 50 hhcurveto
          endchar
        </CharString>
        <CharString name="Eogonek">
          -50 -183 -21 204 144 151 133 138 144 hstem
          100 105 vstem
          4 hmoveto
          201 hlineto
          -70 -39 -35 -43 -40 -45 callgsubr
          -60 callgsubr
          26 29 28 58 33 vhcurveto
          188 -104 callsubr
          endchar
        </CharString>
        <CharString name="Eth">
          -71 callgsubr
        </CharString>
        <CharString name="Etilde">
          -76 callsubr
          64 -47 callgsubr
          hintmask 11110100
          4 hmoveto
          476 -104 callsubr
          304 64 -89 callgsubr
          hintmask 11101000
          -92 callgsubr
          hintmask 11110100
          -54 callgsubr
        </CharString>
        <CharString name="Euro">
          139 -6 146 92 86 48 86 116 146 hstem
          106 452 rmoveto
          -53 -86 rlineto
          64 hlineto
          -3 -16 -2 -16 -1 -16 rrcurveto
          -38 hlineto
          -53 -86 rlineto
          96 hlineto
          -129 23 91 -109 144 hhcurveto
          38 callsubr
          -72 -27 -54 hhcurveto
          -61 -40 38 54 -19 hvcurveto
          125 hlineto
          53 86 rlineto
          -190 hlineto
          15 3 17 4 16 vhcurveto
          187 hlineto
          53 86 rlineto
          -207 hlineto
          65 37 62 51 82 hhcurveto
          54 61 -22 -75 13 hvcurveto
          145 88 rlineto
          92 -26 -85 63 -127 hhcurveto
          -180 -145 -120 -142 -63 hvcurveto
          endchar
        </CharString>
        <CharString name="F">
          -74 21 -21 280 133 153 144 hstem
          4 hmoveto
          -18 callsubr
          59 280 rlineto
          243 hlineto
          28 133 rlineto
          -242 hlineto
          32 153 rlineto
          295 -77 callgsubr
          -458 hlineto
          endchar
        </CharString>
        <CharString name="F.sc">
          -132 21 -21 215 117 106 125 hstem
          14 callgsubr
          46 215 rlineto
          218 hlineto
          25 117 rlineto
          -218 hlineto
          22 106 rlineto
          265 hlineto
          26 125 rlineto
          -407 hlineto
          endchar
        </CharString>
        <CharString name="G">
          78 -5 -52 callgsubr
          hstemhm
          33 169 hintmask 01111000
          466 hmoveto
          -69 callsubr
          hintmask 10111000
          -96 callgsubr
          endchar
        </CharString>
        <CharString name="G.alt">
          62 -5 146 101 144 183 146 hstem
          34 166 vstem
          302 -5 rmoveto
          179 148 143 171 38 hvcurveto
          17 77 rlineto
          -299 hlineto
          -31 -144 rlineto
          122 hlineto
          -52 -29 -64 -49 -66 hhcurveto
          -84 -33 79 78 125 84 146 125 86 24 -76 -27 5 hvcurveto
          152 102 rlineto
          93 -31 -80 54 -115 hhcurveto
          -237 -179 -216 -205 -159 98 -140 170 hvcurveto
          endchar
        </CharString>
        <CharString name="G.sc">
          -27 -4 128 -103 -21 194 103 142 128 hstemhm
          20 147 hintmask 01111000
          378 hmoveto
          119 hlineto
          63 297 rlineto
          -233 hlineto
          -21 -103 rlineto
          113 hlineto
          -1 -6 rlineto
          hintmask 10111000
          -41 -47 -48 -23 -46 hhcurveto
          -68 -42 50 72 105 79 88 93 50 43 -29 -47 13 hvcurveto
          124 81 rlineto
          75 -22 -73 48 -103 hhcurveto
          -183 -168 -151 -180 -130 89 -110 129 52 48 16 37 50 hvcurveto
          endchar
        </CharString>
        <CharString name="Gacute">
          78 -5 -52 callgsubr
          201 -20 hstemhm
          33 169 hintmask 01111100
          621 916 -95 callsubr
          -40 -772 rmoveto
          -69 callsubr
          hintmask 10111100
          -96 callgsubr
          endchar
        </CharString>
        <CharString name="Gbreve">
          78 -5 -52 callgsubr
          54 -17 callgsubr
          33 169 145 86 hintmask 01111011
          466 hmoveto
          -69 callsubr
          hintmask 10111011
          -96 callgsubr
          hintmask 01111011
          -4 769 -41 callsubr
          hintmask 10110111
          -98 callsubr
          hintmask 10111011
          -58 callsubr
        </CharString>
        <CharString name="Gcircumflex">
          78 -5 -52 callgsubr
          201 -20 hstemhm
          33 169 hintmask 01111100
          389 772 -103 callgsubr
          151 -808 rmoveto
          -69 callsubr
          hintmask 10111100
          -96 callgsubr
          endchar
        </CharString>
        <CharString name="Gcommaaccent">
          78 -3 callgsubr
          42 -52 callgsubr
          hstemhm
          33 169 hintmask 10111100
          279 -90 callgsubr
          257 213 rmoveto
          -69 callsubr
          hintmask 11011100
          -96 callgsubr
          endchar
        </CharString>
        <CharString name="Gdotaccent">
          78 -5 -52 callgsubr
          64 137 hstemhm
          33 169 hintmask 01111100
          466 hmoveto
          -69 callsubr
          hintmask 10111100
          -96 callgsubr
          hintmask 01111100
          63 709 -100 callgsubr
          endchar
        </CharString>
        <CharString name="H">
          95 21 -21 291 144 275 -20 hstem
          4 hmoveto
          -62 callgsubr
          endchar
        </CharString>
        <CharString name="H.sc">
          17 21 -21 225 126 212 -20 hstem
          14 callgsubr
          48 225 rlineto
          232 hlineto
          -48 -225 rlineto
          144 hlineto
          120 563 -77 callsubr
          -45 -212 rlineto
          -233 hlineto
          46 212 rlineto
          -143 hlineto
          endchar
        </CharString>
        <CharString name="Hbar">
          101 21 -21 291 144 106 76 -76 169 hstemhm
          hintmask 11100000
          75 541 rmoveto
          48 hlineto
          -115 -541 rlineto
          -18 callsubr
          62 291 rlineto
          257 hlineto
          -62 -291 rlineto
          -18 callsubr
          115 541 rlineto
          47 hlineto
          16 76 rlineto
          -47 hlineto
          hintmask 11010000
          20 93 -79 callsubr
          hintmask 11100000
          -20 -93 rlineto
          -257 hlineto
          hintmask 11010000
          20 93 -79 callsubr
          hintmask 11100000
          -20 -93 rlineto
          -47 hlineto
          172 -182 rmoveto
          22 106 rlineto
          257 hlineto
          -22 -106 rlineto
          endchar
        </CharString>
        <CharString name="Hcircumflex">
          95 21 -21 291 144 275 -20 226 -20 hstem
          380 772 -103 callgsubr
          -302 -808 rmoveto
          -62 callgsubr
          endchar
        </CharString>
        <CharString name="Hdotbelow">
          95 53 callgsubr
          291 144 275 -20 hstem
          4 hmoveto
          -62 callgsubr
          168 -914 -100 callgsubr
          endchar
        </CharString>
        <CharString name="I">
          -326 21 -21 710 -49 callsubr
          endchar
        </CharString>
        <CharString name="I.sc">
          -359 -10 callgsubr
          120 563 rlineto
          -143 hlineto
          endchar
        </CharString>
        <CharString name="IJ">
          157 -11 146 -114 -37 callsubr
          hstemhm
          hintmask 01100000
          4 hmoveto
          -81 callgsubr
          hintmask 10100000
          237 -721 -80 callsubr
          endchar
        </CharString>
        <CharString name="Iacute">
          -326 21 -21 710 -20 226 -49 callsubr
          232 206 -52 callsubr
        </CharString>
        <CharString name="Ibreve">
          -30 callsubr
          79 -17 callgsubr
          131 86 hintmask 11101000
          4 hmoveto
          -81 callgsubr
          106 129 -41 callsubr
          hintmask 11011000
          -98 callsubr
          hintmask 11101000
          -58 callsubr
        </CharString>
        <CharString name="Icircumflex">
          -326 21 -21 710 -20 226 -49 callsubr
          17 62 -70 callgsubr
        </CharString>
        <CharString name="Idblgrave">
          -30 callsubr
          228 -49 callsubr
          158 62 -38 callgsubr
        </CharString>
        <CharString name="Idieresis">
          -30 callsubr
          90 129 hstem
          4 hmoveto
          -81 callgsubr
          61 70 -72 callgsubr
        </CharString>
        <CharString name="Idotaccent">
          -30 callsubr
          89 137 hstem
          4 hmoveto
          -81 callgsubr
          170 69 -100 callgsubr
          endchar
        </CharString>
        <CharString name="Idotbelow">
          -326 53 callgsubr
          710 -49 callsubr
          -38 -914 -100 callgsubr
          endchar
        </CharString>
        <CharString name="Igrave">
          -30 callsubr
          227 -49 callsubr
          58 61 -83 callsubr
        </CharString>
        <CharString name="Iinvertedbreve">
          -30 callsubr
          79 -22 callgsubr
          310 84 hintmask 11101000
          4 hmoveto
          -81 callgsubr
          -46 59 rmoveto
          83 hlineto
          hintmask 11011000
          -75 callsubr
          hintmask 11101000
          -39 callsubr
        </CharString>
        <CharString name="Imacron">
          -30 callsubr
          116 97 hstem
          4 hmoveto
          -81 callgsubr
          248 96 -65 callsubr
          endchar
        </CharString>
        <CharString name="Iogonek">
          -326 -184 -21 226 -37 callsubr
          hstem
          -26 105 vstem
          4 hmoveto
          76 -6 callsubr
          151 710 -79 callsubr
          endchar
        </CharString>
        <CharString name="Itilde">
          -30 callsubr
          84 -47 callgsubr
          hintmask 11101000
          4 hmoveto
          -81 callgsubr
          164 64 -89 callgsubr
          hintmask 11010000
          -92 callgsubr
          hintmask 11101000
          -54 callgsubr
        </CharString>
        <CharString name="J">
          -143 -11 146 575 -20 hstem
          92 -11 -80 callsubr
          endchar
        </CharString>
        <CharString name="J.sc">
          -192 -9 128 444 -20 hstem
          78 -9 rmoveto
          210 49 114 172 37 hvcurveto
          61 286 -77 callsubr
          -61 -286 rlineto
          -112 -24 -19 -46 -82 hhcurveto
          -48 -36 14 10 -10 hvcurveto
          -56 -117 rlineto
          -23 31 41 -12 51 hhcurveto
          endchar
        </CharString>
        <CharString name="Jcircumflex">
          -143 -11 146 575 -20 226 -20 hstem
          360 772 -103 callgsubr
          -194 -819 -80 callsubr
          endchar
        </CharString>
        <CharString name="K">
          27 23 callsubr
          4 hmoveto
          -29 callsubr
        </CharString>
        <CharString name="K.sc">
          -39 -10 callgsubr
          36 168 79 63 123 -231 rlineto
          151 hlineto
          -172 312 277 251 rlineto
          -149 hlineto
          -277 -241 52 241 rlineto
          -143 hlineto
          endchar
        </CharString>
        <CharString name="Kcommaaccent">
          27 23 callgsubr
          710 -20 hstem
          272 -90 callgsubr
          -198 213 rmoveto
          -29 callsubr
        </CharString>
        <CharString name="L">
          -63 59 callsubr
          4 hmoveto
          -65 callgsubr
          endchar
        </CharString>
        <CharString name="L.sc">
          -163 0 125 438 -20 hstem
          -2 hmoveto
          393 62 callgsubr
          -250 hlineto
          93 438 rlineto
          -143 hlineto
          endchar
        </CharString>
        <CharString name="Lacute">
          -63 52 callsubr
          226 -20 hstem
          395 916 -95 callsubr
          -276 -772 rmoveto
          -65 callgsubr
          endchar
        </CharString>
        <CharString name="Lcaron">
          -63 0 144 586 -20 hstem
          453 -49 callgsubr
          -353 -600 rmoveto
          -65 callgsubr
          endchar
        </CharString>
        <CharString name="Lcommaaccent">
          -63 -3 callgsubr
          47 144 566 -20 hstem
          226 -90 callgsubr
          -152 213 rmoveto
          -65 callgsubr
          endchar
        </CharString>
        <CharString name="Ldot">
          -63 0 144 194 166 206 -20 hstem
          4 hmoveto
          -65 callgsubr
          317 -372 -19 callgsubr
        </CharString>
        <CharString name="Lslash">
          -55 59 callsubr
          19 246 rmoveto
          52 27 -58 -273 rlineto
          -42 callsubr
          48 225 135 71 -19 86 -93 -49 50 233 -79 callsubr
          -70 -329 -94 -49 rlineto
          endchar
        </CharString>
        <CharString name="M">
          199 23 callsubr
          4 hmoveto
          -18 callsubr
          91 425 70 -309 rlineto
          88 hlineto
          203 309 -91 -425 rlineto
          165 hlineto
          151 710 -33 callsubr
          -246 -371 -88 371 -33 callsubr
          endchar
        </CharString>
        <CharString name="M.sc">
          110 -10 callgsubr
          67 314 77 -224 rlineto
          77 hlineto
          172 224 -67 -314 rlineto
          143 hlineto
          120 563 rlineto
          -155 hlineto
          -210 -278 -91 278 rlineto
          -156 hlineto
          endchar
        </CharString>
        <CharString name="N">
          103 23 callsubr
          4 hmoveto
          -89 callsubr
          endchar
        </CharString>
        <CharString name="N.sc">
          26 -10 callgsubr
          63 297 207 -297 rlineto
          115 hlineto
          119 563 rlineto
          -143 hlineto
          -65 -306 -207 306 rlineto
          -112 hlineto
          endchar
        </CharString>
        <CharString name="NULL">
          -626 endchar
        </CharString>
        <CharString name="Nacute">
          103 12 callsubr
          608 916 -95 callsubr
          -489 -772 rmoveto
          -89 callsubr
          endchar
        </CharString>
        <CharString name="Ncaron">
          103 12 callsubr
          392 772 -92 callsubr
          -306 -879 rmoveto
          -89 callsubr
          endchar
        </CharString>
        <CharString name="Ncommaaccent">
          103 23 callgsubr
          710 -20 hstem
          283 -90 callgsubr
          -209 213 rmoveto
          -89 callsubr
          endchar
        </CharString>
        <CharString name="Ndotaccent">
          103 -66 callsubr
          89 137 hstem
          531 779 -100 callgsubr
          -383 -779 rmoveto
          -89 callsubr
          endchar
        </CharString>
        <CharString name="Ntilde">
          103 -66 callsubr
          84 -47 callgsubr
          hintmask 11101000
          4 hmoveto
          -89 callsubr
          373 64 -89 callgsubr
          hintmask 11010000
          -92 callgsubr
          hintmask 11101000
          -54 callgsubr
        </CharString>
        <CharString name="O">
          107 -63 callsubr
          -44 callgsubr
          -78 callgsubr
          endchar
        </CharString>
        <CharString name="O.sc">
          5 -5 128 315 128 hstem
          19 148 290 147 vstem
          250 -5 rmoveto
          189 165 165 167 123 -81 116 -149 -188 -167 -162 -170 -124 84 -115 147 hvcurveto
          29 128 rmoveto
          -77 -35 59 66 88 68 102 110 75 37 -57 -66 -87 -68 -105 -110 hvcurveto
          endchar
        </CharString>
        <CharString name="OE">
          380 0 144 -128 -21 295 143 136 141 5 -20 hstemhm
          33 167 hintmask 01110100
          286 -5 rmoveto
          64 64 33 47 53 hvcurveto
          hintmask 10110100
          -16 -75 rlineto
          459 hlineto
          31 144 rlineto
          -296 hlineto
          32 146 rlineto
          235 hlineto
          31 143 rlineto
          -236 hlineto
          29 133 rlineto
          286 hlineto
          31 144 rlineto
          -451 hlineto
          -15 -74 rlineto
          hintmask 01101100
          46 -33 -48 33 -63 hhcurveto
          -215 -195 -210 -217 -153 90 -140 163 hvcurveto
          32 146 rmoveto
          -80 -38 74 85 hvcurveto
          hintmask 10110100
          120 83 149 126 80 38 -74 -85 -119 -81 -150 -128 vhcurveto
          endchar
        </CharString>
        <CharString name="Oacute">
          107 49 callsubr
          168 354 168 vstem
          620 916 -95 callsubr
          -204 -778 rmoveto
          -106 callsubr
          endchar
        </CharString>
        <CharString name="Obreve">
          107 -63 callsubr
          55 -17 callgsubr
          33 168 150 86 118 168 hintmask 11101110
          -78 callgsubr
          148 699 -41 callsubr
          hintmask 11011110
          -98 callsubr
          hintmask 11101110
          -58 callsubr
        </CharString>
        <CharString name="Ocircumflex">
          107 49 callsubr
          168 354 168 vstem
          390 772 -103 callgsubr
          -15 -814 rmoveto
          -106 callsubr
          endchar
        </CharString>
        <CharString name="Odblgrave">
          107 -63 callsubr
          204 0 callsubr
          553 772 -95 callgsubr
          -35 -924 rmoveto
          -106 callsubr
          endchar
        </CharString>
        <CharString name="Odieresis">
          107 -63 callsubr
          66 129 -44 callgsubr
          433 780 -101 callgsubr
          -205 -786 rmoveto
          -106 callsubr
          endchar
        </CharString>
        <CharString name="Odotbelow">
          107 -29 callgsubr
          61 146 428 146 -44 callgsubr
          334 -56 callgsubr
          111 198 rmoveto
          -106 callsubr
          endchar
        </CharString>
        <CharString name="Ograve">
          107 -63 callsubr
          203 0 callsubr
          -78 callgsubr
          100 631 -83 callsubr
        </CharString>
        <CharString name="Ohungarumlaut">
          107 -63 callsubr
          185 0 callsubr
          504 899 -68 callgsubr
          -267 -763 rmoveto
          -106 callsubr
          endchar
        </CharString>
        <CharString name="Oinvertedbreve">
          107 -63 callsubr
          55 -22 callgsubr
          33 168 332 84 -62 168 hintmask 11101100
          332 769 rmoveto
          83 hlineto
          hintmask 11011100
          -75 callsubr
          hintmask 11101100
          -96 callsubr
          -31 -775 rmoveto
          hintmask 11101010
          -106 callsubr
          endchar
        </CharString>
        <CharString name="Omacron">
          107 -63 callsubr
          92 97 -44 callgsubr
          620 806 -65 callsubr
          -29 -812 rmoveto
          -106 callsubr
          endchar
        </CharString>
        <CharString name="Omega">
          197 0 115 454 30 callsubr
          115 hlineto
          -90 35 -56 113 27 callsubr
          -113 -89 -35 vhcurveto
          -115 317 115 -158 vlineto
          91 52 -2 callsubr
          -52 vhcurveto
          -158 hlineto
          endchar
        </CharString>
        <CharString name="Oogonek">
          107 -183 -21 772 146 hstemhm
          33 168 -36 105 285 168 hintmask 11011000
          277 21 callgsubr
          201 29 169 194 196 vvcurveto
          153 -94 144 -172 vhcurveto
          hintmask 11101000
          -224 -200 -208 -215 -144 81 -132 149 -18 hvcurveto
          hintmask 11011000
          -65 -38 -33 -42 3 callgsubr
          56 344 rmoveto
          hintmask 11101000
          -91 -41 77 87 120 85 144 137 91 41 -75 -87 -119 -84 -147 -138 hvcurveto
          endchar
        </CharString>
        <CharString name="Oslash">
          107 -6 146 -119 -21 568 146 -4 -20 hstemhm
          -51 callsubr
          hintmask 10011100
          607 710 rmoveto
          -24 -27 rlineto
          hintmask 01101100
          19 -36 -42 12 -48 hhcurveto
          -224 -200 -208 -215 -63 15 -61 30 -50 hvcurveto
          -104 -117 rlineto
          176 hlineto
          23 25 rlineto
          hintmask 10011100
          -20 36 43 -11 49 hhcurveto
          223 199 210 213 62 -16 61 -30 51 hvcurveto
          106 119 rlineto
          -450 -570 rmoveto
          -19 -17 3 6 -14 hvcurveto
          268 -8 callgsubr
          2 -14 2 -15 -15 vvcurveto
          -119 -84 -147 -138 vhcurveto
          -132 164 rmoveto
          hintmask 10101100
          120 85 144 137 18 17 -4 -5 14 vhcurveto
          -267 -300 rlineto
          -3 15 -1 15 15 vvcurveto
          endchar
        </CharString>
        <CharString name="Oslashacute">
          107 -6 146 -119 -21 568 146 -4 -20 226 -20 hstemhm
          -51 callsubr
          hintmask 10011110
          605 710 rmoveto
          -24 -27 rlineto
          hintmask 01101110
          19 -35 -42 12 -47 hhcurveto
          -224 -200 -208 -215 -63 15 -60 30 -49 hvcurveto
          -106 -119 rlineto
          176 hlineto
          23 26 rlineto
          hintmask 10011110
          -20 37 43 -12 50 hhcurveto
          223 199 210 213 63 -16 62 -31 50 hvcurveto
          105 118 rlineto
          -448 -570 rmoveto
          -20 -17 3 7 -15 hvcurveto
          270 302 rlineto
          3 -15 1 -15 -16 vvcurveto
          -119 -84 -147 -138 vhcurveto
          -132 164 rmoveto
          hintmask 10101110
          120 85 144 137 18 16 -3 -6 14 vhcurveto
          -267 -298 rlineto
          -2 14 -1 14 15 vvcurveto
          422 612 -52 callsubr
        </CharString>
        <CharString name="Otilde">
          107 -63 callsubr
          60 -47 callgsubr
          -51 callsubr
          hintmask 11101110
          -78 callgsubr
          202 634 -89 callgsubr
          hintmask 11010110
          -92 callgsubr
          hintmask 11101110
          -54 callgsubr
        </CharString>
        <CharString name="P">
          -24 -15 callgsubr
          hstem
          452 168 vstem
          4 hmoveto
          -18 callsubr
          48 229 63 callgsubr
          149 125 145 136 102 -66 98 -110 hvcurveto
          -289 hlineto
          92 -338 rmoveto
          70 callsubr
          114 hlineto
          26 24 -22 -48 -76 -45 -48 -41 hvcurveto
          endchar
        </CharString>
        <CharString name="P.sc">
          -87 56 callsubr
          387 147 vstem
          14 callgsubr
          38 176 rlineto
          117 hlineto
          131 107 115 109 83 -60 80 -100 hvcurveto
          -256 hlineto
          87 -261 rmoveto
          29 136 rlineto
          105 hlineto
          25 23 -15 -37 -57 -37 -27 -36 hvcurveto
          endchar
        </CharString>
        <CharString name="Q">
          106 -5 146 -120 -21 569 146 hstemhm
          32 168 355 167 hintmask 01111000
          497 hmoveto
          155 hlineto
          -74 110 rlineto
          87 80 57 113 114 vvcurveto
          153 -93 145 -173 -223 -201 -209 -215 vhcurveto
          hintmask 10111000
          -155 96 -141 172 60 59 15 26 53 vhcurveto
          hintmask 01111000
          hintmask 10111000
          -139 105 rmoveto
          -91 -42 77 86 120 86 145 137 90 42 -76 -87 -59 -21 -66 -37 -51 hvcurveto
          -33 50 rlineto
          -153 hlineto
          85 -128 rlineto
          -7 -20 -21 -4 -22 hhcurveto
          endchar
        </CharString>
        <CharString name="Q.sc">
          7 -4 128 -128 235 -210 -21 439 128 hstemhm
          18 148 290 147 hintmask 00111100
          426 hmoveto
          135 hlineto
          -69 94 rlineto
          68 62 43 85 86 vvcurveto
          123 -81 117 -149 -187 -168 -164 -169 vhcurveto
          hintmask 10011100
          -124 84 -114 147 54 52 13 23 47 vhcurveto
          hintmask 00111100
          hintmask 10011100
          -123 92 rmoveto
          -77 -36 58 66 88 69 103 110 75 36 -58 -66 -40 -14 -43 -26 -35 hvcurveto
          hintmask 01011100
          -24 34 rlineto
          -135 hlineto
          72 -99 rlineto
          hintmask 10011100
          -5 -15 -17 -3 -18 hhcurveto
          endchar
        </CharString>
        <CharString name="R">
          21 21 -5 callgsubr
          168 hmoveto
          -91 callsubr
          endchar
        </CharString>
        <CharString name="R.sc">
          -40 56 callsubr
          401 148 vstem
          14 callgsubr
          38 176 rlineto
          85 hlineto
          81 -176 rlineto
          -18 callsubr
          -94 208 rlineto
          79 40 55 74 78 vvcurveto
          83 -60 80 -101 vhcurveto
          -270 hlineto
          87 -261 rmoveto
          29 136 rlineto
          119 hlineto
          26 22 -21 -33 -48 -37 -34 -35 hvcurveto
          endchar
        </CharString>
        <CharString name="Racute">
          -10 callsubr
          208 -20 hstem
          467 169 vstem
          566 918 -95 callsubr
          -283 -774 rmoveto
          -91 callsubr
          endchar
        </CharString>
        <CharString name="Rcaron">
          -10 callsubr
          0 64 10 callgsubr
          467 169 hintmask 11011100
          351 774 -92 callsubr
          -101 -881 rmoveto
          48 229 rlineto
          93 hlineto
          78 -229 rlineto
          185 hlineto
          -91 264 rlineto
          91 48 64 100 98 vvcurveto
          102 -65 98 -111 vhcurveto
          -305 hlineto
          -151 -710 rlineto
          243 372 rmoveto
          hintmask 11101100
          21 callsubr
        </CharString>
        <CharString name="Rcommaaccent">
          21 -213 166 68 -5 callgsubr
          238 -90 callgsubr
          213 vmoveto
          -91 callsubr
          endchar
        </CharString>
        <CharString name="Rdblgrave">
          -10 callsubr
          208 -20 hstem
          467 169 vstem
          468 772 -95 callgsubr
          -83 -918 rmoveto
          -91 callsubr
          endchar
        </CharString>
        <CharString name="Rdotbelow">
          21 -204 137 88 -5 callgsubr
          168 hmoveto
          -91 callsubr
          -90 -576 -100 callgsubr
          endchar
        </CharString>
        <CharString name="Rinvertedbreve">
          -10 callsubr
          59 -22 callgsubr
          467 93 -93 169 hintmask 11110100
          275 769 rmoveto
          83 hlineto
          hintmask 11101100
          -75 callsubr
          hintmask 11110100
          -96 callsubr
          -107 -769 rmoveto
          48 229 rlineto
          93 hlineto
          78 -229 rlineto
          185 hlineto
          -91 264 rlineto
          hintmask 11110010
          91 48 64 100 98 vvcurveto
          102 -65 98 -111 vhcurveto
          -305 hlineto
          -151 -710 rlineto
          243 372 rmoveto
          21 callsubr
        </CharString>
        <CharString name="S">
          -32 -8 -1 callsubr
          244 -8 -99 callgsubr
          endchar
        </CharString>
        <CharString name="S.sc">
          -107 -7 129 318 128 hstem
          59 157 87 162 vstem
          205 -7 rmoveto
          125 135 55 154 80 -58 34 -88 25 hvcurveto
          -64 18 -39 11 28 vvcurveto
          27 25 15 45 68 64 -39 -14 10 vhcurveto
          87 119 rlineto
          29 -45 -70 33 -82 hhcurveto
          -132 -127 -79 -136 -65 41 -37 83 -27 hvcurveto
          66 -21 54 -10 -31 vvcurveto
          -24 -21 -16 -47 -89 -75 44 20 -11 vhcurveto
          -90 -125 rlineto
          -41 60 90 -27 85 hhcurveto
          endchar
        </CharString>
        <CharString name="Sacute">
          18 callgsubr
          557 930 -95 callsubr
          -198 -794 -99 callgsubr
          endchar
        </CharString>
        <CharString name="Scaron">
          42 callsubr
          0 70 10 callgsubr
          82 180 104 185 hintmask 10111100
          345 786 -92 callsubr
          -19 -901 rmoveto
          148 159 71 189 36 callsubr
          hvcurveto
          4 callgsubr
          hintmask 11011100
          44 33 26 56 81 80 -57 -11 4 vhcurveto
          100 136 rlineto
          37 -52 -81 41 -96 hhcurveto
          -155 -150 -100 -172 -78 48 -43 95 -34 hvcurveto
          77 -27 64 -14 -45 vvcurveto
          -37 -25 -26 -63 -104 -93 69 14 -6 vhcurveto
          -102 -143 rlineto
          -55 69 103 -33 99 hhcurveto
          endchar
        </CharString>
        <CharString name="Schwa">
          98 -5 144 143 123 164 145 hstem
          19 170 350 176 vstem
          292 -5 rmoveto
          247 176 228 201 146 -90 144 -179 -146 -126 -75 -113 -75 hvcurveto
          159 -52 rlineto
          58 28 68 37 60 hhcurveto
          70 55 -47 -88 -9 -1 -10 -1 -10 hvcurveto
          -493 hlineto
          -11 -25 -14 -41 -56 vvcurveto
          -141 89 -147 184 vhcurveto
          33 144 rmoveto
          -81 -55 45 67 10 1 10 3 11 hvcurveto
          315 hlineto
          -87 -29 -72 -56 -82 hhcurveto
          endchar
        </CharString>
        <CharString name="Scircumflex">
          18 callgsubr
          330 786 -103 callgsubr
          -12 -830 -99 callgsubr
          endchar
        </CharString>
        <CharString name="Sdotbelow">
          -32 -29 callgsubr
          59 -1 callsubr
          244 -8 -99 callgsubr
          29 -196 -100 callgsubr
          endchar
        </CharString>
        <CharString name="T">
          -30 21 -21 566 144 hstem
          152 hmoveto
          -18 callsubr
          -67 callgsubr
        </CharString>
        <CharString name="T.sc">
          -90 21 -21 438 125 hstem
          132 hmoveto
          144 hlineto
          94 438 rlineto
          179 62 callgsubr
          -506 hlineto
          -26 -125 rlineto
          182 hlineto
          endchar
        </CharString>
        <CharString name="Tbar">
          -7 21 -21 292 76 198 144 hstem
          59 292 rmoveto
          166 hlineto
          -62 -292 rlineto
          165 hlineto
          61 292 rlineto
          166 hlineto
          16 76 rlineto
          -166 hlineto
          42 198 -4 callsubr
          31 144 rlineto
          -569 -9 callgsubr
          202 hlineto
          -42 -198 rlineto
          -165 hlineto
          endchar
        </CharString>
        <CharString name="Tcaron">
          -30 21 -21 566 144 0 62 10 callgsubr
          hintmask 10110000
          334 772 -92 callsubr
          -100 -879 rmoveto
          -18 callsubr
          hintmask 11010000
          -67 callgsubr
        </CharString>
        <CharString name="Tdotbelow">
          -30 53 callgsubr
          566 144 hstem
          263 -56 callgsubr
          33 204 rmoveto
          -18 callsubr
          -67 callgsubr
        </CharString>
        <CharString name="Thorn">
          -42 21 -21 106 144 193 143 124 -20 hstem
          413 166 vstem
          4 hmoveto
          -18 callsubr
          22 106 rlineto
          115 hlineto
          149 125 144 137 102 -66 97 -111 hvcurveto
          -109 hlineto
          26 124 -79 callsubr
          66 -460 rmoveto
          41 193 rlineto
          101 hlineto
          28 22 -29 -44 -64 -45 -56 -41 hvcurveto
          endchar
        </CharString>
        <CharString name="U">
          91 -23 callsubr
          hstem
          55 167 vstem
          293 -99 callsubr
          endchar
        </CharString>
        <CharString name="U.sc">
          3 -5 128 440 -20 hstem
          38 147 vstem
          250 -5 rmoveto
          180 108 123 156 33 hvcurveto
          61 289 -77 callsubr
          -61 -289 rlineto
          -77 -16 -45 -74 -90 hhcurveto
          -66 -25 43 56 17 2 17 4 18 hvcurveto
          61 289 rlineto
          -143 hlineto
          -62 -289 rlineto
          -6 -28 -3 -27 -26 vvcurveto
          -112 59 -86 153 vhcurveto
          endchar
        </CharString>
        <CharString name="Uacute">
          -30 callgsubr
          226 -20 13 callsubr
          605 916 -95 callsubr
          -198 -778 -106 callgsubr
          endchar
        </CharString>
        <CharString name="Ubreve">
          -30 callgsubr
          79 -17 callgsubr
          54 167 105 86 hintmask 11101100
          -100 callsubr
          164 845 -41 callsubr
          hintmask 11011100
          -98 callsubr
          hintmask 11101100
          -58 callsubr
        </CharString>
        <CharString name="Ucircumflex">
          -30 callgsubr
          226 -20 13 callsubr
          375 772 -103 callgsubr
          -9 -814 -106 callgsubr
          endchar
        </CharString>
        <CharString name="Udblgrave">
          -30 callgsubr
          228 -20 13 callsubr
          520 772 -95 callgsubr
          -11 -924 -106 callgsubr
          endchar
        </CharString>
        <CharString name="Udieresis">
          -30 callgsubr
          90 129 13 callsubr
          419 780 -101 callgsubr
          -200 -786 -106 callgsubr
          endchar
        </CharString>
        <CharString name="Udotbelow">
          90 -29 callgsubr
          61 -9 callsubr
          13 callsubr
          -100 callsubr
          28 -198 -100 callgsubr
          endchar
        </CharString>
        <CharString name="Ugrave">
          -30 callgsubr
          227 -20 13 callsubr
          -100 callsubr
          128 777 -83 callsubr
        </CharString>
        <CharString name="Uhungarumlaut">
          -30 callgsubr
          227 -20 13 callsubr
          -100 callsubr
          194 923 -68 callgsubr
          endchar
        </CharString>
        <CharString name="Uinvertedbreve">
          -30 callgsubr
          79 -22 callgsubr
          54 167 300 84 hintmask 11101100
          320 769 rmoveto
          83 hlineto
          hintmask 11011100
          -75 callsubr
          hintmask 11101100
          -96 callsubr
          -28 -775 -106 callgsubr
          endchar
        </CharString>
        <CharString name="Umacron">
          -30 callgsubr
          116 97 13 callsubr
          -100 callsubr
          314 812 -65 callsubr
          endchar
        </CharString>
        <CharString name="Uogonek">
          90 -183 -21 914 -20 hstemhm
          54 167 -62 105 hintmask 11010000
          271 21 callgsubr
          175 25 108 146 38 178 77 363 rcurveline
          -164 hlineto
          -77 -363 rlineto
          -105 -23 -56 -102 -102 hhcurveto
          hintmask 11100000
          -74 -28 54 72 25 3 27 6 29 hvcurveto
          78 -47 callsubr
          -78 -363 rlineto
          -8 -38 -4 -38 -35 vvcurveto
          -127 56 -100 146 -13 vhcurveto
          hintmask 11010000
          50 callsubr
          endchar
        </CharString>
        <CharString name="Uring">
          -30 callgsubr
          63 47 69 47 hstem
          54 167 141 68 77 67 vstem
          362 818 -88 callgsubr
          -183 -875 -106 callgsubr
          endchar
        </CharString>
        <CharString name="Utilde">
          -30 callgsubr
          84 -47 callgsubr
          54 167 hintmask 11101100
          -100 callsubr
          227 780 -89 callgsubr
          hintmask 11010100
          -92 callgsubr
          hintmask 11101100
          -54 callgsubr
        </CharString>
        <CharString name="V">
          18 23 callsubr
          187 hmoveto
          137 hlineto
          404 10 callsubr
          -172 hlineto
          -257 -504 -44 504 rlineto
          -173 hlineto
          endchar
        </CharString>
        <CharString name="V.sc">
          -50 21 -21 563 -20 hstem
          162 hmoveto
          119 hlineto
          347 563 rlineto
          -152 hlineto
          -211 -360 -61 360 rlineto
          -152 hlineto
          endchar
        </CharString>
        <CharString name="W">
          376 21 -21 709 -20 21 -20 hstemhm
          hintmask 10100000
          193 hmoveto
          137 hlineto
          162 278 46 -278 rlineto
          136 hlineto
          420 10 callsubr
          -180 hlineto
          -273 -522 -23 191 rlineto
          hintmask 11000000
          183 330 rlineto
          -151 hlineto
          -114 -227 -18 227 rlineto
          -150 hlineto
          40 -330 -102 -191 rlineto
          hintmask 10100000
          -52 522 -33 callsubr
          endchar
        </CharString>
        <CharString name="W.alt">
          452 21 -21 22 -21 709 -20 21 -20 hstemhm
          hintmask 10010000
          147 hmoveto
          170 hlineto
          248 442 rlineto
          hintmask 01010000
          62 -441 rlineto
          170 hlineto
          361 10 callsubr
          -187 hlineto
          -223 -463 rlineto
          hintmask 10100000
          -37 462 -33 callsubr
          -233 -463 -26 463 rlineto
          -186 hlineto
          endchar
        </CharString>
        <CharString name="W.sc">
          274 21 -21 562 -20 21 -20 hstemhm
          hintmask 10100000
          170 hmoveto
          120 hlineto
          137 210 50 -210 rlineto
          119 hlineto
          360 563 rlineto
          -158 hlineto
          -236 -390 -24 124 rlineto
          hintmask 11000000
          157 265 rlineto
          -133 hlineto
          -97 -176 -22 176 rlineto
          -132 hlineto
          42 -265 -75 -124 rlineto
          hintmask 10100000
          -72 390 rlineto
          -155 hlineto
          endchar
        </CharString>
        <CharString name="Wacute">
          376 12 callsubr
          744 916 -95 callsubr
          -436 -772 rmoveto
          -87 callgsubr
          endchar
        </CharString>
        <CharString name="Wcircumflex">
          376 12 callsubr
          516 772 -103 callgsubr
          -249 -808 rmoveto
          -87 callgsubr
          endchar
        </CharString>
        <CharString name="Wdieresis">
          376 -66 callsubr
          90 129 hstem
          560 780 -101 callgsubr
          -440 -780 rmoveto
          -87 callgsubr
          endchar
        </CharString>
        <CharString name="Wgrave">
          376 -66 callsubr
          227 -20 hstem
          193 hmoveto
          -87 callgsubr
          483 61 -83 callsubr
        </CharString>
        <CharString name="X">
          -1 23 callsubr
          -62 hmoveto
          178 hlineto
          182 235 83 -235 rlineto
          177 hlineto
          -149 350 308 360 rlineto
          -177 hlineto
          -192 -245 -89 245 -33 callsubr
          155 -360 rlineto
          endchar
        </CharString>
        <CharString name="X.sc">
          -61 21 -21 563 -20 hstem
          -58 hmoveto
          157 hlineto
          157 177 82 -177 rlineto
          156 hlineto
          -141 278 267 285 rlineto
          -156 hlineto
          -165 -185 -88 185 rlineto
          -156 hlineto
          146 -285 rlineto
          endchar
        </CharString>
        <CharString name="Y">
          -3 23 callsubr
          -85 callgsubr
          endchar
        </CharString>
        <CharString name="Y.sc">
          -70 21 -21 563 -20 hstem
          138 hmoveto
          143 hlineto
          41 189 291 374 rlineto
          -157 hlineto
          -179 -250 -73 250 rlineto
          -155 hlineto
          130 -373 rlineto
          endchar
        </CharString>
        <CharString name="Yacute">
          -3 12 callsubr
          -85 callgsubr
          336 672 -52 callsubr
        </CharString>
        <CharString name="Ycircumflex">
          -3 12 callsubr
          -85 callgsubr
          110 528 -70 callgsubr
        </CharString>
        <CharString name="Ydieresis">
          -3 -66 callsubr
          90 129 hstem
          -85 callgsubr
          157 536 -72 callgsubr
        </CharString>
        <CharString name="Ygrave">
          -3 -66 callsubr
          227 -20 hstem
          -85 callgsubr
          157 527 -83 callsubr
        </CharString>
        <CharString name="Ytilde">
          -3 -66 callsubr
          84 -47 callgsubr
          hintmask 11101000
          -85 callgsubr
          256 530 -89 callgsubr
          hintmask 11010000
          -92 callgsubr
          hintmask 11101000
          -54 callgsubr
        </CharString>
        <CharString name="Z">
          -31 19 callsubr
          hstem
          -36 -72 callsubr
          endchar
        </CharString>
        <CharString name="Z.sc">
          -84 0 125 313 125 hstem
          -33 hmoveto
          476 62 callgsubr
          -296 hlineto
          363 331 22 107 rlineto
          -461 hlineto
          -27 -125 rlineto
          295 hlineto
          -376 -331 rlineto
          endchar
        </CharString>
        <CharString name="Zacute">
          -31 19 callsubr
          206 -20 hstem
          537 916 -95 callsubr
          -458 -772 rmoveto
          -71 callsubr
          endchar
        </CharString>
        <CharString name="Zcaron">
          -31 9 callgsubr
          hintmask 10110000
          330 772 -92 callsubr
          -284 -879 rmoveto
          -76 callgsubr
          hintmask 11010000
          -18 callgsubr
          327 hlineto
          -435 -443 rlineto
          endchar
        </CharString>
        <CharString name="Zdotaccent">
          -31 19 callsubr
          69 137 hstem
          -36 -72 callsubr
          477 656 -100 callgsubr
          endchar
        </CharString>
        <CharString name="Zdotbelow">
          -31 -29 callgsubr
          67 -11 callgsubr
          hstem
          -36 -72 callsubr
          273 -327 -100 callgsubr
          endchar
        </CharString>
        <CharString name="a">
          -79 callgsubr
          -14 callgsubr
          hintmask 10110000
          197 -10 20 callgsubr
          -2 -12 -1 -9 -7 vvcurveto
          hintmask 01110000
          -105 callgsubr
          hintmask 10110000
          -104 callgsubr
          endchar
        </CharString>
        <CharString name="a.alt">
          -6 -10 135 -104 -21 399 136 -14 callgsubr
          hintmask 10110000
          197 -10 rmoveto
          68 52 31 57 42 hvcurveto
          hintmask 01110000
          -17 -78 rlineto
          159 hlineto
          110 518 -85 callsubr
          -17 -79 rlineto
          58 -17 -51 38 -69 hhcurveto
          -149 -137 -153 -178 hvcurveto
          hintmask 10110000
          -124 71 -90 115 vhcurveto
          71 135 rmoveto
          -55 -33 45 60 84 68 85 71 45 35 -37 -55 8 hvcurveto
          -23 -109 rlineto
          -45 -34 -38 -28 -44 hhcurveto
          endchar
        </CharString>
        <CharString name="a.alt2">
          -72 0 105 -94 -21 253 89 93 110 hstemhm
          -12 157 211 160 hintmask 01111100
          130 -10 rmoveto
          67 60 27 52 45 hvcurveto
          hintmask 10111100
          -14 -69 rlineto
          154 hlineto
          67 315 rlineto
          5 21 2 20 19 vvcurveto
          103 -70 57 -131 -82 -76 -24 -44 -74 vhcurveto
          25 -100 rlineto
          38 62 52 20 54 hhcurveto
          55 25 -23 -41 -9 -1 -9 -2 -9 hvcurveto
          -5 -24 rlineto
          13 -23 -37 9 -44 hhcurveto
          -137 -119 -82 -122 hvcurveto
          hintmask 01111100
          -80 56 -58 86 vhcurveto
          hintmask 10111100
          72 115 rmoveto
          -35 -22 22 32 52 53 32 54 25 30 -6 -11 22 hvcurveto
          -10 -50 -3 -13 -12 -13 -15 -12 rlinecurve
          -21 -25 -34 -12 -28 hhcurveto
          endchar
        </CharString>
        <CharString name="aacute">
          -79 callgsubr
          5 callsubr
          3 callsubr
          197 -10 20 callgsubr
          -2 -12 -1 -9 -7 vvcurveto
          hintmask 01111000
          -105 callgsubr
          hintmask 10111000
          -104 callgsubr
          213 605 -52 callsubr
        </CharString>
        <CharString name="abreve">
          -79 callgsubr
          48 -17 callgsubr
          11 169 25 86 hintmask 10110110
          197 -10 20 callgsubr
          -2 -12 -1 -9 -7 vvcurveto
          hintmask 01110110
          -105 callgsubr
          hintmask 10110110
          -104 callgsubr
          66 528 -41 callsubr
          hintmask 10101110
          -98 callsubr
          hintmask 10110110
          -58 callsubr
        </CharString>
        <CharString name="acircumflex">
          -79 callgsubr
          5 callsubr
          3 callsubr
          197 -10 20 callgsubr
          -2 -12 -1 -9 -7 vvcurveto
          hintmask 01111000
          -105 callgsubr
          hintmask 10111000
          -104 callgsubr
          -22 461 -70 callgsubr
        </CharString>
        <CharString name="acute">
          -367 607 -21 144 -20 hstem
          240 730 -52 callsubr
        </CharString>
        <CharString name="adblgrave">
          -79 callgsubr
          5 callsubr
          3 callsubr
          197 -10 20 callgsubr
          -2 -12 -1 -9 -7 vvcurveto
          hintmask 01111000
          -105 callgsubr
          hintmask 10111000
          -104 callgsubr
          127 459 -38 callgsubr
        </CharString>
        <CharString name="adieresis">
          -79 callgsubr
          58 129 3 callsubr
          197 -10 20 callgsubr
          -2 -12 -1 -9 -7 vvcurveto
          hintmask 01111000
          -105 callgsubr
          hintmask 10111000
          -104 callgsubr
          25 468 -72 callgsubr
        </CharString>
        <CharString name="ae">
          272 58 callgsubr
          hstemhm
          -12 156 569 166 hintmask 11011100
          131 -10 -70 callsubr
          hintmask 10111100
          -50 callsubr
          hintmask 11011100
          12 callgsubr
        </CharString>
        <CharString name="aeacute">
          271 58 callgsubr
          5 callsubr
          hstemhm
          -13 156 569 166 hintmask 11011110
          646 730 -95 callsubr
          -401 -596 -70 callsubr
          hintmask 10111110
          -50 callsubr
          hintmask 11011110
          12 callgsubr
        </CharString>
        <CharString name="afii61352">
          466 21 -21 336 97 184 93 4 -20 hstemhm
          764 115 139 116 hintmask 11101100
          468 hmoveto
          131 -74 callsubr
          -88 -417 -214 417 rlineto
          -127 hlineto
          -151 -710 rlineto
          -18 callsubr
          86 406 rlineto
          652 -70 rmoveto
          137 89 114 114 hvcurveto
          hintmask 11011100
          82 -48 39 callsubr
          vhcurveto
          -29 164 rmoveto
          hintmask 11101100
          65 43 52 46 30 20 -27 -41 -64 -43 -52 -46 -30 -20 27 40 vhcurveto
          endchar
        </CharString>
        <CharString name="agrave">
          -79 callgsubr
          5 callsubr
          3 callsubr
          197 -10 20 callgsubr
          -2 -12 -1 -9 -7 vvcurveto
          hintmask 01111000
          -105 callgsubr
          hintmask 10111000
          -104 callgsubr
          9 459 -83 callsubr
        </CharString>
        <CharString name="ainvertedbreve">
          -79 callgsubr
          48 -22 callgsubr
          11 169 214 84 hintmask 10110110
          197 -10 20 callgsubr
          -2 -12 -1 -9 -7 vvcurveto
          hintmask 01110110
          -105 callgsubr
          hintmask 10110110
          -104 callgsubr
          -76 458 rmoveto
          83 hlineto
          hintmask 10101110
          -75 callsubr
          hintmask 10110110
          -39 callsubr
        </CharString>
        <CharString name="amacron">
          -79 callgsubr
          85 97 3 callsubr
          197 -10 20 callgsubr
          -2 -12 -1 -9 -7 vvcurveto
          hintmask 01111000
          -105 callgsubr
          hintmask 10111000
          -104 callgsubr
          213 495 -65 callsubr
          endchar
        </CharString>
        <CharString name="ampersand">
          86 -10 122 -91 -21 305 111 187 116 hstemhm
          13 156 -42 150 hintmask 01110100
          431 hmoveto
          207 hlineto
          -118 170 29 39 26 45 21 51 rlinecurve
          71 hlineto
          15 111 rlineto
          -184 hlineto
          -8 -56 -17 -49 -22 -42 -111 162 rcurveline
          -44 64 -19 20 27 vvcurveto
          36 34 25 33 33 33 -25 -50 13 vhcurveto
          112 51 rlineto
          96 -22 -74 44 -83 hhcurveto
          -119 -110 -85 -119 -42 14 -37 31 -50 hvcurveto
          hintmask 10111000
          -87 -53 -72 -63 -100 vvcurveto
          -95 63 -85 126 62 68 21 41 63 vhcurveto
          hintmask 01111000
          hintmask 10111000
          -149 60 rmoveto
          -43 -34 25 49 39 21 28 50 31 hvcurveto
          97 -144 rlineto
          -19 -30 -32 -9 -29 hhcurveto
          endchar
        </CharString>
        <CharString name="aogonek">
          8 -184 -21 195 -66 callgsubr
          hstem
          11 169 160 105 vstem
          452 -205 27 callgsubr
          -94 callsubr
          74 342 rlineto
          -161 hlineto
          -18 -83 -90 callsubr
          -122 70 -91 116 67 71 32 65 49 hvcurveto
          -2 -12 -1 -9 -7 vvcurveto
          -39 21 -19 35 -6 vhcurveto
          50 callsubr
          -183 330 rmoveto
          -56 -33 44 60 87 67 83 73 43 37 -38 -53 7 hvcurveto
          -23 -110 rlineto
          -45 -31 -44 -28 -40 hhcurveto
          endchar
        </CharString>
        <CharString name="apostrophe">
          -111 593 -21 158 -20 hstem
          327 29 callgsubr
          endchar
        </CharString>
        <CharString name="approxequal">
          -164 120 95 -48 48 -48 96 26 94 -48 48 -48 97 hstemhm
          hintmask 10001000
          335 410 rmoveto
          -14 -8 -14 -13 -26 hhcurveto
          hintmask 10000100
          -47 -24 49 -62 hhcurveto
          -56 -35 -38 -39 -19 hvcurveto
          74 -44 rlineto
          13 6 12 11 24 hhcurveto
          hintmask 01010000
          44 28 -46 61 hhcurveto
          57 37 41 40 20 hvcurveto
          -72 -129 rmoveto
          -14 -8 -14 -12 -26 hhcurveto
          hintmask 00110000
          -47 -24 48 -62 hhcurveto
          -56 -35 -38 -38 -19 hvcurveto
          74 -44 rlineto
          12 6 12 12 24 hhcurveto
          hintmask 10010000
          44 28 -47 61 hhcurveto
          57 37 41 38 20 hvcurveto
          endchar
        </CharString>
        <CharString name="aring">
          -79 callgsubr
          32 47 69 47 -14 callgsubr
          53 68 80 64 hintmask 10111111
          197 -10 20 callgsubr
          -2 -12 -1 -9 -7 vvcurveto
          hintmask 01111111
          -105 callgsubr
          hintmask 10111111
          -104 callgsubr
          -36 507 -88 callgsubr
          endchar
        </CharString>
        <CharString name="aringacute">
          -79 callgsubr
          32 47 69 47 156 -20 -14 callgsubr
          51 68 82 62 hintmask 1011111110000000
          197 -10 20 callgsubr
          -2 -12 -1 -9 -7 vvcurveto
          hintmask 0111111110000000
          -105 callgsubr
          hintmask 1011111110000000
          -104 callgsubr
          252 761 -95 callsubr
          -175 -110 -88 callgsubr
          endchar
        </CharString>
        <CharString name="asciicircum">
          -18 324 -21 407 -20 hstem
          174 303 rmoveto
          137 275 133 -275 63 callgsubr
          -197 407 rlineto
          -133 hlineto
          -198 -407 rlineto
          endchar
        </CharString>
        <CharString name="asciitilde">
          -61 222 92 -41 41 -41 94 hstemhm
          hintmask 10000000
          37 222 rmoveto
          87 hlineto
          hintmask 01000000
          2 8 49 58 vhcurveto
          hintmask 10000000
          60 43 -51 73 hhcurveto
          119 42 126 17 1 hvcurveto
          -86 hlineto
          -4 -14 -47 -57 vhcurveto
          hintmask 00100000
          -61 -40 53 -76 hhcurveto
          hintmask 10000000
          -114 -42 -117 -28 -1 hvcurveto
          endchar
        </CharString>
        <CharString name="asterisk">
          -280 492 -21 248 -20 hstem
          165 471 rmoveto
          61 79 28 -79 68 39 -31 75 73 21 -6 67 -77 -34 22 80 rlineto
          -82 hlineto
          -11 -80 -63 34 -35 -67 63 -21 -61 -75 rlineto
          endchar
        </CharString>
        <CharString name="at">
          190 -146 61 80 58 -58 77 304 89 77 61 hstemhm
          18 66 75 94 221 76 149 65 hintmask 1101111110000000
          582 53 rmoveto
          -20 -12 14 24 9 2 14 2 10 hvcurveto
          64 326 rlineto
          -75 hlineto
          -12 -65 rlineto
          47 -12 -45 33 -63 hhcurveto
          -131 -121 -135 -151 -107 62 -77 99 53 51 23 46 52 hvcurveto
          -2 -4 0 -5 -6 vvcurveto
          -43 32 -22 46 132 80 184 144 174 -115 117 -183 -236 -212 -193 -254 -183 111 -119 170 58 58 14 26 57 vhcurveto
          -7 59 rlineto
          -26 -58 -45 -12 -50 hhcurveto
          -142 -86 98 151 211 168 167 198 156 93 -104 -144 -107 -53 -134 -64 hvcurveto
          hintmask 1011111110000000
          -230 19 rmoveto
          -66 -33 52 66 104 79 82 72 47 33 -36 -51 9 hvcurveto
          -19 -122 rlineto
          -57 -24 -42 -38 -56 hhcurveto
          endchar
        </CharString>
        <CharString name="atilde">
          -79 callgsubr
          53 -47 callgsubr
          11 169 hintmask 10110110
          197 -10 20 callgsubr
          -2 -12 -1 -9 -7 vvcurveto
          hintmask 01110110
          -105 callgsubr
          hintmask 10110110
          -104 callgsubr
          121 463 -89 callgsubr
          hintmask 10101010
          -92 callgsubr
          hintmask 10110110
          -54 callgsubr
        </CharString>
        <CharString name="b">
          -7 -10 135 -104 -21 399 136 5 callsubr
          hstemhm
          423 168 hintmask 10111000
          293 -10 rmoveto
          155 143 149 184 120 -60 92 -110 -69 -66 -38 -58 -43 hvcurveto
          62 291 -85 callsubr
          hintmask 01111000
          -155 -730 rlineto
          140 hlineto
          18 87 rlineto
          hintmask 10111000
          -61 19 50 -36 76 hhcurveto
          -14 135 rmoveto
          -45 -29 28 45 -13 hvcurveto
          24 110 rlineto
          52 31 50 39 45 hhcurveto
          51 30 -48 -60 -90 -69 -76 -75 hvcurveto
          endchar
        </CharString>
        <CharString name="backslash">
          6 23 callsubr
          107 710 rmoveto
          263 -710 rlineto
          176 hlineto
          -262 10 callsubr
          endchar
        </CharString>
        <CharString name="bar">
          -284 -109 -21 905 -20 hstem
          108 135 vstem
          243 -130 rmoveto
          905 -135 -905 vlineto
          endchar
        </CharString>
        <CharString name="braceleft">
          -294 -10 -21 771 -20 hstem
          79 155 vstem
          353 613 rmoveto
          28 127 rlineto
          -174 hlineto
          -7 -17 -6 -24 -5 hvcurveto
          -47 -224 rlineto
          -32 -7 -35 -38 -27 hhcurveto
          -23 -110 rlineto
          21 -5 19 -21 -30 vvcurveto
          -5 -1 -5 -1 -6 vhcurveto
          -50 -235 rlineto
          -1 -4 0 -3 -3 vvcurveto
          -16 10 -4 7 vhcurveto
          174 hlineto
          27 127 rlineto
          -52 hlineto
          40 192 rlineto
          1 5 1 6 6 vvcurveto
          22 -11 19 -12 14 vhcurveto
          24 19 21 22 7 31 38 181 rcurveline
          endchar
        </CharString>
        <CharString name="braceright">
          -291 -10 -21 771 -20 hstem
          168 613 rmoveto
          -39 -181 rlineto
          -2 -6 0 -6 -6 vvcurveto
          -22 11 -17 11 -15 vhcurveto
          -22 -18 -22 -24 -7 -30 -41 -192 rcurveline
          -52 hlineto
          -27 -127 rlineto
          173 hlineto
          8 16 6 24 5 hvcurveto
          50 235 8 38 33 28 27 6 rlinecurve
          24 110 rlineto
          -23 -18 27 29 5 1 4 1 5 hvcurveto
          48 224 rlineto
          1 4 0 3 3 vvcurveto
          15 -10 5 -7 vhcurveto
          -173 hlineto
          -27 -127 rlineto
          endchar
        </CharString>
        <CharString name="bracketleft">
          -304 -40 127 526 127 hstem
          208 -40 rmoveto
          26 127 rlineto
          -63 hlineto
          111 526 rlineto
          64 hlineto
          27 127 rlineto
          -211 hlineto
          -166 -780 rlineto
          endchar
        </CharString>
        <CharString name="bracketright">
          -303 -40 127 526 127 hstem
          182 -40 rmoveto
          165 780 rlineto
          -211 hlineto
          -27 -127 rlineto
          64 hlineto
          -111 -526 rlineto
          -65 hlineto
          -27 -127 rlineto
          endchar
        </CharString>
        <CharString name="breve">
          -291 583 -17 callgsubr
          33 86 hintmask 10100000
          163 653 -41 callsubr
          hintmask 01100000
          -98 callsubr
          hintmask 10100000
          -58 callsubr
        </CharString>
        <CharString name="brokenbar">
          -292 -109 -21 905 -20 hstem
          104 136 vstem
          104 260 rmoveto
          -390 136 390 vlineto
          -136 515 rmoveto
          -390 136 390 vlineto
          endchar
        </CharString>
        <CharString name="bullet">
          -268 241 220 hstem
          80 218 vstem
          298 371 rmoveto
          50 -34 40 -52 -66 -66 -60 -69 -51 34 -40 51 68 65 60 70 vhcurveto
          endchar
        </CharString>
        <CharString name="c">
          43 callsubr
          hstem
          11 166 vstem
          230 -10 -87 callsubr
          endchar
        </CharString>
        <CharString name="c_t">
          311 -10 44 callgsubr
          160 69 hstemhm
          11 167 296 63 153 163 hintmask 11011110
          230 -10 rmoveto
          115 96 56 83 35 callgsubr
          -33 -22 -37 -19 -34 hhcurveto
          -48 -32 42 62 93 66 77 71 35 25 -17 -33 12 hvcurveto
          166 47 rlineto
          hintmask 10111110
          -5 25 -11 57 47 vvcurveto
          68 20 72 81 38 14 -18 -39 -21 -4 -28 -7 -34 vhcurveto
          -63 hlineto
          -26 -48 callgsubr
          -72 50 -27 67 54 62 19 19 48 vhcurveto
          127 vlineto
          -9 -22 -30 -10 -21 hhcurveto
          -21 -13 10 23 4 0 6 2 6 hvcurveto
          46 219 rlineto
          101 hlineto
          25 121 rlineto
          -100 hlineto
          7 33 7 33 30 vvcurveto
          63 -30 50 -123 -145 -81 -71 -120 -14 2 -22 3 -11 vhcurveto
          hintmask 11011110
          25 -36 -32 14 -61 hhcurveto
          -209 -130 -164 -160 -119 74 -102 145 hvcurveto
          endchar
        </CharString>
        <CharString name="cacute">
          43 callsubr
          5 callsubr
          hstem
          11 166 vstem
          498 730 -95 callsubr
          -153 -596 -87 callsubr
          endchar
        </CharString>
        <CharString name="caron">
          -256 607 -21 144 -20 hstem
          117 586 -92 callsubr
          endchar
        </CharString>
        <CharString name="caron.alt">
          -367 593 -21 158 -20 hstem
          124 -49 callgsubr
          endchar
        </CharString>
        <CharString name="ccaron">
          43 callsubr
          0 51 10 callgsubr
          11 166 hintmask 10111000
          296 586 -92 callsubr
          16 -703 rmoveto
          116 94 58 81 35 callgsubr
          -31 -21 -37 -21 -35 hhcurveto
          -48 -32 42 62 hvcurveto
          hintmask 11011000
          98 68 72 70 35 25 -18 -32 12 vhcurveto
          165 47 rlineto
          82 -22 -69 57 -116 hhcurveto
          -198 -136 -160 -164 -120 73 -101 146 hvcurveto
          endchar
        </CharString>
        <CharString name="ccedilla">
          -78 36 callgsubr
          -48 208 274 136 hstemhm
          11 166 85 75 hintmask 11011100
          78 -183 rmoveto
          -75 callgsubr
          25 30 101 9 82 54 51 74 rlinecurve
          -146 48 rlineto
          hintmask 10111100
          -31 -21 -37 -21 -35 hhcurveto
          -48 -32 42 62 98 68 72 70 35 25 -18 -32 12 hvcurveto
          165 47 rlineto
          82 -22 -69 57 -116 hhcurveto
          -198 -136 -160 -164 -111 62 -95 125 -13 hvcurveto
          -59 -86 -64 callsubr
          endchar
        </CharString>
        <CharString name="ccircumflex">
          43 callsubr
          5 callsubr
          hstem
          11 166 vstem
          280 586 -103 callgsubr
          24 -632 -87 callsubr
          endchar
        </CharString>
        <CharString name="cdotaccent">
          43 callsubr
          58 137 hstem
          11 166 vstem
          230 -10 -87 callsubr
          199 603 -100 callgsubr
          endchar
        </CharString>
        <CharString name="cedilla">
          -296 36 callgsubr
          67 -20 hstem
          164 75 vstem
          -20 -183 rmoveto
          -75 callgsubr
          45 52 -56 18 -87 -126 -64 callsubr
          endchar
        </CharString>
        <CharString name="cent">
          -42 -99 -21 131 -21 655 -20 hstem
          26 166 vstem
          247 -120 rmoveto
          24 110 rlineto
          62 119 46 93 61 hvcurveto
          -146 48 -14 -23 -26 -17 -27 -8 rlinecurve
          57 265 19 -3 20 -17 7 -25 rlinecurve
          166 47 -27 89 -71 45 -85 3 rlinecurve
          24 112 rlineto
          -69 hlineto
          -24 -112 rlineto
          -184 -30 -107 -146 -145 vvcurveto
          -108 65 -104 111 -9 vhcurveto
          -24 -111 rlineto
          14 345 rmoveto
          66 41 77 53 19 vhcurveto
          -53 -250 rlineto
          -27 14 -14 36 38 vvcurveto
          endchar
        </CharString>
        <CharString name="circumflex">
          -256 607 -21 144 -20 hstem
          105 586 -70 callgsubr
        </CharString>
        <CharString name="colon">
          -357 0 163 193 163 hstem
          211 356 rmoveto
          35 65 callsubr
          55 -356 rmoveto
          41 callgsubr
        </CharString>
        <CharString name="colonmonetary">
          -71 -120 245 -114 -21 409 246 -110 -20 hstemhm
          14 167 hintmask 10101000
          101 -120 rmoveto
          71 hlineto
          24 113 rlineto
          hintmask 01101000
          -2 12 12 -1 13 hhcurveto
          7 6 0 1 7 hvcurveto
          hintmask 10101000
          -24 -111 rlineto
          72 hlineto
          26 123 73 22 60 46 40 58 rlinecurve
          -146 48 rlineto
          -31 -22 -36 -21 -35 hhcurveto
          -48 -32 42 62 98 67 72 71 35 24 -18 -32 12 hvcurveto
          166 47 -17 58 -39 46 -63 21 rlinecurve
          27 124 rlineto
          -72 hlineto
          -24 -111 rlineto
          hintmask 10011000
          1 -6 -7 0 -6 hhcurveto
          -13 -13 -1 -1 -12 hvcurveto
          hintmask 01101000
          24 112 rlineto
          -72 hlineto
          -27 -129 rlineto
          -136 -46 -86 -129 -130 vvcurveto
          -87 38 -77 76 -36 vhcurveto
          endchar
        </CharString>
        <CharString name="comma">
          -384 -114 -21 298 -20 hstem
          50 -135 rmoveto
          75 137 35 161 rlineto
          -135 hlineto
          -34 59 callgsubr
        </CharString>
        <CharString name="commaaccent">
          -411 -3 callgsubr
          hstem
          101 -90 callgsubr
          endchar
        </CharString>
        <CharString name="copyright">
          232 -7 56 65 135 211 135 64 56 hstem
          59 62 65 164 411 62 vstem
          437 -7 rmoveto
          222 164 155 207 206 -164 154 -222 -217 -161 -154 -206 -207 161 -155 217 hvcurveto
          56 vmoveto
          -181 -135 135 171 170 136 134 180 186 138 -134 -171 -180 -142 -125 -182 hvcurveto
          9 65 rmoveto
          117 82 61 75 35 hvcurveto
          -156 47 rlineto
          -30 -16 -31 -18 -32 hhcurveto
          -48 -47 38 67 61 38 45 56 30 31 -14 -34 18 hvcurveto
          155 48 rlineto
          81 -38 -82 54 -113 hhcurveto
          -170 -89 -116 -125 -132 99 -108 161 hvcurveto
          endchar
        </CharString>
        <CharString name="currency">
          -46 128 -21 42 97 183 98 45 -20 hstem
          100 115 168 115 vstem
          125 572 rmoveto
          -62 -62 66 -68 rlineto
          -19 -30 -10 -36 -38 vvcurveto
          -39 11 -36 19 -31 vhcurveto
          -67 -68 57 -57 72 68 rlineto
          -16 29 36 -10 42 hhcurveto
          41 36 9 16 28 hvcurveto
          72 -67 57 57 -67 66 rlineto
          21 31 11 37 40 vvcurveto
          38 -11 38 -20 30 vhcurveto
          66 66 -62 62 -69 -70 rlineto
          15 -29 -34 10 -40 hhcurveto
          -41 -35 -10 -16 -29 hvcurveto
          21 -164 rmoveto
          56 36 36 48 48 36 -36 -55 -55 -36 -37 -48 -48 -36 37 54 vhcurveto
          endchar
        </CharString>
        <CharString name="d">
          -79 callgsubr
          5 callsubr
          3 callsubr
          197 -10 -37 callgsubr
          hintmask 01111000
          -45 35 -19 51 -46 callgsubr
          vhcurveto
          -86 callgsubr
          hintmask 10111000
          -104 callgsubr
          endchar
        </CharString>
        <CharString name="d.alt">
          -7 -10 135 -104 -21 399 136 5 callsubr
          3 callsubr
          197 -10 rmoveto
          67 52 30 56 42 hvcurveto
          hintmask 01111000
          -16 -76 rlineto
          159 hlineto
          155 730 -85 callsubr
          -62 -291 rlineto
          58 -18 -50 38 -70 hhcurveto
          -149 -136 -154 -178 hvcurveto
          hintmask 10111000
          -122 70 -91 116 vhcurveto
          71 135 rmoveto
          -54 -34 44 61 85 67 84 72 43 38 -37 -54 7 hvcurveto
          -23 -110 rlineto
          -45 -31 -43 -28 -42 hhcurveto
          endchar
        </CharString>
        <CharString name="dagger">
          -155 -109 -21 329 144 432 -20 hstem
          220 -130 rmoveto
          70 329 rlineto
          125 -77 callgsubr
          -125 hlineto
          93 432 rlineto
          -152 hlineto
          -92 -432 rlineto
          -125 hlineto
          -31 -144 rlineto
          125 hlineto
          -70 -329 rlineto
          endchar
        </CharString>
        <CharString name="daggerdbl">
          -137 -109 -21 209 144 112 144 296 -20 hstem
          230 -130 rmoveto
          44 209 rlineto
          125 hlineto
          31 144 rlineto
          -125 hlineto
          24 112 rlineto
          125 -77 callgsubr
          -124 hlineto
          63 296 rlineto
          -152 hlineto
          -63 -296 rlineto
          -126 -9 callgsubr
          126 hlineto
          -24 -112 rlineto
          -126 -9 callgsubr
          125 hlineto
          -44 -209 rlineto
          endchar
        </CharString>
        <CharString name="dcaron">
          -79 callgsubr
          5 callsubr
          3 callsubr
          766 -49 callgsubr
          -473 -610 -37 callgsubr
          hintmask 01111000
          -45 35 -19 51 -46 callgsubr
          vhcurveto
          -86 callgsubr
          hintmask 10111000
          -104 callgsubr
          endchar
        </CharString>
        <CharString name="dcroat">
          -79 callgsubr
          50 94 -94 145 -14 callgsubr
          hintmask 10110100
          389 585 rmoveto
          76 hlineto
          -31 -146 -90 callsubr
          -122 70 -91 116 67 71 32 65 49 hvcurveto
          -2 -9 0 -19 -2 vvcurveto
          hintmask 01110100
          -43 28 -22 56 -46 callgsubr
          vhcurveto
          -94 callsubr
          87 405 rlineto
          67 hlineto
          20 94 rlineto
          -67 hlineto
          hintmask 10101100
          11 51 rlineto
          -161 hlineto
          hintmask 10110100
          -11 -51 rlineto
          -76 hlineto
          -140 -554 rmoveto
          -56 -33 44 60 87 67 83 73 43 37 -38 -53 7 hvcurveto
          -23 -110 rlineto
          -45 -31 -44 -28 -40 hhcurveto
          endchar
        </CharString>
        <CharString name="ddotbelow">
          8 -29 callgsubr
          57 135 -112 -21 407 136 5 callsubr
          -14 callgsubr
          hintmask 11011100
          288 -56 callgsubr
          53 194 -37 callgsubr
          hintmask 10111100
          -45 35 -19 51 -46 callgsubr
          vhcurveto
          -86 callgsubr
          hintmask 11011100
          -104 callgsubr
          endchar
        </CharString>
        <CharString name="degree">
          -341 504 75 69 76 hstem
          97 76 67 77 vstem
          183 504 rmoveto
          74 60 58 75 50 -33 37 -53 -76 -58 -67 -69 -50 33 -34 53 hvcurveto
          17 75 rmoveto
          -17 -10 13 16 21 21 19 20 14 12 -8 -19 -22 -21 -20 -19 hvcurveto
          endchar
        </CharString>
        <CharString name="dieresis">
          -129 593 129 hstem
          205 593 -72 callgsubr
        </CharString>
        <CharString name="divide">
          -113 38 143 59 127 59 143 hstem
          190 135 cntrmask 11100000
          325 426 rmoveto
          143 -135 -143 vlineto
          135 -388 rmoveto
          143 -135 -143 vlineto
          269 202 68 callsubr
        </CharString>
        <CharString name="dollar">
          -6 -102 -21 116 147 675 -20 hstem
          95 180 104 184 vstem
          629 638 rmoveto
          -46 32 -68 36 -80 8 21 101 rcurveline
          -68 hlineto
          -21 -101 rlineto
          -143 -13 -129 -98 -159 vvcurveto
          -78 48 -43 95 -34 vhcurveto
          46 -16 -28 -131 -89 13 -74 55 -5 13 rlinecurve
          -102 -143 58 -47 84 -31 85 -8 rlinecurve
          -25 -117 rlineto
          70 hlineto
          24 116 rlineto
          140 7 141 73 179 vvcurveto
          99 -67 40 -102 33 vhcurveto
          -30 9 28 135 71 -11 62 -46 4 -9 rlinecurve
          -150 -299 rmoveto
          -35 -23 -25 -55 -3 vhcurveto
          25 117 rlineto
          32 -13 21 -16 -25 vvcurveto
          -104 297 rmoveto
          39 26 26 46 4 vhcurveto
          -25 -120 rlineto
          -31 13 -16 14 24 vvcurveto
          endchar
        </CharString>
        <CharString name="dotaccent">
          -388 593 137 hstem
          183 593 -100 callgsubr
          endchar
        </CharString>
        <CharString name="dotbelow">
          -387 -29 callgsubr
          hstem
          148 -56 callgsubr
          endchar
        </CharString>
        <CharString name="dotlessi">
          21 -21 525 -20 -25 callsubr
          endchar
        </CharString>
        <CharString name="dotlessj">
          46 callgsubr
          589 -39 callgsubr
          endchar
        </CharString>
        <CharString name="e">
          -61 callsubr
          -94 callgsubr
          endchar
        </CharString>
        <CharString name="eacute">
          -31 callgsubr
          500 730 -95 callsubr
          -153 -596 -107 callsubr
          endchar
        </CharString>
        <CharString name="ebreve">
          -61 callsubr
          48 -17 callgsubr
          12 166 57 86 69 154 hintmask 11110111
          -103 callsubr
          41 233 -41 callsubr
          hintmask 11101111
          -98 callsubr
          hintmask 11110111
          -58 callsubr
        </CharString>
        <CharString name="ecaron">
          -68 -10 115 106 99 0 110 115 51 10 callgsubr
          12 166 212 154 hintmask 11011110
          296 586 -92 callsubr
          18 -703 rmoveto
          106 109 -4 callgsubr
          -126 40 rlineto
          -48 callsubr
          -59 -24 37 70 hvcurveto
          -1 19 18 0 17 hhcurveto
          207 105 60 114 95 -74 55 -120 -189 -149 -146 -177 -131 84 -91 136 hvcurveto
          hintmask 10111110
          8 callgsubr
        </CharString>
        <CharString name="ecircumflex">
          -31 callgsubr
          283 586 -103 callgsubr
          23 -632 -107 callsubr
          endchar
        </CharString>
        <CharString name="edblgrave">
          -31 callgsubr
          419 584 -95 callgsubr
          30 -740 -107 callsubr
          endchar
        </CharString>
        <CharString name="edieresis">
          -61 callsubr
          58 129 -53 callsubr
          325 593 -101 callgsubr
          -166 -603 -107 callsubr
          endchar
        </CharString>
        <CharString name="edotaccent">
          -61 callsubr
          58 137 -94 callgsubr
          108 173 -100 callgsubr
          endchar
        </CharString>
        <CharString name="edotbelow">
          -68 -29 callgsubr
          57 115 106 99 110 115 -94 callgsubr
          -58 -624 -100 callgsubr
          endchar
        </CharString>
        <CharString name="egrave">
          -68 -10 115 106 99 110 115 195 -20 -94 callgsubr
          -5 164 -83 callsubr
        </CharString>
        <CharString name="eight">
          -7 callgsubr
          226 -9 rmoveto
          156 147 108 149 60 -29 47 -31 24 hvcurveto
          -27 callgsubr
          vhcurveto
          31 145 rmoveto
          46 callsubr
          -60 -54 -47 -56 hvcurveto
          63 297 rmoveto
          hintmask 11101010
          -28 -28 19 36 48 callgsubr
          hvcurveto
          endchar
        </CharString>
        <CharString name="eight.denominator">
          -210 -6 52 callgsubr
          -9 2 callgsubr
          hintmask 11110100
          143 -6 -24 callgsubr
          hintmask 11101010
          -50 callgsubr
          hintmask 11110100
          -81 callsubr
          hintmask 11101010
          -57 callgsubr
          endchar
        </CharString>
        <CharString name="eight.lnum">
          -7 callgsubr
          529 248 rmoveto
          60 -29 47 -31 24 vhcurveto
          -27 callgsubr
          156 147 108 149 vhcurveto
          -162 -5 rmoveto
          -60 -54 -47 -56 46 callsubr
          vhcurveto
          hintmask 11101010
          -103 245 rmoveto
          48 callgsubr
          -28 -28 19 36 vhcurveto
          endchar
        </CharString>
        <CharString name="eight.numerator">
          -210 294 52 callgsubr
          56 97 -42 91 120 93 -73 97 hintmask 11110100
          415 445 rmoveto
          39 -24 28 -34 18 vhcurveto
          hintmask 11101010
          -19 callsubr
          -84 -104 -55 -78 -33 20 -22 26 -12 vhcurveto
          hintmask 11110100
          -54 -24 -47 -31 -64 vvcurveto
          -67 63 -50 88 106 102 66 85 vhcurveto
          -93 -2 rmoveto
          -32 -48 -24 -46 -38 -37 45 callsubr
          48 40 35 -17 -28 vhcurveto
          hintmask 11101010
          -120 155 rmoveto
          26 38 16 40 34 28 -13 -20 -27 -43 -16 -35 -31 -31 13 21 vhcurveto
          endchar
        </CharString>
        <CharString name="eightinferior">
          -210 -93 52 callgsubr
          -27 64 callgsubr
          332 58 rmoveto
          39 -23 28 -34 18 vhcurveto
          hintmask 11101010
          44 -44 callsubr
          -83 -105 -56 -77 -33 21 -22 25 -11 callsubr
          27 33 17 callsubr
          35 28 -13 -21 -26 68 callgsubr
        </CharString>
        <CharString name="eightsuperior">
          -212 381 52 callgsubr
          73 64 callgsubr
          432 532 rmoveto
          39 -23 28 -34 18 vhcurveto
          hintmask 11101010
          44 -44 callsubr
          -83 -105 -55 -78 -33 20 -22 26 -11 callsubr
          28 32 17 callsubr
          34 29 -13 -20 -27 68 callgsubr
        </CharString>
        <CharString name="einvertedbreve">
          -61 callsubr
          48 -22 callgsubr
          12 166 212 154 -118 84 hintmask 11110110
          225 44 callsubr
          hintmask 11101101
          -75 callsubr
          hintmask 11110101
          -96 callsubr
          7 -593 rmoveto
          106 109 -4 callgsubr
          -126 40 rlineto
          -48 callsubr
          -59 -24 37 70 hvcurveto
          -1 19 18 0 17 hhcurveto
          hintmask 11110110
          207 105 60 114 95 -74 55 -120 -189 -149 -146 -177 -131 84 -91 136 hvcurveto
          8 callgsubr
        </CharString>
        <CharString name="ellipsis">
          23 20 callsubr
          336 hmoveto
          34 65 callsubr
          336 hmoveto
          41 callgsubr
        </CharString>
        <CharString name="emacron">
          -61 callsubr
          85 97 -94 callgsubr
          184 200 -65 callsubr
          endchar
        </CharString>
        <CharString name="emdash">
          274 203 144 hstem
          825 203 rmoveto
          31 144 rlineto
          -793 hlineto
          -31 -144 rlineto
          endchar
        </CharString>
        <CharString name="emspace">
          263 endchar
        </CharString>
        <CharString name="endash">
          8 callsubr
        </CharString>
        <CharString name="eng">
          -36 46 callgsubr
          85 -16 callgsubr
          -10 24 callgsubr
          hintmask 11101000
          247 -202 rmoveto
          106 98 84 121 26 hvcurveto
          71 333 rlineto
          6 26 4 28 26 vvcurveto
          63 -25 56 -93 -87 -77 -36 -62 -49 vhcurveto
          hintmask 11011000
          19 88 -77 callsubr
          -112 -525 rlineto
          -55 callgsubr
          hintmask 11101000
          54 29 56 39 38 hhcurveto
          29 19 -18 -41 -12 -1 -13 -3 -15 hvcurveto
          -65 -304 rlineto
          -34 -7 -26 -21 -27 hhcurveto
          -18 -17 7 14 -9 hvcurveto
          -90 -109 rlineto
          -33 30 44 -17 51 hhcurveto
          endchar
        </CharString>
        <CharString name="enspace">
          -43 endchar
        </CharString>
        <CharString name="eogonek">
          -68 -188 -21 314 106 0 99 0 110 0 115 hstemhm
          12 166 -81 105 188 154 hintmask 11010011
          209 -209 rmoveto
          -60 callgsubr
          26 29 28 59 34 vhcurveto
          86 15 81 50 46 68 -126 40 rcurveline
          -48 callsubr
          hintmask 10101101
          -59 -24 37 70 hvcurveto
          -1 19 18 0 17 hhcurveto
          207 105 60 114 95 -74 55 -120 -189 -149 -146 -177 -120 70 -86 115 -14 hvcurveto
          hintmask 11010011
          -66 -38 -34 -42 3 callgsubr
          115 629 rmoveto
          39 27 -18 -31 -41 -41 -20 -117 hvcurveto
          -36 hlineto
          63 24 44 47 60 hhcurveto
          endchar
        </CharString>
        <CharString name="equal">
          -138 124 102 100 102 hstem
          397 124 rmoveto
          102 -318 -102 vlineto
          318 202 rmoveto
          102 -318 -102 vlineto
          endchar
        </CharString>
        <CharString name="estimated">
          -4 -10 51 200 54 188 52 hstem
          28 135 293 134 vstem
          308 41 rmoveto
          -56 -54 26 37 -35 hvcurveto
          137 427 vlineto
          164 -114 130 -168 -167 -113 -125 -150 -145 111 -125 169 108 75 36 47 50 vhcurveto
          -33 39 rlineto
          -38 -39 -65 -33 -96 hhcurveto
          442 vmoveto
          58 54 -25 -49 36 hvcurveto
          -114 -293 115 vlineto
          48 35 54 25 56 hhcurveto
          endchar
        </CharString>
        <CharString name="eth">
          -29 -10 135 219 128 258 -20 hstem
          8 167 215 184 vstem
          561 712 rmoveto
          -84 -42 -20 24 -23 21 -26 15 rlinecurve
          -197 hlineto
          58 -37 45 -37 33 -40 -78 -39 rcurveline
          32 -61 84 42 15 -27 10 -29 7 -30 rlinecurve
          4 -20 2 -22 1 -22 rrcurveto
          39 -27 -49 25 -56 hhcurveto
          -146 -138 -130 -151 -117 86 -84 135 198 147 153 234 82 -20 85 -38 69 hvcurveto
          77 38 rlineto
          -418 -439 rmoveto
          74 59 58 72 53 31 -35 -51 -73 -59 -60 -72 -52 -32 36 51 vhcurveto
          endchar
        </CharString>
        <CharString name="etilde">
          -61 callsubr
          53 -47 callgsubr
          12 166 212 154 hintmask 11110111
          -103 callsubr
          96 168 -89 callgsubr
          hintmask 11101011
          -92 callgsubr
          hintmask 11110111
          -54 callgsubr
        </CharString>
        <CharString name="exclam">
          -317 0 166 551 -20 hstem
          231 282 rmoveto
          91 435 -85 callsubr
          -91 -435 rlineto
          99 -282 rmoveto
          36 166 -85 callsubr
          -36 -166 rlineto
          endchar
        </CharString>
        <CharString name="exclamdown">
          -317 15 -21 551 166 hstem
          102 429 rmoveto
          -93 -435 rlineto
          -59 callsubr
          93 435 rlineto
          -101 282 rmoveto
          -35 -166 rlineto
          -59 callsubr
          35 166 rlineto
          endchar
        </CharString>
        <CharString name="f">
          -250 -192 -21 574 121 123 135 hstem
          -24 -213 rmoveto
          -59 callsubr
          122 574 55 callsubr
          11 49 rlineto
          48 10 24 26 35 hhcurveto
          20 27 -7 -9 17 hvcurveto
          55 120 rlineto
          20 -42 -42 11 -42 hhcurveto
          -107 -89 -84 -131 -27 hvcurveto
          -9 -43 -34 callsubr
          endchar
        </CharString>
        <CharString name="f_f">
          19 -27 callsubr
          25 121 rlineto
          -117 hlineto
          10 49 rlineto
          42 9 24 32 39 hhcurveto
          22 24 -8 -8 17 hvcurveto
          55 120 rlineto
          17 -41 -39 14 -44 hhcurveto
          -60 -50 -25 -39 -40 54 callsubr
          -85 -86 -120 -27 15 callsubr
          8 21 22 callgsubr
        </CharString>
        <CharString name="f_f_i">
          217 -27 callsubr
          -77 -361 rlineto
          160 hlineto
          103 482 rlineto
          -278 hlineto
          10 49 rlineto
          42 9 29 32 51 hhcurveto
          39 47 -24 -34 30 hvcurveto
          87 121 rlineto
          46 -64 -63 26 -65 hhcurveto
          -73 -65 -25 -39 -46 54 callsubr
          -86 -88 -118 -26 15 callsubr
          9 20 22 callgsubr
        </CharString>
        <CharString name="f_f_l">
          299 0 134 -121 -21 369 121 88 135 -100 135 hstemhm
          700 165 hintmask 01110100
          727 -8 rmoveto
          63 75 26 2 3 hvcurveto
          8 129 rlineto
          hintmask 10101100
          -1 -36 -15 -21 hhcurveto
          -25 -8 19 21 6 1 7 1 5 hvcurveto
          72 336 rlineto
          4 21 2 20 18 vvcurveto
          94 -59 59 -135 -78 -69 -21 -43 -48 vhcurveto
          hintmask 10110100
          18 -42 -41 11 -43 hhcurveto
          -108 -87 -86 -120 -27 48 callsubr
          -76 -361 rlineto
          -59 callsubr
          76 361 rlineto
          105 43 callgsubr
          77 361 rlineto
          72 hlineto
          26 121 rlineto
          -72 hlineto
          4 21 rlineto
          hintmask 01101100
          55 12 27 47 52 hhcurveto
          42 14 -23 -32 -14 -3 -16 -4 -16 hvcurveto
          -82 -386 rlineto
          -3 -13 -1 -8 -10 vvcurveto
          -54 41 -41 79 vhcurveto
          -443 490 rmoveto
          5 23 rlineto
          hintmask 10110100
          38 7 25 27 36 hhcurveto
          14 20 -3 -8 16 hvcurveto
          -6 -23 -7 -29 -5 -25 rrcurveto
          endchar
        </CharString>
        <CharString name="f_i">
          -49 21 -21 361 121 123 135 hstem
          22 hmoveto
          -59 callsubr
          76 361 rlineto
          117 hlineto
          -76 -361 rlineto
          -59 callsubr
          103 482 rlineto
          -279 hlineto
          11 49 rlineto
          42 9 31 32 45 hhcurveto
          44 44 -23 -35 32 hvcurveto
          87 121 rlineto
          45 -59 -58 27 -72 hhcurveto
          -131 -107 -91 -124 -26 hvcurveto
          -9 -43 -34 callsubr
          endchar
        </CharString>
        <CharString name="f_l">
          35 0 134 -121 -21 369 121 123 135 hstemhm
          435 166 hintmask 01111000
          462 -8 rmoveto
          65 73 26 2 4 hvcurveto
          8 129 rlineto
          hintmask 10111000
          -2 -35 -15 -22 hhcurveto
          -24 -8 19 20 7 1 -21 callsubr
          hvcurveto
          71 336 rlineto
          5 21 2 20 18 vvcurveto
          94 -60 59 -135 -136 -104 -66 -134 -29 vhcurveto
          -13 -58 -34 callsubr
          -76 -361 rlineto
          -59 callsubr
          76 361 rlineto
          73 hlineto
          25 121 rlineto
          -72 hlineto
          5 23 rlineto
          59 12 28 41 55 hhcurveto
          38 13 -21 -32 -15 -3 -19 -4 -21 hvcurveto
          -82 -381 rlineto
          -2 -11 -2 -9 -9 vvcurveto
          hintmask 01111000
          -54 42 -41 78 vhcurveto
          endchar
        </CharString>
        <CharString name="five">
          -90 -149 67 callgsubr
          299 168 vstem
          153 -149 rmoveto
          173 141 122 166 109 -70 74 -111 -34 7 callsubr
          -47 -113 rrcurveto
          138 hlineto
          29 21 33 17 33 hhcurveto
          40 25 -29 -44 -70 -50 -51 -65 -48 -46 30 47 -25 40 callsubr
        </CharString>
        <CharString name="five.denominator">
          -237 -6 61 callgsubr
          236 95 vstem
          115 -6 rmoveto
          119 97 73 98 68 -53 47 -81 -32 -22 -7 -6 -12 7 callgsubr
          40 18 31 28 callgsubr
          -64 rlineto
          -43 21 55 -27 68 hhcurveto
          endchar
        </CharString>
        <CharString name="five.lnum">
          -74 -9 67 callgsubr
          336 168 vstem
          190 -9 rmoveto
          173 141 122 166 108 -70 75 -110 -35 7 callsubr
          -46 -113 rrcurveto
          137 hlineto
          29 21 34 17 32 hhcurveto
          41 24 -30 -44 -69 -50 -51 -65 -48 -45 30 47 -26 40 callsubr
        </CharString>
        <CharString name="five.numerator">
          -237 294 61 callgsubr
          301 95 vstem
          261 -60 callsubr
          endchar
        </CharString>
        <CharString name="fiveeighths">
          273 33 callsubr
          30 90 -44 90 81 69 58 93 hstemhm
          311 95 61 2 callgsubr
          hintmask 0111011110100000
          271 -60 callsubr
          -103 -589 rmoveto
          hintmask 0110111110100000
          -82 callsubr
          hintmask 1011011110100000
          508 -62 -24 callgsubr
          hintmask 1010111101010000
          -50 callgsubr
          hintmask 1011011110100000
          -81 callsubr
          hintmask 1010111101010000
          -57 callgsubr
          endchar
        </CharString>
        <CharString name="fiveinferior">
          -237 -93 61 callgsubr
          218 96 vstem
          179 193 rmoveto
          -32 -21 -7 -6 -13 hvcurveto
          34 71 rlineto
          173 hlineto
          19 93 rlineto
          -238 hlineto
          -31 -78 -50 -104 -32 -82 rrcurveto
          80 hlineto
          26 19 41 18 30 67 callsubr
          -35 17 27 -20 hvcurveto
          -68 -64 rlineto
          -43 22 54 -27 69 hhcurveto
          118 98 73 98 68 -54 47 -81 hvcurveto
          endchar
        </CharString>
        <CharString name="fivesuperior">
          -238 381 90 127 70 57 93 hstem
          318 95 vstem
          279 668 rmoveto
          -32 -21 -8 -6 -13 7 callgsubr
          41 18 30 28 callgsubr
          -63 rlineto
          -44 21 55 -27 68 hhcurveto
          119 97 73 98 68 -53 48 -81 hvcurveto
          endchar
        </CharString>
        <CharString name="florin">
          -91 46 callgsubr
          407 121 141 135 hstem
          58 -202 rmoveto
          105 98 80 117 25 hvcurveto
          74 348 55 callsubr
          15 67 rlineto
          48 10 23 26 35 hhcurveto
          20 27 -7 -9 18 hvcurveto
          54 120 rlineto
          20 -42 -42 11 -42 hhcurveto
          -106 -88 -84 -131 -28 hvcurveto
          -13 -61 -34 callsubr
          -75 -352 rlineto
          -33 -7 -24 -22 -27 hhcurveto
          -18 -18 7 14 -9 hvcurveto
          -90 -109 rlineto
          -33 30 45 -17 51 hhcurveto
          endchar
        </CharString>
        <CharString name="four">
          -65 -106 -21 137 144 417 -20 hstem
          189 -127 rmoveto
          -59 callsubr
          29 137 rlineto
          84 hlineto
          31 144 rlineto
          -84 hlineto
          89 417 rlineto
          -110 hlineto
          -396 -418 -31 -143 rlineto
          257 hlineto
          -67 144 rmoveto
          154 177 -38 -177 rlineto
          endchar
        </CharString>
        <CharString name="four.denominator">
          -220 1 0 callgsubr
          164 1 rmoveto
          92 hlineto
          hintmask 01100000
          -42 callgsubr
          hintmask 10100000
          19 callgsubr
          endchar
        </CharString>
        <CharString name="four.lnum">
          -57 22 -21 149 143 418 -20 hstem
          383 1 rmoveto
          32 149 rlineto
          84 hlineto
          30 143 rlineto
          -84 hlineto
          89 418 rlineto
          -110 hlineto
          -399 -418 -30 -143 rlineto
          260 hlineto
          -32 -149 rlineto
          -39 292 rmoveto
          157 178 -38 -178 rlineto
          endchar
        </CharString>
        <CharString name="four.numerator">
          -220 301 0 callgsubr
          319 301 rmoveto
          hintmask 01100000
          19 88 rlineto
          60 -26 callgsubr
        </CharString>
        <CharString name="fourinferior">
          -221 -86 0 callgsubr
          237 -86 rmoveto
          hintmask 01100000
          19 88 rlineto
          59 -26 callgsubr
        </CharString>
        <CharString name="foursuperior">
          -220 388 0 callgsubr
          338 388 rmoveto
          hintmask 01100000
          19 88 rlineto
          59 hlineto
          20 91 rlineto
          -60 hlineto
          54 251 rlineto
          -64 hlineto
          -288 -251 -20 45 callgsubr
          hintmask 10100000
          -18 -88 rlineto
          71 318 rmoveto
          -29 -139 rlineto
          -123 hlineto
          endchar
        </CharString>
        <CharString name="fraction">
          -407 12 -21 728 -20 hstem
          -176 -9 rmoveto
          -82 callsubr
          endchar
        </CharString>
        <CharString name="franc">
          -43 0 196 -105 105 84 133 153 144 hstemhm
          hintmask 10110000
          202 hmoveto
          hintmask 01110000
          19 91 rlineto
          103 hlineto
          22 105 rlineto
          -102 hlineto
          18 84 rlineto
          242 hlineto
          29 133 rlineto
          -243 hlineto
          33 153 rlineto
          294 hlineto
          32 144 rlineto
          -460 hlineto
          -109 -514 rlineto
          -68 hlineto
          -23 -105 rlineto
          68 hlineto
          hintmask 10110000
          -19 -91 rlineto
          endchar
        </CharString>
        <CharString name="g">
          -57 callsubr
          hstemhm
          12 167 hintmask 11011000
          6 callsubr
          hintmask 11101000
          -102 callgsubr
          endchar
        </CharString>
        <CharString name="gacute">
          -57 callsubr
          225 -20 hstemhm
          12 167 hintmask 11011100
          474 730 -95 callsubr
          -199 -809 -69 callgsubr
          hintmask 11101100
          -102 callgsubr
          endchar
        </CharString>
        <CharString name="gbreve">
          -57 callsubr
          78 -17 callgsubr
          12 167 49 86 hintmask 11011011
          6 callsubr
          hintmask 11101011
          -102 callgsubr
          91 528 -41 callsubr
          hintmask 11100111
          -98 callsubr
          hintmask 11101011
          -58 callsubr
        </CharString>
        <CharString name="gcircumflex">
          -57 callsubr
          225 -20 hstemhm
          12 167 hintmask 11011100
          270 586 -103 callgsubr
          -36 -845 -69 callgsubr
          hintmask 11101100
          -102 callgsubr
          endchar
        </CharString>
        <CharString name="gcommaaccent">
          -57 callsubr
          74 166 hstemhm
          12 167 hintmask 11011100
          361 745 rmoveto
          -61 -67 -21 -99 rlineto
          133 hlineto
          21 99 rlineto
          -47 hlineto
          45 67 rlineto
          -271 -968 -69 callgsubr
          hintmask 11101100
          -102 callgsubr
          endchar
        </CharString>
        <CharString name="gdotaccent">
          -57 callsubr
          88 137 hstemhm
          12 167 hintmask 11011100
          6 callsubr
          hintmask 11101100
          -102 callgsubr
          157 468 -100 callgsubr
          endchar
        </CharString>
        <CharString name="germandbls">
          -84 -6 147 -120 -21 319 143 117 135 hstemhm
          335 167 -139 160 hintmask 10111000
          178 -6 rmoveto
          152 2 172 65 194 vvcurveto
          72 -32 55 -55 21 vhcurveto
          hintmask 01110100
          51 21 57 75 80 vvcurveto
          84 -64 51 -96 -125 -113 -80 -109 -23 vhcurveto
          -112 -525 rlineto
          152 hlineto
          106 497 rlineto
          48 10 22 34 39 hhcurveto
          25 19 -16 -30 -32 -20 -39 -45 hvcurveto
          -19 hlineto
          -31 -143 rlineto
          21 hlineto
          hintmask 10111000
          31 35 -24 -46 -71 -58 -37 -68 hvcurveto
          endchar
        </CharString>
        <CharString name="grave">
          -366 605 -21 146 -20 hstem
          108 584 -83 callsubr
        </CharString>
        <CharString name="greater">
          -74 -12 -21 582 -20 hstem
          504 293 rmoveto
          -422 256 rlineto
          -170 vlineto
          190 -120 -190 -113 rlineto
          -179 vlineto
          422 250 rlineto
          endchar
        </CharString>
        <CharString name="greaterequal">
          -110 16 127 486 -20 hstem
          83 16 rmoveto
          366 127 -366 hlineto
          2 48 rmoveto
          362 153 rlineto
          118 vlineto
          -362 167 rlineto
          -154 vlineto
          199 -68 -199 -62 rlineto
          endchar
        </CharString>
        <CharString name="guillemotleft">
          33 -14 callsubr
          295 -76 rmoveto
          221 -178 27 129 -113 91 153 98 27 129 -299 -193 rlineto
          endchar
        </CharString>
        <CharString name="guillemotright">
          33 60 -21 447 -20 hstem
          623 293 rmoveto
          -217 193 -28 -13 callsubr
          -295 76 rmoveto
          -218 193 -27 -13 callsubr
          endchar
        </CharString>
        <CharString name="guilsinglleft">
          -279 -14 callsubr
          endchar
        </CharString>
        <CharString name="guilsinglright">
          -279 60 -21 447 -20 hstem
          312 293 rmoveto
          -218 193 -27 -13 callsubr
          endchar
        </CharString>
        <CharString name="h">
          -21 callgsubr
          5 callsubr
          hstem
          5 callgsubr
          vstem
          -10 hmoveto
          -84 callgsubr
          62 293 -85 callsubr
          endchar
        </CharString>
        <CharString name="hbar">
          -21 callgsubr
          50 94 -94 145 4 callsubr
          hintmask 11101000
          62 585 rmoveto
          52 hlineto
          -124 -585 rlineto
          -84 callgsubr
          31 148 rlineto
          92 hlineto
          20 94 rlineto
          -92 hlineto
          hintmask 11011000
          11 51 -85 callsubr
          hintmask 11101000
          -11 -51 rlineto
          -53 hlineto
          endchar
        </CharString>
        <CharString name="hcircumflex">
          -21 callgsubr
          194 -20 21 24 callgsubr
          hintmask 11101000
          375 587 rmoveto
          87 62 63 -62 82 35 -76 107 rlineto
          -106 hlineto
          -118 -107 rlineto
          -317 -622 rmoveto
          -84 callgsubr
          hintmask 11011000
          62 293 -85 callsubr
          endchar
        </CharString>
        <CharString name="hdotbelow">
          -35 53 callgsubr
          394 141 5 callsubr
          hstem
          5 callgsubr
          vstem
          -10 hmoveto
          -84 callgsubr
          62 293 -85 callsubr
          119 -934 -100 callgsubr
          endchar
        </CharString>
        <CharString name="hungarumlaut">
          -260 609 -21 142 -20 hstem
          198 730 -68 callgsubr
          endchar
        </CharString>
        <CharString name="hyphen">
          -226 203 144 hstem
          326 203 rmoveto
          31 144 rlineto
          -294 hlineto
          -31 -144 rlineto
          endchar
        </CharString>
        <CharString name="i">
          21 -58 callgsubr
          endchar
        </CharString>
        <CharString name="iacute">
          -34 callgsubr
          343 730 -95 callsubr
          -238 -586 rmoveto
          -74 callgsubr
          endchar
        </CharString>
        <CharString name="ibreve">
          -40 callsubr
          78 -17 callgsubr
          70 86 hintmask 11101000
          -59 callgsubr
          98 128 -41 callsubr
          hintmask 11011000
          -98 callsubr
          hintmask 11101000
          -58 callsubr
        </CharString>
        <CharString name="icircumflex">
          -34 callgsubr
          120 586 -103 callgsubr
          -56 -622 rmoveto
          -74 callgsubr
          endchar
        </CharString>
        <CharString name="idblgrave">
          -34 callgsubr
          264 584 -95 callgsubr
          -57 -730 rmoveto
          -74 callgsubr
          endchar
        </CharString>
        <CharString name="idieresis">
          -40 callsubr
          88 129 hstem
          159 593 -101 callgsubr
          -242 -593 rmoveto
          -74 callgsubr
          endchar
        </CharString>
        <CharString name="idotbelow">
          -204 137 88 -58 callgsubr
          -44 -934 -100 callgsubr
          endchar
        </CharString>
        <CharString name="igrave">
          21 -21 525 -20 225 -20 -25 callsubr
          51 59 -83 callsubr
        </CharString>
        <CharString name="iinvertedbreve">
          -40 callsubr
          78 -22 callgsubr
          261 84 hintmask 11101000
          60 44 callsubr
          hintmask 11011000
          -75 callsubr
          hintmask 11101000
          -96 callsubr
          -70 -583 rmoveto
          -74 callgsubr
          endchar
        </CharString>
        <CharString name="ij">
          -85 46 callgsubr
          85 -58 callgsubr
          48 -932 rmoveto
          108 97 84 121 26 hvcurveto
          110 522 -85 callsubr
          -113 -534 rlineto
          -34 -7 -25 -21 -27 hhcurveto
          -18 -17 7 14 -9 hvcurveto
          -90 -109 rlineto
          -33 30 45 -17 50 hhcurveto
          194 787 rmoveto
          -59 callsubr
          31 145 -85 callsubr
          endchar
        </CharString>
        <CharString name="imacron">
          -40 callsubr
          115 97 -25 callsubr
          243 95 -65 callsubr
          endchar
        </CharString>
        <CharString name="infinity">
          113 158 119 148 120 hstem
          52 119 417 119 vstem
          226 545 rmoveto
          -99 -75 -86 -107 -106 86 -88 88 85 41 35 41 30 hvcurveto
          -41 31 41 -35 79 hhcurveto
          99 75 86 107 106 -68 88 -105 -83 -39 -39 -46 -32 hvcurveto
          46 -32 -40 39 -82 hhcurveto
          14 -268 rmoveto
          -33 -36 22 53 52 36 21 33 47 22 -34 -41 22 hvcurveto
          -40 -22 -23 -33 -46 hhcurveto
          280 hmoveto
          -46 -23 31 38 -20 hvcurveto
          43 19 21 36 49 hhcurveto
          33 35 -21 -52 -53 -35 -22 -33 hvcurveto
          endchar
        </CharString>
        <CharString name="integral">
          -240 -167 133 721 133 hstemhm
          101 159 -123 159 hintmask 11010000
          133 102 rmoveto
          -9 4 -71 -1 vvcurveto
          -35 -18 -20 -31 -14 -17 6 8 -16 vhcurveto
          -24 -117 rlineto
          -18 41 57 -12 44 hhcurveto
          88 49 45 84 3 -4 91 -1 14 hvcurveto
          -27 488 rlineto
          hintmask 11100000
          14 -4 61 5 vvcurveto
          32 19 17 31 13 18 -6 -8 15 vhcurveto
          25 117 rlineto
          18 -42 -57 12 -44 hhcurveto
          -88 -49 -45 -78 -5 4 -90 1 -16 hvcurveto
          endchar
        </CharString>
        <CharString name="iogonek">
          -184 -21 226 61 callsubr
          hstem
          -44 105 vstem
          -10 hmoveto
          72 -6 callsubr
          112 525 -85 callsubr
          12 60 rmoveto
          -59 callsubr
          31 145 -85 callsubr
          endchar
        </CharString>
        <CharString name="itilde">
          -40 callsubr
          83 -47 callgsubr
          hintmask 11101000
          -59 callgsubr
          158 63 -89 callgsubr
          hintmask 11010000
          -92 callgsubr
          hintmask 11101000
          -54 callgsubr
        </CharString>
        <CharString name="j">
          -353 46 callgsubr
          589 -20 80 145 hstem
          -75 55 callgsubr
          110 522 -85 callsubr
          -113 -534 rlineto
          -34 -7 -25 -21 -27 hhcurveto
          -18 -17 7 14 -9 hvcurveto
          -90 -109 rlineto
          -33 30 45 -17 50 hhcurveto
          194 787 rmoveto
          -59 callsubr
          31 145 -85 callsubr
          endchar
        </CharString>
        <CharString name="j.alt">
          -192 -21 798 143 hstem
          -55 -213 rmoveto
          -59 callsubr
          155 730 -85 callsubr
          14 68 rmoveto
          -59 callsubr
          30 143 rlineto
          -159 hlineto
          endchar
        </CharString>
        <CharString name="jcircumflex">
          46 callgsubr
          589 -20 225 -39 callgsubr
          192 788 -70 callgsubr
        </CharString>
        <CharString name="k">
          -56 21 -21 395 136 199 -20 hstem
          404 144 vstem
          -10 hmoveto
          -55 callsubr
        </CharString>
        <CharString name="kcommaaccent">
          -56 23 callgsubr
          395 136 199 -20 hstem
          404 144 vstem
          215 -90 callgsubr
          -155 213 rmoveto
          -55 callsubr
        </CharString>
        <CharString name="kgreenlandic">
          -76 53 callsubr
          -10 hmoveto
          -59 callsubr
          33 153 61 58 80 -211 rlineto
          170 hlineto
          -130 299 225 226 rlineto
          -168 hlineto
          -206 -218 47 218 -85 callsubr
          endchar
        </CharString>
        <CharString name="l">
          -300 -9 65 callgsubr
          126 -9 rmoveto
          44 58 12 18 43 hvcurveto
          5 120 rlineto
          -9 -17 -21 -5 -15 hhcurveto
          -25 -13 14 25 6 1 8 1 7 hvcurveto
          116 543 -85 callsubr
          -127 -599 rlineto
          -3 -16 -2 -13 -13 vvcurveto
          -63 40 -35 75 vhcurveto
          endchar
        </CharString>
        <CharString name="l.alt">
          -355 21 -21 730 -20 hstem
          -8 hmoveto
          -59 callsubr
          155 730 -85 callsubr
          endchar
        </CharString>
        <CharString name="lacute">
          -300 -9 136 603 -20 181 34 callgsubr
          373 891 -95 callsubr
          -132 -756 rmoveto
          44 58 12 18 43 hvcurveto
          5 120 rlineto
          -9 -17 -21 -5 -15 hhcurveto
          -25 -13 14 25 6 1 8 1 7 hvcurveto
          116 543 -85 callsubr
          -127 -599 rlineto
          -3 -16 -2 -13 -13 vvcurveto
          -63 40 -35 75 vhcurveto
          endchar
        </CharString>
        <CharString name="lcaron">
          -303 -9 65 callgsubr
          409 -49 callgsubr
          -187 -609 rmoveto
          44 58 12 18 43 hvcurveto
          5 120 rlineto
          -9 -17 -21 -5 -15 hhcurveto
          -25 -13 14 25 6 1 8 1 7 hvcurveto
          116 543 -85 callsubr
          -127 -599 rlineto
          -3 -16 -2 -13 -13 vvcurveto
          -63 40 -35 75 vhcurveto
          endchar
        </CharString>
        <CharString name="lcommaaccent">
          -300 -3 callgsubr
          38 65 callgsubr
          89 -90 callgsubr
          107 204 rmoveto
          44 58 12 18 43 hvcurveto
          5 120 rlineto
          -9 -17 -21 -5 -15 hhcurveto
          -25 -13 14 25 6 1 8 1 7 hvcurveto
          116 543 -85 callsubr
          -127 -599 rlineto
          -3 -16 -2 -13 -13 vvcurveto
          -63 40 -35 75 vhcurveto
          endchar
        </CharString>
        <CharString name="ldot">
          -195 -9 136 137 166 300 34 callgsubr
          126 -9 rmoveto
          44 58 12 18 43 hvcurveto
          5 120 rlineto
          -9 -17 -21 -5 -15 hhcurveto
          -25 -13 14 25 6 1 8 1 7 hvcurveto
          116 543 -85 callsubr
          -127 -599 rlineto
          -3 -16 -2 -13 -13 vvcurveto
          -63 40 -35 75 vhcurveto
          283 273 -19 callgsubr
        </CharString>
        <CharString name="less">
          -74 -12 -21 582 -20 hstem
          29 217 rmoveto
          422 -250 rlineto
          179 vlineto
          -190 113 190 120 rlineto
          170 vlineto
          -422 -256 rlineto
          endchar
        </CharString>
        <CharString name="lessequal">
          -140 16 127 486 -20 hstem
          415 16 rmoveto
          127 -366 -127 vlineto
          2 328 rmoveto
          362 -153 rlineto
          154 vlineto
          -199 62 199 68 rlineto
          154 vlineto
          -362 -167 rlineto
          endchar
        </CharString>
        <CharString name="lira">
          -93 -15 136 -105 105 -105 121 69 100 39 100 141 129 hstemhm
          128 140 hintmask 01011110
          50 345 rmoveto
          100 hlineto
          1 -10 1 -10 -10 -3 -1 -3 -3 vvcurveto
          -109 hlineto
          -22 -100 rlineto
          97 hlineto
          -24 -38 -34 -35 -41 -28 8 -114 rcurveline
          15 48 53 10 35 hhcurveto
          hintmask 10011110
          63 58 -31 58 hhcurveto
          37 48 13 19 33 hvcurveto
          -13 118 rlineto
          -9 -28 -18 -5 -22 hhcurveto
          hintmask 00111110
          -42 -37 16 -43 hhcurveto
          -21 -24 -4 -10 -31 hvcurveto
          33 30 24 27 17 26 rrcurveto
          124 hlineto
          22 100 rlineto
          -109 hlineto
          8 1 8 8 vvcurveto
          5 0 5 -1 5 vhcurveto
          117 hlineto
          21 100 63 callsubr
          -4 19 -3 17 17 vvcurveto
          51 36 37 46 43 49 -32 -42 22 vhcurveto
          103 98 rlineto
          66 -38 -69 39 -81 hhcurveto
          -129 -122 -95 -120 -18 2 -19 3 -18 hvcurveto
          -62 hlineto
          endchar
        </CharString>
        <CharString name="logicalnot">
          -24 119 -21 173 144 hstem
          76 415 rmoveto
          -18 callgsubr
          353 hlineto
          -37 -173 rlineto
          135 hlineto
          67 317 rlineto
          endchar
        </CharString>
        <CharString name="lozenge">
          -37 20 -21 730 -20 hstem
          219 729 rmoveto
          -186 -364 186 -366 rlineto
          179 hlineto
          186 366 -186 364 rlineto
          -82 -622 rmoveto
          -133 267 124 245 134 -266 rlineto
          endchar
        </CharString>
        <CharString name="lslash">
          -259 -9 136 603 -20 hstem
          50 174 vstem
          26 261 rmoveto
          63 31 -34 -161 rlineto
          -3 -15 -2 -14 -13 vvcurveto
          -63 41 -35 75 43 58 12 18 44 vhcurveto
          5 120 rlineto
          -9 -17 -22 -5 -14 hhcurveto
          -26 -13 14 25 7 2 9 2 11 hvcurveto
          40 189 116 58 -20 86 -73 -37 51 241 -85 callsubr
          -70 -331 -105 -52 rlineto
          endchar
        </CharString>
        <CharString name="m">
          271 -15 callsubr
          -10 -20 hstemhm
          691 174 hintmask 11010000
          -10 hmoveto
          -55 callgsubr
          53 28 50 40 38 hhcurveto
          27 26 callsubr
          63 -8 callgsubr
          53 28 50 40 39 hhcurveto
          26 26 callsubr
          72 336 rlineto
          8 37 2 26 16 vvcurveto
          64 -26 56 -92 -75 -73 -37 -65 -52 vhcurveto
          58 -4 -30 44 -85 hhcurveto
          -76 -77 -36 -62 -48 hvcurveto
          hintmask 10110000
          -23 callgsubr
        </CharString>
        <CharString name="macron">
          -216 620 97 hstem
          350 620 -65 callsubr
          endchar
        </CharString>
        <CharString name="minus">
          -77 277 127 hstem
          483 277 68 callsubr
        </CharString>
        <CharString name="mu">
          24 26 callgsubr
          -44 -213 rmoveto
          -59 callsubr
          43 251 rlineto
          -29 2 20 -19 37 hhcurveto
          59 74 62 39 23 hvcurveto
          -3 -14 0 -18 -3 vvcurveto
          hintmask 10110000
          -42 28 -22 56 18 57 callsubr
          -9 7 18 vvcurveto
          -21 callsubr
          1 7 vhcurveto
          73 345 -85 callsubr
          -68 -324 rlineto
          hintmask 11010000
          -55 -41 -43 -21 -32 hhcurveto
          -36 -17 24 callsubr
        </CharString>
        <CharString name="multiply">
          -130 103 -21 384 -20 hstem
          339 277 rmoveto
          90 90 -99 99 -90 -90 -90 90 -100 -99 90 -91 -95 -95 99 -99 95 95 96 -95 100 99 rlineto
          endchar
        </CharString>
        <CharString name="n">
          -22 callsubr
          hstemhm
          385 173 hintmask 11010000
          -10 hmoveto
          -55 callgsubr
          -97 callgsubr
          hintmask 10110000
          -23 callgsubr
        </CharString>
        <CharString name="nacute">
          -22 callsubr
          225 24 callgsubr
          hintmask 11011000
          501 730 -95 callsubr
          -396 -586 rmoveto
          -55 callgsubr
          -97 callgsubr
          hintmask 10111000
          -23 callgsubr
        </CharString>
        <CharString name="napostrophe">
          -22 callsubr
          225 24 callgsubr
          hintmask 11011000
          21 29 callgsubr
          64 -600 rmoveto
          -55 callgsubr
          -97 callgsubr
          hintmask 10111000
          -23 callgsubr
        </CharString>
        <CharString name="ncaron">
          -22 callsubr
          30 51 144 24 callgsubr
          hintmask 10111100
          291 586 -92 callsubr
          -219 -693 rmoveto
          -55 callgsubr
          hintmask 11001100
          -97 callgsubr
          hintmask 10111100
          -23 callgsubr
        </CharString>
        <CharString name="ncommaaccent">
          -35 23 callgsubr
          394 141 -10 24 callgsubr
          hintmask 11101000
          209 -90 callgsubr
          -149 213 rmoveto
          -55 callgsubr
          -97 callgsubr
          hintmask 11011000
          -23 callgsubr
        </CharString>
        <CharString name="ndotaccent">
          -22 callsubr
          88 137 4 callsubr
          hintmask 11011000
          422 593 -100 callgsubr
          -288 -593 rmoveto
          -55 callgsubr
          -97 callgsubr
          hintmask 10111000
          -23 callgsubr
        </CharString>
        <CharString name="nine">
          -52 -155 139 104 126 222 135 hstem
          31 155 200 147 vstem
          169 -155 rmoveto
          215 149 217 270 149 -69 90 -125 -162 -146 -134 -157 -110 75 -82 117 51 45 21 36 34 hvcurveto
          -102 -25 -57 -59 -70 hhcurveto
          -48 -41 47 callgsubr
          83 hhcurveto
          94 369 rmoveto
          -46 -31 38 50 70 65 64 59 45 31 -41 -51 -70 -61 -60 -62 hvcurveto
          endchar
        </CharString>
        <CharString name="nine.denominator">
          -205 -6 88 58 82 126 86 hstem
          21 90 182 85 vstem
          130 -6 rmoveto
          29 callsubr
          -95 -68 57 -52 89 36 46 11 21 24 hvcurveto
          -57 -14 -47 -33 -60 hhcurveto
          -40 -35 15 24 -16 hvcurveto
          -67 -65 rlineto
          -40 27 49 -22 60 hhcurveto
          59 228 rmoveto
          -44 -34 23 31 38 52 34 53 44 33 -26 -31 -38 -50 -31 -54 hvcurveto
          endchar
        </CharString>
        <CharString name="nine.lnum">
          -33 -10 139 103 127 222 135 hstem
          70 157 200 146 vstem
          70 425 rmoveto
          -110 76 -83 117 52 45 21 37 33 vhcurveto
          -102 -25 -56 -59 -71 hhcurveto
          -48 -40 47 callgsubr
          82 hhcurveto
          216 148 217 270 149 -68 90 -125 -163 -147 -134 -157 hvcurveto
          281 156 rmoveto
          45 31 -41 -51 -71 -62 -59 -61 -46 -31 38 50 70 64 64 60 hvcurveto
          endchar
        </CharString>
        <CharString name="nine.numerator">
          -205 290 88 59 81 126 86 hstem
          84 90 183 84 vstem
          84 557 rmoveto
          -69 56 -51 90 36 46 11 20 24 vhcurveto
          -56 -14 -46 -34 -61 hhcurveto
          -40 -35 15 24 -16 hvcurveto
          -67 -64 rlineto
          -41 27 50 -22 59 hhcurveto
          29 callsubr
          -94 hvcurveto
          195 87 rmoveto
          44 34 -26 -31 -38 -51 -31 -54 -44 -34 24 30 38 52 34 53 hvcurveto
          endchar
        </CharString>
        <CharString name="nineinferior">
          -205 -93 88 58 82 126 86 hstem
          2 91 182 84 vstem
          2 173 rmoveto
          -68 57 -52 90 36 45 11 21 24 vhcurveto
          -57 -13 -47 -33 -60 hhcurveto
          -41 -34 15 24 -16 hvcurveto
          -67 -65 rlineto
          -40 26 50 -22 59 hhcurveto
          148 100 122 164 96 -51 58 -91 -114 -101 -79 -95 hvcurveto
          195 88 58 callsubr
          23 31 37 51 35 53 hvcurveto
          endchar
        </CharString>
        <CharString name="ninesuperior">
          -204 377 88 59 81 126 86 hstem
          102 91 182 84 vstem
          102 644 rmoveto
          -69 57 -51 90 36 45 11 20 24 vhcurveto
          -56 -13 -47 -34 -61 hhcurveto
          -40 -34 15 25 -16 hvcurveto
          -67 -65 rlineto
          -41 27 49 -22 59 hhcurveto
          148 100 122 164 96 -52 58 -90 -114 -101 -79 -94 hvcurveto
          195 87 58 callsubr
          24 30 38 51 34 53 hvcurveto
          endchar
        </CharString>
        <CharString name="notequal">
          -157 29 -21 123 102 86 102 128 -20 hstem
          69 319 rmoveto
          143 hlineto
          -42 -86 rlineto
          -101 -102 51 hlineto
          -46 -94 57 -29 60 123 rlineto
          196 102 -146 hlineto
          42 86 rlineto
          104 102 -54 hlineto
          48 97 -57 31 -63 -128 rlineto
          -192 hlineto
          endchar
        </CharString>
        <CharString name="ntilde">
          -22 callsubr
          83 92 -46 94 2 24 callgsubr
          hintmask 11010110
          -10 hmoveto
          -55 callgsubr
          -97 callgsubr
          hintmask 10110110
          19 88 -77 callsubr
          315 63 -89 callgsubr
          hintmask 11001010
          -92 callgsubr
          hintmask 11010110
          -54 callgsubr
        </CharString>
        <CharString name="numbersign">
          82 21 -21 179 119 114 110 188 -20 hstem
          720 522 rmoveto
          -119 hlineto
          84 188 rlineto
          -128 hlineto
          -82 -188 rlineto
          -79 hlineto
          84 188 rlineto
          -128 hlineto
          -83 -188 rlineto
          -139 hlineto
          -24 -110 rlineto
          112 hlineto
          -48 -114 rlineto
          -135 hlineto
          -25 -119 rlineto
          106 hlineto
          -79 -179 rlineto
          128 hlineto
          78 179 rlineto
          79 hlineto
          -80 -179 rlineto
          128 hlineto
          79 179 rlineto
          151 hlineto
          25 119 rlineto
          -122 hlineto
          47 114 rlineto
          146 hlineto
          -399 -114 rmoveto
          48 114 rlineto
          78 hlineto
          -47 -114 rlineto
          endchar
        </CharString>
        <CharString name="o">
          -35 -10 -66 callgsubr
          hstem
          -38 callsubr
          vstem
          -73 callgsubr
          endchar
        </CharString>
        <CharString name="oacute">
          -62 callsubr
          510 730 -95 callsubr
          -166 -596 rmoveto
          -105 callsubr
          endchar
        </CharString>
        <CharString name="obreve">
          -35 -10 -66 callgsubr
          48 -17 callgsubr
          11 167 61 86 71 167 hintmask 11101110
          -73 callgsubr
          111 528 -41 callsubr
          hintmask 11011110
          -98 callsubr
          hintmask 11101110
          -58 callsubr
        </CharString>
        <CharString name="ocircumflex">
          -62 callsubr
          283 586 -103 callgsubr
          20 -632 rmoveto
          -105 callsubr
          endchar
        </CharString>
        <CharString name="odblgrave">
          -62 callsubr
          423 584 -95 callgsubr
          23 -740 rmoveto
          -105 callsubr
          endchar
        </CharString>
        <CharString name="odieresis">
          -35 -10 -66 callgsubr
          58 129 hstem
          -38 callsubr
          vstem
          326 593 -101 callgsubr
          -170 -603 rmoveto
          -105 callsubr
          endchar
        </CharString>
        <CharString name="odotbelow">
          -35 -29 callgsubr
          57 -66 callgsubr
          hstem
          -38 callsubr
          vstem
          267 -56 callgsubr
          106 194 rmoveto
          -105 callsubr
          endchar
        </CharString>
        <CharString name="oe">
          330 -10 112 -112 135 88 97 89 136 -115 115 hstemhm
          11 167 218 154 225 162 hintmask 10110111
          228 -10 rmoveto
          71 58 30 70 80 hvcurveto
          -68 51 47 -32 72 hhcurveto
          107 103 54 86 60 hvcurveto
          -124 38 rlineto
          -38 -21 -50 -28 -46 hhcurveto
          -51 -35 38 53 -21 callsubr
          1 8 hvcurveto
          363 hlineto
          9 20 13 32 50 vvcurveto
          129 -82 91 -133 -78 -65 -34 -72 -70 vhcurveto
          69 -33 -54 37 -80 hhcurveto
          -178 -153 -144 -183 -127 83 -91 134 hvcurveto
          hintmask 01110111
          30 135 rmoveto
          -50 -30 42 60 95 64 77 74 50 30 -42 -60 -95 -63 -77 -75 hvcurveto
          310 185 rmoveto
          hintmask 10101111
          65 18 51 45 56 hhcurveto
          50 32 -36 -56 -5 -1 -6 -1 -7 hvcurveto
          endchar
        </CharString>
        <CharString name="ogonek">
          -326 -183 -21 227 -20 hstem
          42 105 vstem
          154 -204 27 callgsubr
          -43 22 rlineto
          -100 -44 -51 -53 -48 -45 callgsubr
          endchar
        </CharString>
        <CharString name="ograve">
          -62 callsubr
          -73 callgsubr
          69 459 -83 callsubr
        </CharString>
        <CharString name="ohungarumlaut">
          -62 callsubr
          405 730 -68 callgsubr
          -240 -598 rmoveto
          -105 callsubr
          endchar
        </CharString>
        <CharString name="oinvertedbreve">
          -35 -10 -66 callgsubr
          48 -22 callgsubr
          -38 callsubr
          -140 84 hintmask 11101100
          222 44 callsubr
          hintmask 11011010
          -75 callsubr
          hintmask 11101010
          -96 callsubr
          7 -593 rmoveto
          hintmask 11101100
          -105 callsubr
          endchar
        </CharString>
        <CharString name="omacron">
          -35 -10 -66 callgsubr
          85 97 hstem
          -38 callsubr
          vstem
          512 620 -65 callsubr
          7 -630 rmoveto
          -105 callsubr
          endchar
        </CharString>
        <CharString name="one">
          -123 0 144 427 -20 hstem
          -2 hmoveto
          419 hlineto
          31 144 rlineto
          -121 hlineto
          90 427 rlineto
          -163 hlineto
          -27 -19 -114 -68 -41 hhcurveto
          -31 -148 rlineto
          49 91 40 31 29 hvcurveto
          -55 -255 rlineto
          -135 hlineto
          endchar
        </CharString>
        <CharString name="one.denominator">
          -287 0 91 343 -20 hstem
          -17 hmoveto
          277 hlineto
          18 91 rlineto
          -87 hlineto
          15 callgsubr
          -51 -243 rlineto
          -96 hlineto
          endchar
        </CharString>
        <CharString name="one.lnum">
          -124 0 144 329 147 96 -20 hstem
          0 vmoveto
          417 hlineto
          31 144 rlineto
          -121 hlineto
          122 572 -79 callsubr
          -4 -2 -105 -92 -68 hhcurveto
          -32 -147 rlineto
          51 96 55 31 27 hvcurveto
          -88 -415 rlineto
          -134 hlineto
          endchar
        </CharString>
        <CharString name="one.numerator">
          -326 297 92 342 -20 hstem
          232 389 -82 callgsubr
          endchar
        </CharString>
        <CharString name="oneeighth">
          251 33 callsubr
          33 92 -49 90 301 -20 hstemhm
          447 2 callgsubr
          hintmask 0110111010000000
          139 -9 rmoveto
          -82 callsubr
          hintmask 1011011010000000
          159 333 -82 callgsubr
          293 -395 -24 callgsubr
          hintmask 1010111001000000
          -19 callsubr
          vhcurveto
          hintmask 1011010110000000
          -84 -105 -55 -78 -33 21 -22 26 -12 hvcurveto
          hintmask 1011011010000000
          -81 callsubr
          hintmask 1010110101000000
          -57 callgsubr
          endchar
        </CharString>
        <CharString name="onehalf">
          255 0 91 -79 -21 306 92 -45 91 296 -20 hstemhm
          740 104 hintmask 10011100
          438 hmoveto
          342 hlineto
          19 91 rlineto
          -195 hlineto
          7 29 31 22 54 17 rrcurveto
          72 23 76 41 102 vvcurveto
          70 -47 40 -87 -92 -73 -37 -32 -31 vhcurveto
          hintmask 10101100
          43 -69 rlineto
          hintmask 10011100
          23 66 callgsubr
          -70 -19 -69 -28 hvcurveto
          -103 -43 -38 -50 -22 -111 rrcurveto
          hintmask 01101100
          -313 -9 rmoveto
          -82 callsubr
          171 333 -82 callgsubr
          endchar
        </CharString>
        <CharString name="oneinferior">
          -287 -87 91 343 -20 hstem
          172 4 rmoveto
          15 callgsubr
          -52 -243 rlineto
          -95 hlineto
          -20 -91 rlineto
          277 hlineto
          19 91 rlineto
          endchar
        </CharString>
        <CharString name="onequarter">
          222 1 179 -168 -21 98 91 117 92 342 -20 hstemhm
          hintmask 10011000
          597 1 rmoveto
          92 hlineto
          hintmask 01111000
          -42 callgsubr
          hintmask 10011000
          19 callgsubr
          hintmask 01111000
          -478 -189 rmoveto
          -82 callsubr
          136 333 -82 callgsubr
          endchar
        </CharString>
        <CharString name="onesuperior">
          -327 384 92 342 -20 hstem
          250 476 rmoveto
          73 342 rlineto
          -94 hlineto
          -2 -1 -61 -56 -39 hhcurveto
          -20 -93 rlineto
          30 53 33 19 17 hvcurveto
          -51 -243 rlineto
          -73 hlineto
          -20 -92 rlineto
          231 hlineto
          20 92 rlineto
          endchar
        </CharString>
        <CharString name="onethird">
          245 -6 94 -76 -21 190 85 31 92 -40 87 295 -20 hstemhm
          705 94 70 callgsubr
          hintmask 0111011000000000
          127 -9 rmoveto
          -82 callsubr
          171 333 -82 callgsubr
          hintmask 1011010100000000
          282 -395 -46 callsubr
          hintmask 1010110010000000
          25 callsubr
          -64 -72 -20 -38 -39 vhcurveto
          42 -76 -36 callgsubr
          hintmask 1011011000000000
          -36 callsubr
          endchar
        </CharString>
        <CharString name="oogonek">
          -36 -188 -21 608 136 hstemhm
          11 167 -81 105 194 167 hintmask 11011000
          209 -209 rmoveto
          -60 callgsubr
          26 29 28 58 33 vhcurveto
          166 28 108 146 147 vvcurveto
          119 -73 100 -145 vhcurveto
          hintmask 11101000
          -200 -134 -161 -165 -110 61 -94 124 -13 hvcurveto
          hintmask 11011000
          -66 -38 -33 -42 3 callgsubr
          49 334 rmoveto
          hintmask 11101000
          -49 -31 41 62 96 66 75 72 49 31 -41 -62 -96 -66 -75 -72 hvcurveto
          endchar
        </CharString>
        <CharString name="ordfeminine">
          -197 337 82 -62 -21 175 63 62 78 hstemhm
          65 108 135 111 hintmask 01111100
          158 336 rmoveto
          45 45 23 42 39 hvcurveto
          -1 -5 0 -12 -1 vvcurveto
          hintmask 10111100
          -30 17 -16 41 13 19 2 4 19 vhcurveto
          21 97 rlineto
          -15 1 -7 5 13 vvcurveto
          4 1 4 1 5 vhcurveto
          18 89 rlineto
          3 15 2 15 13 vvcurveto
          72 -47 38 -87 -55 -51 -15 -32 -51 vhcurveto
          18 -71 rlineto
          26 42 33 14 37 hhcurveto
          35 15 -14 -28 -6 -1 -6 -1 -8 hvcurveto
          -3 -15 rlineto
          10 -16 -24 5 -28 hhcurveto
          -94 -76 -61 -83 hvcurveto
          hintmask 01111100
          -54 37 -40 56 vhcurveto
          hintmask 10111100
          51 83 rmoveto
          -21 -15 15 20 32 32 25 37 15 20 -4 -8 13 hvcurveto
          -7 -33 rlineto
          -24 -6 -41 -23 -27 hhcurveto
          endchar
        </CharString>
        <CharString name="ordmasculine">
          -200 336 97 184 97 hstem
          75 116 137 116 vstem
          219 336 rmoveto
          137 88 114 114 82 -47 39 callsubr
          hvcurveto
          21 97 rmoveto
          -30 -19 27 40 65 42 52 46 31 18 -27 -41 -64 -42 -52 -46 hvcurveto
          endchar
        </CharString>
        <CharString name="oslash">
          40 callgsubr
          hstemhm
          11 167 219 166 hintmask 01101100
          -33 -5 rmoveto
          86 hlineto
          39 36 rlineto
          hintmask 10011100
          -7 callsubr
          hintmask 01101100
          16 callsubr
          hintmask 10101100
          -43 callsubr
          endchar
        </CharString>
        <CharString name="oslashacute">
          40 callgsubr
          220 -20 hstemhm
          11 167 219 166 hintmask 01101110
          -33 -5 rmoveto
          86 hlineto
          39 36 rlineto
          hintmask 10011110
          -7 callsubr
          hintmask 01101110
          16 callsubr
          hintmask 10101110
          -43 callsubr
          329 502 -52 callsubr
        </CharString>
        <CharString name="otilde">
          -35 -10 -66 callgsubr
          53 -47 callgsubr
          -38 callsubr
          hintmask 11101110
          -73 callgsubr
          164 463 -89 callgsubr
          hintmask 11010110
          -92 callgsubr
          hintmask 11101110
          -54 callgsubr
        </CharString>
        <CharString name="p">
          -8 -192 -21 203 32 callsubr
          423 167 hintmask 11101000
          -56 -213 rmoveto
          -59 callsubr
          64 298 rlineto
          -59 17 50 -36 74 hhcurveto
          148 133 155 176 121 -69 93 -113 -75 -62 -36 -59 -49 hvcurveto
          hintmask 11011000
          19 85 rlineto
          -140 hlineto
          182 -400 rmoveto
          -44 -34 41 53 -9 hvcurveto
          23 108 rlineto
          hintmask 11101000
          44 31 44 28 39 hhcurveto
          56 34 -44 -60 -86 -68 -84 -72 hvcurveto
          endchar
        </CharString>
        <CharString name="paragraph">
          31 -59 -21 671 119 hstem
          61 134 vstem
          61 387 rmoveto
          -112 58 -76 99 vhcurveto
          -60 -279 rlineto
          136 hlineto
          59 279 rlineto
          36 hlineto
          -59 -279 rlineto
          135 hlineto
          143 671 rlineto
          67 hlineto
          25 119 rlineto
          -307 hlineto
          -204 -128 -127 -196 hvcurveto
          134 12 rmoveto
          96 51 91 56 5 vhcurveto
          -59 -274 rlineto
          -28 4 -20 31 47 vvcurveto
          220 -82 rmoveto
          -37 hlineto
          58 274 rlineto
          38 hlineto
          endchar
        </CharString>
        <CharString name="parenleft">
          -307 -38 -21 823 -20 hstem
          31 150 vstem
          31 265 rmoveto
          -108 31 -123 39 -93 vhcurveto
          130 57 rlineto
          -30 92 -20 100 83 vvcurveto
          126 81 154 124 161 vhcurveto
          -111 50 rlineto
          -136 -176 -108 -149 -174 vvcurveto
          endchar
        </CharString>
        <CharString name="parenright">
          -308 -38 -21 823 -20 hstem
          157 151 vstem
          308 431 rmoveto
          103 -30 121 -37 109 vhcurveto
          -133 -50 rlineto
          16 -45 33 -130 -114 vvcurveto
          -152 -86 -124 -111 -151 vhcurveto
          104 -57 rlineto
          125 148 119 162 180 vvcurveto
          endchar
        </CharString>
        <CharString name="partialdiff">
          -50 -10 120 211 119 144 132 hstemhm
          18 153 208 165 -146 146 hintmask 11110100
          256 -10 rmoveto
          176 112 148 246 219 -90 113 -156 -77 -71 -27 -47 -55 hvcurveto
          87 -92 rlineto
          21 25 44 13 35 hhcurveto
          77 35 -60 -135 hvcurveto
          33 -23 -42 18 -53 hhcurveto
          -136 -126 -103 -135 -120 100 -92 138 hvcurveto
          10 120 rmoveto
          -53 -42 44 56 61 51 50 60 hvcurveto
          hintmask 11111000
          55 42 -41 -54 -61 -55 -55 -58 hvcurveto
          endchar
        </CharString>
        <CharString name="percent">
          164 50 callgsubr
          88 51 callsubr
          -33 51 callsubr
          hintmask 11111101
          223 411 rmoveto
          103 97 83 97 72 -54 57 -81 -103 -97 -83 -97 -72 54 -57 81 hvcurveto
          16 78 rmoveto
          -24 -16 26 32 50 38 45 35 24 16 -25 -33 -50 -38 -45 -35 hvcurveto
          286 -499 rmoveto
          104 96 83 97 72 -54 57 -80 hvcurveto
          hintmask 11111011
          -104 -97 -83 -97 -72 54 -57 81 hvcurveto
          17 78 rmoveto
          -25 -16 25 33 50 38 45 35 24 16 -26 -32 -50 -38 -45 -34 hvcurveto
          -432 11 callsubr
        </CharString>
        <CharString name="period">
          -388 20 callsubr
          endchar
        </CharString>
        <CharString name="periodcentered">
          -388 240 166 hstem
          171 240 -19 callgsubr
        </CharString>
        <CharString name="perthousand">
          542 50 callgsubr
          92 51 callsubr
          -33 51 callsubr
          41 112 113 111 hintmask 1111110111000000
          228 411 rmoveto
          101 98 83 97 72 -53 57 -84 -100 -98 -83 -97 -72 53 -57 83 hvcurveto
          16 78 rmoveto
          -25 -16 26 32 50 38 45 33 26 16 -25 -33 -50 -39 -45 -33 hvcurveto
          287 -499 rmoveto
          101 97 83 97 72 -53 57 -83 hvcurveto
          hintmask 1111101111000000
          -101 -98 -83 -97 -72 53 11 callgsubr
          362 -78 rmoveto
          100 98 83 97 72 -53 57 -84 -101 -98 -83 -98 -71 54 11 callgsubr
          -809 11 callsubr
        </CharString>
        <CharString name="pi">
          99 0 127 -115 -21 395 136 hstemhm
          121 158 103 159 hintmask 01111000
          525 -9 rmoveto
          44 57 12 18 41 hvcurveto
          -22 120 rlineto
          hintmask 10111000
          -9 -16 -20 -5 -16 hhcurveto
          -34 -18 21 39 hvcurveto
          199 89 136 -582 -136 73 -386 158 386 103 -255 vlineto
          hintmask 01111000
          -90 52 -50 91 vhcurveto
          endchar
        </CharString>
        <CharString name="plus">
          -193 208 -21 104 128 104 -20 hstem
          154 144 vstem
          298 419 rmoveto
          104 -144 -104 -94 -128 94 -104 144 104 95 128 vlineto
          endchar
        </CharString>
        <CharString name="plusminus">
          -101 16 127 175 127 121 -20 hstem
          180 144 vstem
          434 16 rmoveto
          127 -366 -127 vlineto
          256 429 rmoveto
          121 -144 -121 -111 -127 111 -121 144 121 111 127 vlineto
          endchar
        </CharString>
        <CharString name="product">
          136 -69 -21 664 136 hstem
          150 155 190 156 vstem
          495 -90 rmoveto
          156 664 80 136 -661 -136 80 -664 155 664 190 hlineto
          endchar
        </CharString>
        <CharString name="q">
          -8 -192 -21 203 32 callsubr
          11 167 hintmask 11011000
          176 -10 rmoveto
          73 64 33 62 45 hvcurveto
          -41 -195 rlineto
          -2 -7 -1 -7 -8 vvcurveto
          -50 40 -31 55 24 35 3 5 29 vhcurveto
          29 136 rlineto
          -24 1 -10 7 18 vvcurveto
          5 1 6 2 7 vhcurveto
          117 550 -8 callsubr
          hvcurveto
          91 135 -3 callsubr
        </CharString>
        <CharString name="q.alt">
          -8 -193 -21 204 32 callsubr
          11 167 hintmask 11011000
          295 -214 rmoveto
          -59 callsubr
          157 739 -8 callsubr
          73 64 33 62 45 hvcurveto
          -91 40 -3 callsubr
        </CharString>
        <CharString name="question">
          -150 0 150 440 129 hstem
          347 144 vstem
          223 245 rmoveto
          11 57 70 18 60 36 rrcurveto
          71 42 56 50 113 vvcurveto
          113 -83 45 -84 -90 -87 -48 -81 -50 vhcurveto
          88 -72 rlineto
          28 22 35 44 48 hhcurveto
          32 25 -21 -35 -60 -57 -32 -90 -45 hvcurveto
          -76 -38 -20 -53 -12 -61 rrcurveto
          81 -245 rmoveto
          32 150 54 callgsubr
          -32 -150 rlineto
          endchar
        </CharString>
        <CharString name="questiondown">
          -156 -213 129 440 150 hstem
          -38 144 vstem
          230 261 rmoveto
          -11 -57 -70 -18 -60 -36 rrcurveto
          -71 -42 -56 -50 -113 vvcurveto
          -113 83 -45 84 90 87 48 81 50 vhcurveto
          -88 72 rlineto
          -28 -22 -35 -44 -48 hhcurveto
          -32 -25 21 35 60 57 32 90 45 hvcurveto
          76 38 20 53 12 61 rrcurveto
          -81 245 rmoveto
          -32 -150 rlineto
          131 hlineto
          32 150 rlineto
          endchar
        </CharString>
        <CharString name="quotedbl">
          -199 498 228 hstem
          231 498 rmoveto
          56 callgsubr
          315 hmoveto
          56 callgsubr
          endchar
        </CharString>
        <CharString name="quotedblbase">
          -148 -119 -21 140 163 hstem
          88 -140 rmoveto
          67 136 35 167 -79 callsubr
          -35 -163 rlineto
          45 hlineto
          -53 -140 rlineto
          310 hmoveto
          67 136 35 167 -79 callsubr
          -35 -163 rlineto
          46 hlineto
          -54 -140 rlineto
          endchar
        </CharString>
        <CharString name="quotedblleft">
          -158 457 147 126 -20 hstem
          180 730 rmoveto
          -25 callgsubr
          96 hmoveto
          -25 callgsubr
          endchar
        </CharString>
        <CharString name="quotedblright">
          -63 522 -21 126 147 hstem
          415 501 rmoveto
          64 123 31 150 -79 callsubr
          -31 -147 rlineto
          45 hlineto
          -50 -126 rlineto
          -96 hmoveto
          64 123 31 150 -79 callsubr
          -31 -147 rlineto
          45 hlineto
          -50 -126 rlineto
          endchar
        </CharString>
        <CharString name="quoteleft">
          -359 478 -21 273 -20 hstem
          180 730 rmoveto
          -25 callgsubr
          endchar
        </CharString>
        <CharString name="quoteright">
          -370 522 -21 273 -20 hstem
          214 501 rmoveto
          64 123 31 150 -79 callsubr
          -31 -147 rlineto
          45 hlineto
          -50 -126 rlineto
          endchar
        </CharString>
        <CharString name="quotesinglbase">
          -353 -119 -21 161 -21 163 -20 hstem
          88 -140 rmoveto
          67 136 35 167 -79 callsubr
          -35 -163 rlineto
          45 hlineto
          -53 -140 rlineto
          endchar
        </CharString>
        <CharString name="quotesingle">
          -379 497 229 hstem
          231 497 rmoveto
          49 229 rlineto
          -135 hlineto
          -49 -229 rlineto
          endchar
        </CharString>
        <CharString name="r">
          1 callgsubr
          hstemhm
          hintmask 11000000
          -10 hmoveto
          -63 callgsubr
          hintmask 10100000
          -56 callsubr
          hintmask 11000000
          -5 callsubr
        </CharString>
        <CharString name="racute">
          1 callgsubr
          218 -20 hstemhm
          hintmask 11010000
          418 730 -95 callsubr
          -313 -586 rmoveto
          -63 callgsubr
          hintmask 10110000
          -56 callsubr
          hintmask 11010000
          -5 callsubr
        </CharString>
        <CharString name="radical">
          -96 21 -21 276 110 404 -20 hstem
          14 276 rmoveto
          111 hlineto
          80 -276 rlineto
          200 hlineto
          152 790 rlineto
          -140 hlineto
          -112 -678 -70 274 rlineto
          -221 hlineto
          endchar
        </CharString>
        <CharString name="rcaron">
          -234 21 62 callsubr
          0 61 -54 -20 218 -20 hstemhm
          hintmask 10101000
          210 586 -92 callsubr
          -138 -693 rmoveto
          -59 callsubr
          67 315 rlineto
          hintmask 11001000
          38 48 68 24 72 1 30 143 rcurveline
          hintmask 10011000
          -56 callsubr
          hintmask 11001000
          -5 callsubr
        </CharString>
        <CharString name="rcommaaccent">
          -234 -213 166 68 33 callgsubr
          hstemhm
          hintmask 11100000
          44 -90 callgsubr
          16 213 rmoveto
          -63 callgsubr
          hintmask 11010000
          -56 callsubr
          hintmask 11100000
          -5 callsubr
        </CharString>
        <CharString name="rdblgrave">
          1 callgsubr
          218 -20 hstemhm
          hintmask 11010000
          314 584 -95 callgsubr
          -107 -730 rmoveto
          -63 callgsubr
          hintmask 10110000
          -56 callsubr
          hintmask 11010000
          -5 callsubr
        </CharString>
        <CharString name="rdotbelow">
          -234 -204 137 88 33 callgsubr
          hstemhm
          hintmask 11100000
          -10 hmoveto
          -63 callgsubr
          hintmask 11010000
          -56 callsubr
          hintmask 11100000
          23 106 rlineto
          -147 hlineto
          -1 -729 -100 callgsubr
          endchar
        </CharString>
        <CharString name="registered">
          232 -7 55 428 98 85 56 hstem
          59 65 149 112 117 110 146 65 vstem
          439 -7 rmoveto
          219 165 155 207 206 -165 154 -219 -220 -160 -154 -206 -207 160 -155 220 hvcurveto
          55 vmoveto
          -184 -131 136 170 170 131 135 184 184 135 -135 -171 -177 -139 -128 -180 hvcurveto
          -166 92 rmoveto
          112 140 43 hlineto
          87 -140 rlineto
          125 hlineto
          -100 161 rlineto
          43 23 29 50 52 vvcurveto
          72 -60 76 -82 vhcurveto
          -197 hlineto
          112 -198 rmoveto
          100 72 vlineto
          23 22 -13 -37 -35 -18 -15 -25 hvcurveto
          endchar
        </CharString>
        <CharString name="ring">
          -370 567 47 69 47 hstem
          31 68 77 67 vstem
          31 632 -88 callgsubr
          endchar
        </CharString>
        <CharString name="rinvertedbreve">
          1 callgsubr
          71 -22 callgsubr
          328 84 hintmask 11010100
          127 44 callsubr
          hintmask 11001100
          -75 callsubr
          hintmask 11010100
          -96 callsubr
          -137 -583 rmoveto
          -63 callgsubr
          hintmask 10110100
          -56 callsubr
          hintmask 11010100
          -5 callsubr
        </CharString>
        <CharString name="s">
          32 callgsubr
          1 callsubr
          187 -10 -98 callgsubr
          endchar
        </CharString>
        <CharString name="s_t">
          226 -10 113 -113 146 268 131 -111 111 -10 -20 160 69 hstemhm
          46 148 87 152 -43 66 50 174 -75 163 hintmask 0101011101000000
          191 -10 rmoveto
          139 103 80 118 71 -41 31 -113 28 hvcurveto
          -57 14 -28 8 32 vvcurveto
          35 31 17 40 36 41 -13 -37 53 vhcurveto
          81 101 rlineto
          hintmask 1000111010100000
          -11 16 -9 34 30 vvcurveto
          61 36 49 64 36 13 -15 -37 -22 -4 -28 -8 -38 vhcurveto
          -62 hlineto
          hintmask 0110011101000000
          -26 -121 rlineto
          63 hlineto
          -57 -268 rlineto
          -4 -17 -1 -17 -13 vvcurveto
          -72 50 -27 66 54 62 19 19 48 vhcurveto
          127 vlineto
          -9 -23 -28 -10 -22 hhcurveto
          -21 -12 9 26 3 0 4 2 7 hvcurveto
          46 219 rlineto
          101 hlineto
          hintmask 1000111010100000
          25 121 rlineto
          -101 hlineto
          9 39 6 36 27 vvcurveto
          67 -35 40 -114 -166 -63 -84 -96 -16 2 -20 5 -14 vhcurveto
          hintmask 0110011101000000
          25 -35 -55 6 -30 hhcurveto
          -110 -121 -84 -118 -75 48 -23 102 -30 hvcurveto
          61 -18 24 -7 -29 vvcurveto
          -31 -29 -17 -43 -52 -56 22 40 -55 vhcurveto
          -82 -109 rlineto
          -37 50 94 -29 83 hhcurveto
          endchar
        </CharString>
        <CharString name="sacute">
          32 callgsubr
          5 callsubr
          1 callsubr
          449 730 -95 callsubr
          -147 -596 -98 callgsubr
          endchar
        </CharString>
        <CharString name="scaron">
          32 callgsubr
          0 51 10 callgsubr
          42 156 74 161 hintmask 10111100
          241 586 -92 callsubr
          28 -703 rmoveto
          146 100 82 118 66 -48 34 -114 33 hvcurveto
          -52 15 -21 11 23 vvcurveto
          hintmask 11011100
          34 27 18 36 40 38 -18 -41 49 vhcurveto
          82 96 rlineto
          55 -51 -60 19 -74 hhcurveto
          -132 -111 -87 -117 -61 46 -29 110 -35 hvcurveto
          54 -17 20 -13 -23 vvcurveto
          -30 -22 -20 -42 -52 -54 25 44 -51 vhcurveto
          -77 -98 rlineto
          -54 46 83 -30 84 hhcurveto
          endchar
        </CharString>
        <CharString name="schwa">
          -42 -10 115 109 98 107 116 hstem
          4 166 221 166 vstem
          223 -10 rmoveto
          201 133 161 166 119 -74 99 -145 -118 -98 -59 -81 -56 hvcurveto
          128 -39 rlineto
          38 21 49 25 44 hhcurveto
          45 38 -30 -56 -7 0 -7 -1 -7 hvcurveto
          -364 hlineto
          -13 -34 -9 -44 -37 vvcurveto
          -116 72 -91 147 vhcurveto
          26 115 rmoveto
          -49 -30 34 55 7 0 7 1 6 hvcurveto
          201 hlineto
          -66 -20 -48 -43 -55 hhcurveto
          endchar
        </CharString>
        <CharString name="scircumflex">
          32 callgsubr
          5 callsubr
          1 callsubr
          232 586 -103 callgsubr
          29 -632 -98 callgsubr
          endchar
        </CharString>
        <CharString name="sdotbelow">
          -144 -29 callgsubr
          57 22 callsubr
          1 callsubr
          187 -10 -98 callgsubr
          20 -194 -100 callgsubr
          endchar
        </CharString>
        <CharString name="section">
          -102 -88 152 509 142 hstemhm
          65 153 -135 164 30 173 -131 156 hintmask 11010100
          438 223 rmoveto
          10 14 27 44 51 vvcurveto
          104 -95 35 -85 3 vhcurveto
          -26 1 -22 6 29 vvcurveto
          39 31 24 40 39 22 -21 -29 10 vhcurveto
          135 58 rlineto
          49 -22 -47 85 -118 hhcurveto
          -134 -120 -112 -117 -34 8 -29 7 -12 hvcurveto
          hintmask 11101000
          -8 -15 -25 -29 -61 vvcurveto
          -81 54 -59 114 -9 vhcurveto
          21 -2 23 -3 -27 vvcurveto
          -39 -36 -22 -38 -35 -31 15 40 -26 vhcurveto
          -123 -98 rlineto
          -37 20 65 -72 105 hhcurveto
          102 170 67 184 26 -5 22 -7 12 hvcurveto
          -220 85 rmoveto
          19 10 17 10 9 vhcurveto
          -3 3 17 -4 16 hhcurveto
          hintmask 11100100
          20 25 -10 -30 -16 -9 -19 -12 -9 hvcurveto
          -23 10 -57 -10 46 vvcurveto
          endchar
        </CharString>
        <CharString name="semicolon">
          -354 -114 -21 491 163 hstem
          212 356 rmoveto
          -24 callsubr
          -18 -491 rmoveto
          75 137 35 161 rlineto
          -134 hlineto
          -35 59 callgsubr
        </CharString>
        <CharString name="servicemark">
          166 407 72 -57 -21 238 71 6 -20 hstemhm
          115 238 hintmask 10101000
          593 565 rmoveto
          -10 145 rlineto
          -153 hlineto
          -65 -303 rlineto
          37 callgsubr
          -37 -174 rlineto
          102 hlineto
          64 303 63 callsubr
          -285 -28 rmoveto
          hintmask 10011000
          21 -38 -41 13 -39 hhcurveto
          -81 -66 -50 -68 -38 27 -21 64 -17 hvcurveto
          38 -11 13 -5 -10 vvcurveto
          -12 -12 -5 -24 -34 -36 14 21 -30 vhcurveto
          -54 -74 rlineto
          hintmask 01101000
          -23 32 57 -16 50 hhcurveto
          86 61 43 71 41 -29 21 -68 18 hvcurveto
          -37 9 -10 6 10 vvcurveto
          13 14 6 22 28 24 -11 -18 31 vhcurveto
          endchar
        </CharString>
        <CharString name="seven">
          -63 -105 -21 564 146 hstem
          -46 -126 rmoveto
          181 hlineto
          483 10 callsubr
          -529 hlineto
          -31 -146 rlineto
          277 hlineto
          endchar
        </CharString>
        <CharString name="seven.denominator">
          -237 22 -21 337 93 hstem
          -21 1 rmoveto
          104 hlineto
          334 430 rlineto
          -366 hlineto
          -20 -93 rlineto
          221 hlineto
          endchar
        </CharString>
        <CharString name="seven.lnum">
          -62 22 -21 564 146 hstem
          -13 1 rmoveto
          180 hlineto
          484 10 callsubr
          -529 hlineto
          -31 -146 rlineto
          276 hlineto
          endchar
        </CharString>
        <CharString name="seven.numerator">
          -238 322 -21 337 93 hstem
          42 301 18 callsubr
        </CharString>
        <CharString name="seveneighths">
          241 33 callsubr
          76 90 208 93 hstemhm
          438 2 callgsubr
          hintmask 0111110100000000
          98 -9 rmoveto
          -82 callsubr
          hintmask 1011110100000000
          549 -62 -24 callgsubr
          hintmask 1011101010000000
          -50 callgsubr
          hintmask 1011110100000000
          -81 callsubr
          hintmask 1011101010000000
          -57 callgsubr
          -588 37 18 callsubr
        </CharString>
        <CharString name="seveninferior">
          -236 -65 -21 337 93 hstem
          -40 -86 rmoveto
          105 hlineto
          334 430 rlineto
          -367 hlineto
          -20 69 callgsubr
        </CharString>
        <CharString name="sevensuperior">
          -235 409 -21 337 93 hstem
          61 388 rmoveto
          105 hlineto
          333 430 rlineto
          -366 hlineto
          -20 69 callgsubr
        </CharString>
        <CharString name="six">
          -73 callsubr
        </CharString>
        <CharString name="six.denominator">
          -205 -6 60 callsubr
          6 84 183 90 vstem
          148 -6 rmoveto
          114 101 79 94 68 -56 52 -92 -34 -45 -10 -21 -25 hvcurveto
          57 14 46 32 61 hhcurveto
          40 35 -14 -24 15 hvcurveto
          67 65 rlineto
          40 -26 -50 22 39 callgsubr
          hvcurveto
          20 86 17 callgsubr
        </CharString>
        <CharString name="six.lnum">
          -73 callsubr
        </CharString>
        <CharString name="six.numerator">
          -205 290 60 callsubr
          69 84 183 90 vstem
          426 463 rmoveto
          68 -56 52 -92 -34 -45 -10 -21 -25 vhcurveto
          57 14 46 32 61 47 callsubr
          -50 21 39 callgsubr
          115 100 -1 callgsubr
        </CharString>
        <CharString name="sixinferior">
          -205 -93 86 126 80 59 89 hstem
          -12 84 183 90 vstem
          345 80 rmoveto
          68 -57 51 -91 -34 -46 -10 -20 -24 vhcurveto
          57 13 47 32 60 hhcurveto
          40 35 -14 -25 16 hvcurveto
          67 66 rlineto
          40 -27 -49 22 -59 hhcurveto
          -147 -101 -122 -165 -96 52 -57 90 114 101 79 94 hvcurveto
          -195 -87 17 callgsubr
        </CharString>
        <CharString name="sixsuperior">
          -205 377 60 callsubr
          88 84 183 90 vstem
          445 550 rmoveto
          68 -57 52 -91 -34 -46 -10 -21 -25 vhcurveto
          57 14 47 32 60 47 callsubr
          -49 21 -59 hhcurveto
          -147 -101 -122 -164 -97 51 -57 91 114 101 -1 callgsubr
        </CharString>
        <CharString name="slash">
          103 23 callsubr
          606 710 rmoveto
          -633 -710 rlineto
          176 hlineto
          633 10 callsubr
          endchar
        </CharString>
        <CharString name="space">
          -396 endchar
        </CharString>
        <CharString name="sterling">
          -82 -15 136 -105 105 -105 121 128 119 202 129 hstemhm
          118 140 hintmask 01011100
          51 265 rmoveto
          83 hlineto
          -17 -61 -48 -56 -62 -43 9 -114 rcurveline
          15 48 53 10 35 hhcurveto
          hintmask 10011100
          63 57 -31 59 hhcurveto
          37 48 13 19 33 hvcurveto
          -14 118 rlineto
          -9 -27 -18 -5 -22 hhcurveto
          hintmask 00111100
          -42 -38 16 -42 hhcurveto
          -22 -23 -4 -10 -32 hvcurveto
          60 54 30 42 14 46 rrcurveto
          157 hlineto
          26 119 rlineto
          -179 hlineto
          -7 43 -12 38 33 vvcurveto
          51 36 37 46 43 48 -32 -42 23 vhcurveto
          102 98 rlineto
          66 -37 -70 39 -81 hhcurveto
          -129 -121 -95 -120 -37 9 -40 7 -39 hvcurveto
          -59 hlineto
          endchar
        </CharString>
        <CharString name="summation">
          3 0 136 454 120 hstem
          568 710 rmoveto
          -492 -105 hlineto
          202 -249 -209 -249 rlineto
          -107 503 136 -324 4 vlineto
          188 229 -175 217 rlineto
          4 307 vlineto
          endchar
        </CharString>
        <CharString name="t">
          -234 -10 25 callgsubr
          163 -10 rmoveto
          55 61 17 21 48 hvcurveto
          -91 callgsubr
          -72 50 -27 67 vhcurveto
          endchar
        </CharString>
        <CharString name="t.alt">
          -229 21 -21 381 144 167 -20 hstem
          38 hmoveto
          -18 callsubr
          81 381 rlineto
          115 -77 callgsubr
          -115 hlineto
          37 167 rlineto
          -165 hlineto
          -36 -167 rlineto
          -75 -9 callgsubr
          75 hlineto
          endchar
        </CharString>
        <CharString name="tbar">
          -232 -10 146 111 93 64 121 167 -20 hstem
          14 247 rmoveto
          63 hlineto
          -25 -117 rlineto
          -3 -16 -2 -12 -13 vvcurveto
          -72 51 -27 66 55 62 17 21 48 vhcurveto
          127 vlineto
          -9 -22 -30 -10 -21 hhcurveto
          -21 -13 10 23 6 0 6 2 9 hvcurveto
          12 57 rlineto
          102 hlineto
          19 93 rlineto
          -101 hlineto
          14 64 rlineto
          101 hlineto
          25 121 rlineto
          -100 hlineto
          36 167 -85 callsubr
          -36 -167 -34 callsubr
          -14 -64 rlineto
          -63 hlineto
          endchar
        </CharString>
        <CharString name="tcaron">
          -234 -10 146 268 121 205 -20 hstem
          460 -49 callgsubr
          -201 -610 rmoveto
          55 61 17 21 48 hvcurveto
          -91 callgsubr
          -72 50 -27 67 vhcurveto
          endchar
        </CharString>
        <CharString name="tdotbelow">
          -234 -29 callgsubr
          57 25 callgsubr
          191 -56 callgsubr
          116 194 rmoveto
          55 61 17 21 48 hvcurveto
          -91 callgsubr
          -72 50 -27 67 vhcurveto
          endchar
        </CharString>
        <CharString name="thorn">
          -50 -192 -21 186 143 282 143 169 -20 hstemhm
          190 195 0 165 hintmask 11110100
          -56 -213 rmoveto
          165 hlineto
          26 128 20 93 0 vvcurveto
          -16 7 19 -19 55 hhcurveto
          184 130 193 156 112 -66 107 -129 -46 -31 -16 -22 -17 hvcurveto
          0 16 76 28 131 vhcurveto
          -165 hlineto
          120 -594 rmoveto
          hintmask 11111000
          -47 -23 32 21 hvcurveto
          4 1 1 3 vvcurveto
          33 155 rlineto
          38 27 28 28 37 hhcurveto
          46 23 -42 -61 -90 -48 -89 -77 hvcurveto
          endchar
        </CharString>
        <CharString name="three">
          -77 -147 146 174 115 151 137 hstemhm
          303 163 -119 119 -119 180 hintmask 11101000
          156 -147 rmoveto
          183 127 97 145 73 -38 57 -62 12 hvcurveto
          hintmask 11100100
          86 15 75 87 90 vvcurveto
          88 -74 59 -121 -101 -105 -39 -57 -55 vhcurveto
          76 -116 rlineto
          48 40 49 27 49 hhcurveto
          39 23 -19 -34 -57 -53 -41 -76 hvcurveto
          -32 hlineto
          -24 -115 rlineto
          28 hlineto
          hintmask 11110000
          78 35 -25 -47 -65 -38 -37 -86 -59 -37 20 37 -26 hvcurveto
          -109 -114 rlineto
          -59 43 69 -30 96 hhcurveto
          endchar
        </CharString>
        <CharString name="three.denominator">
          -227 -6 94 93 85 83 87 hstemhm
          237 94 70 callgsubr
          hintmask 11101000
          120 -6 -46 callsubr
          hintmask 11100100
          25 callsubr
          -64 -72 -20 -38 -39 vhcurveto
          42 -76 -36 callgsubr
          hintmask 11110000
          -36 callsubr
          endchar
        </CharString>
        <CharString name="three.lnum">
          -63 -9 147 163 133 145 140 hstemhm
          334 166 -119 119 -119 175 hintmask 11101000
          190 -9 rmoveto
          140 170 75 163 75 -37 60 -66 12 hvcurveto
          hintmask 11100100
          93 20 66 68 88 vvcurveto
          97 -80 70 -123 -87 -107 -34 -62 -60 vhcurveto
          77 -118 rlineto
          28 20 55 46 70 hhcurveto
          27 33 -12 -41 -64 -85 -28 -99 hvcurveto
          -31 hlineto
          -28 -133 rlineto
          31 hlineto
          hintmask 11110000
          109 56 -21 -55 -54 -57 -33 -62 -87 -20 65 25 -4 hvcurveto
          -106 -109 rlineto
          -84 20 66 -44 106 hhcurveto
          endchar
        </CharString>
        <CharString name="three.numerator">
          -227 289 94 93 85 84 86 hstemhm
          300 93 70 callgsubr
          hintmask 11101000
          182 289 -46 callsubr
          hintmask 11100100
          -64 callgsubr
          hintmask 11110000
          -35 callgsubr
          endchar
        </CharString>
        <CharString name="threeeighths">
          263 33 callsubr
          25 94 -43 90 46 57 callgsubr
          20 2 callgsubr
          hintmask 1011011010101000
          193 289 -46 callsubr
          hintmask 1011011001101000
          -64 callgsubr
          hintmask 0111011100101000
          -35 callgsubr
          -24 -298 rmoveto
          hintmask 0110111100101000
          -82 callsubr
          hintmask 1011011100101000
          497 -62 -24 callgsubr
          hintmask 1010111100010100
          -50 callgsubr
          hintmask 1011011100101000
          -81 callsubr
          hintmask 1010111100010100
          -57 callgsubr
          endchar
        </CharString>
        <CharString name="threeinferior">
          -228 -93 94 93 85 83 87 hstemhm
          218 94 70 callgsubr
          hintmask 11101000
          101 -93 rmoveto
          100 111 43 100 45 -29 39 -52 8 hvcurveto
          hintmask 11100100
          60 callgsubr
          -60 44 -88 -64 -72 -21 -37 -39 vhcurveto
          42 -76 rlineto
          28 31 35 19 50 hhcurveto
          26 37 -9 -23 -37 -59 -14 -79 hvcurveto
          -23 hlineto
          -18 -85 rlineto
          24 hlineto
          hintmask 11110000
          82 48 -13 -31 -33 -47 -16 -52 -69 -27 41 11 -3 hvcurveto
          -63 -70 rlineto
          -51 11 54 -25 79 hhcurveto
          endchar
        </CharString>
        <CharString name="threequarters">
          238 1 179 -168 -21 98 91 109 94 93 57 callgsubr
          hintmask 1001110100000000
          193 289 -46 callsubr
          hintmask 1001110010000000
          -64 callgsubr
          hintmask 1001111000000000
          -35 callgsubr
          417 -288 rmoveto
          92 hlineto
          hintmask 0111111000000000
          -42 callgsubr
          hintmask 1001111000000000
          19 callgsubr
          hintmask 0111111000000000
          -455 -189 rmoveto
          -82 callsubr
          endchar
        </CharString>
        <CharString name="threesuperior">
          -227 376 94 93 85 84 86 hstemhm
          318 93 70 callgsubr
          hintmask 11101000
          203 376 rmoveto
          97 111 45 97 47 -27 37 -53 9 hvcurveto
          hintmask 11100100
          65 10 48 39 54 vvcurveto
          61 -58 43 -91 -62 -72 -20 -38 -40 vhcurveto
          43 -75 rlineto
          28 31 36 19 49 hhcurveto
          27 35 -8 -26 -34 -58 -16 -80 hvcurveto
          -22 hlineto
          -18 -85 rlineto
          23 hlineto
          hintmask 11110000
          83 48 -12 -33 -32 -49 -16 -47 -74 -21 38 14 -7 hvcurveto
          -64 -70 rlineto
          -50 29 44 -26 74 hhcurveto
          endchar
        </CharString>
        <CharString name="tilde">
          -195 588 92 -73 -21 48 46 -46 94 2 -20 hstemhm
          hintmask 01101000
          271 588 -89 callgsubr
          hintmask 01010000
          -92 callgsubr
          hintmask 10001000
          -54 callgsubr
        </CharString>
        <CharString name="trademark">
          215 428 -21 203 102 -2 -20 hstemhm
          hintmask 11000000
          428 712 rmoveto
          -282 hlineto
          -22 -102 rlineto
          90 hlineto
          -43 -203 rlineto
          102 hlineto
          43 203 rlineto
          90 hlineto
          1 -203 rmoveto
          37 callgsubr
          -38 -174 rlineto
          103 hlineto
          hintmask 10100000
          64 303 63 callsubr
          -72 -145 -10 145 63 callsubr
          endchar
        </CharString>
</ttFont>
